G75*
%MOIN*%
%OFA0B0*%
%FSLAX24Y24*%
%IPPOS*%
%LPD*%
%AMOC8*
5,1,8,0,0,1.08239X$1,22.5*
%
%ADD10C,0.0000*%
%ADD11C,0.0070*%
%ADD12OC8,0.0520*%
%ADD13C,0.0520*%
%ADD14OC8,0.0560*%
%ADD15OC8,0.0600*%
%ADD16C,0.0600*%
%ADD17R,0.0476X0.0476*%
%ADD18C,0.0440*%
%ADD19C,0.0594*%
%ADD20OC8,0.0630*%
%ADD21C,0.0630*%
%ADD22C,0.0768*%
%ADD23R,0.1500X0.0820*%
%ADD24R,0.3500X0.4500*%
%ADD25R,0.2441X0.2126*%
%ADD26R,0.0630X0.0394*%
%ADD27R,0.0512X0.0630*%
%ADD28R,0.0591X0.0787*%
%ADD29R,0.0630X0.0315*%
%ADD30R,0.0591X0.0512*%
%ADD31C,0.2300*%
%ADD32C,0.0560*%
%ADD33R,0.0315X0.0630*%
%ADD34C,0.0320*%
%ADD35C,0.0160*%
%ADD36C,0.0356*%
%ADD37C,0.0100*%
%ADD38C,0.1000*%
%ADD39C,0.0500*%
%ADD40C,0.0700*%
%ADD41C,0.0240*%
%ADD42R,0.0356X0.0356*%
D10*
X005830Y001251D02*
X006330Y000751D01*
X042330Y000751D01*
X042830Y001251D01*
X042830Y024251D01*
X042330Y024751D01*
X006330Y024751D01*
X005830Y024251D01*
X005830Y001251D01*
X006031Y011306D02*
X006033Y011341D01*
X006039Y011376D01*
X006049Y011410D01*
X006062Y011443D01*
X006079Y011474D01*
X006100Y011502D01*
X006123Y011529D01*
X006150Y011552D01*
X006178Y011573D01*
X006209Y011590D01*
X006242Y011603D01*
X006276Y011613D01*
X006311Y011619D01*
X006346Y011621D01*
X006381Y011619D01*
X006416Y011613D01*
X006450Y011603D01*
X006483Y011590D01*
X006514Y011573D01*
X006542Y011552D01*
X006569Y011529D01*
X006592Y011502D01*
X006613Y011474D01*
X006630Y011443D01*
X006643Y011410D01*
X006653Y011376D01*
X006659Y011341D01*
X006661Y011306D01*
X006659Y011271D01*
X006653Y011236D01*
X006643Y011202D01*
X006630Y011169D01*
X006613Y011138D01*
X006592Y011110D01*
X006569Y011083D01*
X006542Y011060D01*
X006514Y011039D01*
X006483Y011022D01*
X006450Y011009D01*
X006416Y010999D01*
X006381Y010993D01*
X006346Y010991D01*
X006311Y010993D01*
X006276Y010999D01*
X006242Y011009D01*
X006209Y011022D01*
X006178Y011039D01*
X006150Y011060D01*
X006123Y011083D01*
X006100Y011110D01*
X006079Y011138D01*
X006062Y011169D01*
X006049Y011202D01*
X006039Y011236D01*
X006033Y011271D01*
X006031Y011306D01*
X006031Y013274D02*
X006033Y013309D01*
X006039Y013344D01*
X006049Y013378D01*
X006062Y013411D01*
X006079Y013442D01*
X006100Y013470D01*
X006123Y013497D01*
X006150Y013520D01*
X006178Y013541D01*
X006209Y013558D01*
X006242Y013571D01*
X006276Y013581D01*
X006311Y013587D01*
X006346Y013589D01*
X006381Y013587D01*
X006416Y013581D01*
X006450Y013571D01*
X006483Y013558D01*
X006514Y013541D01*
X006542Y013520D01*
X006569Y013497D01*
X006592Y013470D01*
X006613Y013442D01*
X006630Y013411D01*
X006643Y013378D01*
X006653Y013344D01*
X006659Y013309D01*
X006661Y013274D01*
X006659Y013239D01*
X006653Y013204D01*
X006643Y013170D01*
X006630Y013137D01*
X006613Y013106D01*
X006592Y013078D01*
X006569Y013051D01*
X006542Y013028D01*
X006514Y013007D01*
X006483Y012990D01*
X006450Y012977D01*
X006416Y012967D01*
X006381Y012961D01*
X006346Y012959D01*
X006311Y012961D01*
X006276Y012967D01*
X006242Y012977D01*
X006209Y012990D01*
X006178Y013007D01*
X006150Y013028D01*
X006123Y013051D01*
X006100Y013078D01*
X006079Y013106D01*
X006062Y013137D01*
X006049Y013170D01*
X006039Y013204D01*
X006033Y013239D01*
X006031Y013274D01*
X008708Y012290D02*
X008710Y012340D01*
X008716Y012390D01*
X008726Y012439D01*
X008740Y012487D01*
X008757Y012534D01*
X008778Y012579D01*
X008803Y012623D01*
X008831Y012664D01*
X008863Y012703D01*
X008897Y012740D01*
X008934Y012774D01*
X008974Y012804D01*
X009016Y012831D01*
X009060Y012855D01*
X009106Y012876D01*
X009153Y012892D01*
X009201Y012905D01*
X009251Y012914D01*
X009300Y012919D01*
X009351Y012920D01*
X009401Y012917D01*
X009450Y012910D01*
X009499Y012899D01*
X009547Y012884D01*
X009593Y012866D01*
X009638Y012844D01*
X009681Y012818D01*
X009722Y012789D01*
X009761Y012757D01*
X009797Y012722D01*
X009829Y012684D01*
X009859Y012644D01*
X009886Y012601D01*
X009909Y012557D01*
X009928Y012511D01*
X009944Y012463D01*
X009956Y012414D01*
X009964Y012365D01*
X009968Y012315D01*
X009968Y012265D01*
X009964Y012215D01*
X009956Y012166D01*
X009944Y012117D01*
X009928Y012069D01*
X009909Y012023D01*
X009886Y011979D01*
X009859Y011936D01*
X009829Y011896D01*
X009797Y011858D01*
X009761Y011823D01*
X009722Y011791D01*
X009681Y011762D01*
X009638Y011736D01*
X009593Y011714D01*
X009547Y011696D01*
X009499Y011681D01*
X009450Y011670D01*
X009401Y011663D01*
X009351Y011660D01*
X009300Y011661D01*
X009251Y011666D01*
X009201Y011675D01*
X009153Y011688D01*
X009106Y011704D01*
X009060Y011725D01*
X009016Y011749D01*
X008974Y011776D01*
X008934Y011806D01*
X008897Y011840D01*
X008863Y011877D01*
X008831Y011916D01*
X008803Y011957D01*
X008778Y012001D01*
X008757Y012046D01*
X008740Y012093D01*
X008726Y012141D01*
X008716Y012190D01*
X008710Y012240D01*
X008708Y012290D01*
D11*
X033260Y002766D02*
X033260Y002336D01*
X033475Y002336D01*
X033547Y002408D01*
X033547Y002551D01*
X033475Y002623D01*
X033260Y002623D01*
X033710Y002336D02*
X033854Y002336D01*
X033782Y002336D02*
X033782Y002766D01*
X033854Y002766D01*
X034089Y002766D02*
X034089Y002838D01*
X034089Y002623D02*
X034089Y002336D01*
X034161Y002336D02*
X034017Y002336D01*
X034089Y002623D02*
X034161Y002623D01*
X034334Y002551D02*
X034334Y002336D01*
X034334Y002551D02*
X034406Y002623D01*
X034550Y002623D01*
X034621Y002551D01*
X034795Y002623D02*
X035010Y002623D01*
X035082Y002551D01*
X035082Y002408D01*
X035010Y002336D01*
X034795Y002336D01*
X034621Y002336D02*
X034621Y002766D01*
X035255Y002766D02*
X035255Y002336D01*
X035470Y002336D01*
X035542Y002408D01*
X035542Y002551D01*
X035470Y002623D01*
X035255Y002623D01*
X035716Y002551D02*
X035716Y002408D01*
X035787Y002336D01*
X035931Y002336D01*
X036002Y002408D01*
X036002Y002551D01*
X035931Y002623D01*
X035787Y002623D01*
X035716Y002551D01*
X036176Y002551D02*
X036176Y002408D01*
X036248Y002336D01*
X036391Y002336D01*
X036463Y002408D01*
X036463Y002551D01*
X036391Y002623D01*
X036248Y002623D01*
X036176Y002551D01*
X036636Y002551D02*
X036636Y002408D01*
X036708Y002336D01*
X036852Y002336D01*
X036923Y002408D01*
X036923Y002694D01*
X036852Y002766D01*
X036708Y002766D01*
X036636Y002694D01*
X036636Y002551D02*
X036780Y002551D01*
X037557Y002623D02*
X037772Y002623D01*
X037844Y002551D01*
X037844Y002408D01*
X037772Y002336D01*
X037557Y002336D01*
X038007Y002336D02*
X038151Y002336D01*
X038079Y002336D02*
X038079Y002623D01*
X038151Y002623D01*
X038079Y002766D02*
X038079Y002838D01*
X038012Y003086D02*
X038156Y003086D01*
X038228Y003158D01*
X038228Y003301D01*
X038156Y003373D01*
X038012Y003373D01*
X037941Y003301D01*
X037941Y003229D01*
X038228Y003229D01*
X038391Y003086D02*
X038463Y003158D01*
X038463Y003444D01*
X038535Y003373D02*
X038391Y003373D01*
X038708Y003444D02*
X038780Y003516D01*
X038923Y003516D01*
X038995Y003444D01*
X038995Y003373D01*
X038923Y003301D01*
X038780Y003301D01*
X038708Y003229D01*
X038708Y003158D01*
X038780Y003086D01*
X038923Y003086D01*
X038995Y003158D01*
X038995Y002766D02*
X038708Y002766D01*
X038535Y002623D02*
X038535Y002336D01*
X038535Y002479D02*
X038391Y002623D01*
X038319Y002623D01*
X038708Y002336D02*
X038995Y002336D01*
X038995Y002766D01*
X038995Y002551D02*
X038852Y002551D01*
X038923Y002016D02*
X038995Y001944D01*
X038995Y001658D01*
X038923Y001586D01*
X038780Y001586D01*
X038708Y001658D01*
X038708Y001801D01*
X038852Y001801D01*
X038708Y001944D02*
X038780Y002016D01*
X038923Y002016D01*
X038463Y001873D02*
X038319Y001873D01*
X038248Y001801D01*
X038248Y001586D01*
X038463Y001586D01*
X038535Y001658D01*
X038463Y001729D01*
X038248Y001729D01*
X038074Y001658D02*
X038002Y001586D01*
X037859Y001586D01*
X037787Y001658D01*
X037787Y001801D01*
X037859Y001873D01*
X038002Y001873D01*
X038074Y001801D01*
X038074Y001658D01*
X037153Y001658D02*
X037082Y001586D01*
X036938Y001586D01*
X036867Y001658D01*
X036867Y001801D01*
X037010Y001801D01*
X037153Y001944D02*
X037153Y001658D01*
X037153Y001944D02*
X037082Y002016D01*
X036938Y002016D01*
X036867Y001944D01*
X036693Y001873D02*
X036693Y001658D01*
X036621Y001586D01*
X036406Y001586D01*
X036406Y001873D01*
X036161Y001873D02*
X036017Y001873D01*
X035946Y001801D01*
X035946Y001586D01*
X036161Y001586D01*
X036233Y001658D01*
X036161Y001729D01*
X035946Y001729D01*
X035772Y001586D02*
X035772Y001873D01*
X035557Y001873D01*
X035485Y001801D01*
X035485Y001586D01*
X035312Y001658D02*
X035312Y001801D01*
X035240Y001873D01*
X035025Y001873D01*
X035025Y001514D01*
X035097Y001442D01*
X035168Y001442D01*
X035240Y001586D02*
X035025Y001586D01*
X034851Y001658D02*
X034780Y001586D01*
X034565Y001586D01*
X034565Y001514D02*
X034636Y001442D01*
X034708Y001442D01*
X034565Y001514D02*
X034565Y001873D01*
X034319Y001873D02*
X034176Y001873D01*
X034104Y001801D01*
X034104Y001586D01*
X034319Y001586D01*
X034391Y001658D01*
X034319Y001729D01*
X034104Y001729D01*
X033931Y001586D02*
X033931Y001873D01*
X033715Y001873D01*
X033644Y001801D01*
X033644Y001586D01*
X034851Y001658D02*
X034851Y001873D01*
X035240Y001586D02*
X035312Y001658D01*
X035465Y003086D02*
X035465Y003373D01*
X035322Y003373D02*
X035250Y003373D01*
X035322Y003373D02*
X035465Y003229D01*
X035639Y003229D02*
X035854Y003229D01*
X035926Y003158D01*
X035854Y003086D01*
X035639Y003086D01*
X035639Y003301D01*
X035711Y003373D01*
X035854Y003373D01*
X036099Y003516D02*
X036099Y003086D01*
X036243Y003229D01*
X036386Y003086D01*
X036386Y003516D01*
X037020Y003301D02*
X037020Y003229D01*
X037307Y003229D01*
X037307Y003158D02*
X037307Y003301D01*
X037235Y003373D01*
X037092Y003373D01*
X037020Y003301D01*
X037092Y003086D02*
X037235Y003086D01*
X037307Y003158D01*
X037480Y003373D02*
X037624Y003086D01*
X037767Y003373D01*
X035082Y003301D02*
X035082Y003158D01*
X035010Y003086D01*
X034795Y003086D01*
X034795Y003516D01*
X034795Y003373D02*
X035010Y003373D01*
X035082Y003301D01*
D12*
X012830Y007376D03*
X011205Y007376D03*
X011205Y012376D03*
X012830Y012376D03*
X008330Y017251D03*
X008330Y018251D03*
X009330Y018251D03*
X009330Y019251D03*
X008330Y019251D03*
X008330Y020251D03*
X009330Y020251D03*
D13*
X009330Y017251D03*
D14*
X009455Y006001D03*
X015455Y006001D03*
D15*
X027580Y009501D03*
X028580Y009501D03*
X028580Y010501D03*
X027580Y010501D03*
X027580Y011501D03*
X028580Y011501D03*
D16*
X024580Y019451D02*
X024580Y020051D01*
X023580Y020051D02*
X023580Y019451D01*
X022580Y019451D02*
X022580Y020051D01*
X010255Y004376D02*
X009655Y004376D01*
X009655Y003376D02*
X010255Y003376D01*
X010255Y002376D02*
X009655Y002376D01*
D17*
X007330Y011503D03*
X007330Y012251D03*
X007330Y012999D03*
D18*
X015080Y014251D03*
X016080Y014251D03*
X017080Y014251D03*
D19*
X007627Y009501D02*
X007033Y009501D01*
X007033Y008501D02*
X007627Y008501D01*
X007627Y006001D02*
X007033Y006001D01*
X007033Y005001D02*
X007627Y005001D01*
X010080Y022704D02*
X010080Y023298D01*
X011080Y023298D02*
X011080Y022704D01*
X012080Y022704D02*
X012080Y023298D01*
X013080Y023298D02*
X013080Y022704D01*
X014080Y022704D02*
X014080Y023298D01*
X015080Y023298D02*
X015080Y022704D01*
X037980Y022704D02*
X037980Y023298D01*
X038980Y023298D02*
X038980Y022704D01*
X041033Y020751D02*
X041627Y020751D01*
X041627Y019751D02*
X041033Y019751D01*
X041033Y014501D02*
X041627Y014501D01*
X041627Y013501D02*
X041033Y013501D01*
X041033Y005751D02*
X041627Y005751D01*
X041627Y004751D02*
X041033Y004751D01*
D20*
X030430Y001851D03*
X030380Y010501D03*
X031780Y019501D03*
X027580Y023201D03*
X024080Y023151D03*
X021180Y022426D03*
D21*
X019780Y022426D03*
X024080Y021751D03*
X027580Y021801D03*
X030380Y019501D03*
X031780Y010501D03*
X030430Y003251D03*
D22*
X013341Y002490D03*
X012455Y001899D03*
X011569Y002490D03*
X011569Y003376D03*
X011569Y004262D03*
X012455Y004852D03*
X013341Y004262D03*
D23*
X031080Y021001D03*
X031080Y023001D03*
D24*
X035580Y022001D03*
D25*
X017096Y022501D03*
D26*
X019970Y023398D03*
X019970Y021603D03*
D27*
X026581Y018376D03*
X027329Y018376D03*
D28*
X025796Y018376D03*
X024614Y018376D03*
D29*
X024624Y017626D03*
X023286Y017626D03*
D30*
X021705Y019752D03*
X021705Y020500D03*
D31*
X007205Y023376D03*
X041455Y023376D03*
X041455Y002126D03*
X007205Y002126D03*
D32*
X026730Y019771D02*
X026730Y020331D01*
X027730Y020331D02*
X027730Y019771D01*
D33*
X029930Y021282D03*
X029930Y022620D03*
D34*
X031080Y023001D02*
X031080Y023501D01*
X030580Y023501D01*
X031080Y023501D02*
X031580Y023501D01*
X029780Y020501D02*
X028530Y021751D01*
X027630Y021751D01*
X027580Y021801D01*
X029780Y020501D02*
X029930Y020501D01*
X030580Y020501D01*
X031080Y020501D01*
X031080Y021001D01*
X031080Y020501D02*
X031580Y020501D01*
X019970Y021603D02*
X019970Y022236D01*
X019780Y022426D01*
D35*
X017330Y022501D02*
X017118Y022501D01*
X016705Y022087D01*
X016705Y021626D01*
X017096Y022501D02*
X017118Y022501D01*
X012940Y020576D02*
X012330Y019966D01*
X012330Y019501D01*
X014330Y017501D02*
X013330Y016501D01*
X015580Y015751D02*
X016080Y015501D01*
X018580Y017251D02*
X018580Y018751D01*
X021705Y019752D02*
X022579Y019752D01*
X022580Y019751D01*
X024580Y019751D02*
X024580Y018410D01*
X024614Y018376D01*
X024614Y017761D01*
X024624Y017626D01*
X025205Y017251D02*
X024455Y016501D01*
X024455Y016376D01*
X025205Y017251D02*
X025205Y019249D01*
X025581Y019625D01*
X025796Y018376D02*
X026581Y018376D01*
X023286Y017626D02*
X022705Y017626D01*
X022580Y017751D01*
X020580Y015501D02*
X022580Y013501D01*
X022080Y013251D02*
X020330Y015001D01*
X020080Y014501D02*
X021580Y013001D01*
X027580Y012501D02*
X027580Y011501D01*
X028080Y011001D02*
X028580Y011501D01*
X028080Y011001D02*
X028080Y010001D01*
X027580Y009501D01*
X028080Y006826D02*
X028080Y006501D01*
X028555Y005976D01*
X028555Y005501D01*
X025830Y003501D02*
X024830Y003501D01*
X027580Y012501D02*
X028330Y013251D01*
X008830Y014001D02*
X008080Y013251D01*
X008080Y012501D01*
X007830Y012251D01*
X007330Y012251D01*
D36*
X008830Y014001D03*
X013330Y016501D03*
X012330Y017001D03*
X014330Y017501D03*
X015580Y015751D03*
X018580Y017251D03*
X018830Y016751D03*
X020580Y015501D03*
X020330Y015001D03*
X020080Y014501D03*
X022080Y013251D03*
X022580Y013501D03*
X023330Y013001D03*
X021580Y013001D03*
X021080Y011251D03*
X021080Y009501D03*
X022830Y009501D03*
X023830Y008001D03*
X022530Y007101D03*
X026830Y004751D03*
X028555Y005501D03*
X030080Y004751D03*
X028080Y006826D03*
X030080Y007751D03*
X034080Y007001D03*
X034080Y011001D03*
X030080Y013501D03*
X028330Y013251D03*
X027330Y015251D03*
X027730Y015701D03*
X029830Y016501D03*
X030580Y017001D03*
X030580Y017501D03*
X028580Y017751D03*
X024455Y016376D03*
X022580Y017751D03*
X020380Y019651D03*
X018580Y018751D03*
X016705Y021626D03*
X012940Y020576D03*
X012330Y019501D03*
X014830Y011751D03*
X014830Y010251D03*
X010010Y009141D03*
X007080Y007251D03*
X015330Y003751D03*
X019080Y003751D03*
X018080Y006501D03*
X024830Y003501D03*
X025830Y003501D03*
X034080Y015751D03*
X031580Y020501D03*
X031080Y020501D03*
X030580Y020501D03*
X030580Y023501D03*
X031080Y023501D03*
X031580Y023501D03*
D37*
X031459Y023871D02*
X031201Y023871D01*
X031157Y023889D01*
X031003Y023889D01*
X030959Y023871D01*
X030701Y023871D01*
X030657Y023889D01*
X030503Y023889D01*
X030360Y023830D01*
X030251Y023721D01*
X030192Y023578D01*
X030192Y023570D01*
X030120Y023498D01*
X030120Y023281D01*
X030064Y023281D01*
X029943Y023231D01*
X029858Y023145D01*
X029686Y023145D01*
X029563Y023022D01*
X029563Y022218D01*
X029686Y022095D01*
X030174Y022095D01*
X030297Y022218D01*
X030297Y022381D01*
X031917Y022381D01*
X032040Y022504D01*
X032040Y023498D01*
X031968Y023570D01*
X031968Y023578D01*
X031909Y023721D01*
X031800Y023830D01*
X031657Y023889D01*
X031503Y023889D01*
X031459Y023871D01*
X031830Y023800D02*
X033680Y023800D01*
X033680Y023898D02*
X008473Y023898D01*
X008472Y023901D02*
X008293Y024211D01*
X008040Y024464D01*
X007976Y024501D01*
X040802Y024501D01*
X040786Y024492D01*
X040680Y024421D01*
X040581Y024340D01*
X040491Y024250D01*
X040410Y024151D01*
X040339Y024045D01*
X040278Y023932D01*
X040230Y023814D01*
X040192Y023692D01*
X040168Y023567D01*
X040155Y023440D01*
X040155Y023426D01*
X041405Y023426D01*
X041405Y023326D01*
X040155Y023326D01*
X040155Y023312D01*
X040168Y023185D01*
X040192Y023060D01*
X040230Y022937D01*
X040278Y022819D01*
X040339Y022707D01*
X040410Y022601D01*
X040491Y022502D01*
X040581Y022411D01*
X040680Y022330D01*
X040786Y022259D01*
X040899Y022199D01*
X041017Y022150D01*
X041139Y022113D01*
X041264Y022088D01*
X041391Y022076D01*
X041405Y022076D01*
X041405Y023326D01*
X041505Y023326D01*
X041505Y022076D01*
X041519Y022076D01*
X041646Y022088D01*
X041771Y022113D01*
X041893Y022150D01*
X042011Y022199D01*
X042124Y022259D01*
X042230Y022330D01*
X042329Y022411D01*
X042419Y022502D01*
X042500Y022601D01*
X042571Y022707D01*
X042620Y022798D01*
X042620Y002704D01*
X042571Y002795D01*
X042500Y002901D01*
X042419Y003000D01*
X042329Y003090D01*
X042230Y003171D01*
X042124Y003242D01*
X042011Y003302D01*
X041893Y003351D01*
X041771Y003388D01*
X041646Y003413D01*
X041519Y003426D01*
X041505Y003426D01*
X041505Y002176D01*
X041405Y002176D01*
X041405Y003426D01*
X041391Y003426D01*
X041264Y003413D01*
X041139Y003388D01*
X041017Y003351D01*
X040899Y003302D01*
X040786Y003242D01*
X040680Y003171D01*
X040581Y003090D01*
X040491Y003000D01*
X040410Y002901D01*
X040339Y002795D01*
X040278Y002682D01*
X040230Y002564D01*
X040192Y002442D01*
X040168Y002317D01*
X040155Y002190D01*
X040155Y002176D01*
X041405Y002176D01*
X041405Y002076D01*
X040155Y002076D01*
X040155Y002062D01*
X040168Y001935D01*
X040192Y001810D01*
X040230Y001687D01*
X040278Y001569D01*
X040339Y001457D01*
X040410Y001351D01*
X040491Y001252D01*
X040581Y001161D01*
X040680Y001080D01*
X040786Y001009D01*
X040877Y000961D01*
X007907Y000961D01*
X008040Y001038D01*
X008293Y001291D01*
X008472Y001601D01*
X008565Y001947D01*
X008565Y002305D01*
X008472Y002651D01*
X008293Y002961D01*
X008040Y003214D01*
X007730Y003393D01*
X007384Y003486D01*
X007026Y003486D01*
X006680Y003393D01*
X006370Y003214D01*
X006117Y002961D01*
X006040Y002828D01*
X006040Y010869D01*
X006048Y010861D01*
X006241Y010781D01*
X006450Y010781D01*
X006643Y010861D01*
X006791Y011009D01*
X006871Y011202D01*
X006871Y011410D01*
X006791Y011603D01*
X006643Y011751D01*
X006450Y011831D01*
X006241Y011831D01*
X006048Y011751D01*
X006040Y011743D01*
X006040Y012838D01*
X006048Y012829D01*
X006241Y012750D01*
X006450Y012750D01*
X006643Y012829D01*
X006791Y012977D01*
X006871Y013170D01*
X006871Y013379D01*
X006791Y013572D01*
X006643Y013720D01*
X006450Y013799D01*
X006241Y013799D01*
X006048Y013720D01*
X006040Y013711D01*
X006040Y022674D01*
X006117Y022541D01*
X006370Y022288D01*
X006680Y022109D01*
X007026Y022016D01*
X007384Y022016D01*
X007730Y022109D01*
X008040Y022288D01*
X008293Y022541D01*
X008472Y022851D01*
X008565Y023197D01*
X008565Y023555D01*
X008472Y023901D01*
X008499Y023800D02*
X010968Y023800D01*
X010979Y023805D02*
X010793Y023727D01*
X010650Y023585D01*
X010573Y023399D01*
X010573Y022603D01*
X010650Y022417D01*
X010793Y022274D01*
X010979Y022197D01*
X011181Y022197D01*
X011367Y022274D01*
X011510Y022417D01*
X011587Y022603D01*
X011587Y023399D01*
X011510Y023585D01*
X011367Y023727D01*
X011181Y023805D01*
X010979Y023805D01*
X011192Y023800D02*
X012968Y023800D01*
X012979Y023805D02*
X012793Y023727D01*
X012650Y023585D01*
X012573Y023399D01*
X012573Y022603D01*
X012650Y022417D01*
X012793Y022274D01*
X012979Y022197D01*
X013181Y022197D01*
X013367Y022274D01*
X013510Y022417D01*
X013587Y022603D01*
X013587Y023399D01*
X013510Y023585D01*
X013367Y023727D01*
X013181Y023805D01*
X012979Y023805D01*
X013192Y023800D02*
X014968Y023800D01*
X014979Y023805D02*
X014793Y023727D01*
X014650Y023585D01*
X014573Y023399D01*
X014573Y022603D01*
X014650Y022417D01*
X014793Y022274D01*
X014979Y022197D01*
X015181Y022197D01*
X015367Y022274D01*
X015510Y022417D01*
X015587Y022603D01*
X015587Y023399D01*
X015510Y023585D01*
X015367Y023727D01*
X015181Y023805D01*
X014979Y023805D01*
X015192Y023800D02*
X019562Y023800D01*
X019568Y023805D02*
X019445Y023682D01*
X019445Y023115D01*
X019568Y022992D01*
X020372Y022992D01*
X020449Y023068D01*
X021546Y023068D01*
X022863Y021751D01*
X022393Y021281D01*
X022300Y021188D01*
X022250Y021066D01*
X022250Y020442D01*
X022150Y020342D01*
X022150Y020450D01*
X021755Y020450D01*
X021755Y020550D01*
X021655Y020550D01*
X021655Y020906D01*
X021390Y020906D01*
X021352Y020896D01*
X021318Y020876D01*
X021290Y020848D01*
X021270Y020814D01*
X021260Y020776D01*
X021260Y020550D01*
X021655Y020550D01*
X021655Y020450D01*
X021260Y020450D01*
X021260Y020224D01*
X021270Y020186D01*
X021278Y020173D01*
X021200Y020095D01*
X021200Y019409D01*
X021323Y019286D01*
X022087Y019286D01*
X022094Y019292D01*
X022148Y019162D01*
X022250Y019060D01*
X022250Y017968D01*
X022192Y017828D01*
X022192Y017674D01*
X022251Y017531D01*
X022360Y017422D01*
X022503Y017363D01*
X022582Y017363D01*
X022647Y017336D01*
X022806Y017336D01*
X022884Y017258D01*
X023688Y017258D01*
X023811Y017381D01*
X023811Y017870D01*
X023688Y017993D01*
X022910Y017993D01*
X022910Y019060D01*
X023012Y019162D01*
X023090Y019349D01*
X023090Y020152D01*
X023012Y020340D01*
X022910Y020442D01*
X022910Y020864D01*
X023467Y021421D01*
X023668Y021421D01*
X023783Y021306D01*
X023976Y021226D01*
X024184Y021226D01*
X024377Y021306D01*
X024492Y021421D01*
X025793Y021421D01*
X026463Y020751D01*
X026452Y020746D01*
X026315Y020608D01*
X026240Y020428D01*
X026240Y019673D01*
X026315Y019493D01*
X026452Y019355D01*
X026633Y019281D01*
X026827Y019281D01*
X027008Y019355D01*
X027145Y019493D01*
X027220Y019673D01*
X027220Y020428D01*
X027182Y020521D01*
X027278Y020521D01*
X027240Y020428D01*
X027240Y019673D01*
X027315Y019493D01*
X027452Y019355D01*
X027633Y019281D01*
X027827Y019281D01*
X028008Y019355D01*
X028145Y019493D01*
X028220Y019673D01*
X028220Y020394D01*
X028500Y020114D01*
X028500Y019185D01*
X028550Y019064D01*
X030193Y017421D01*
X030250Y017283D01*
X030250Y017218D01*
X030192Y017078D01*
X030192Y016924D01*
X030251Y016781D01*
X030360Y016672D01*
X030503Y016613D01*
X030657Y016613D01*
X030800Y016672D01*
X030909Y016781D01*
X030968Y016924D01*
X030968Y017078D01*
X030910Y017218D01*
X030910Y017283D01*
X030968Y017424D01*
X030968Y017578D01*
X030909Y017721D01*
X030800Y017830D01*
X030660Y017888D01*
X029160Y019388D01*
X029160Y020316D01*
X029110Y020438D01*
X029017Y020531D01*
X028417Y021131D01*
X028296Y021181D01*
X026967Y021181D01*
X026117Y022031D01*
X025996Y022081D01*
X024492Y022081D01*
X024377Y022196D01*
X024184Y022276D01*
X023976Y022276D01*
X023783Y022196D01*
X023668Y022081D01*
X023467Y022081D01*
X021869Y023678D01*
X021748Y023728D01*
X020449Y023728D01*
X020372Y023805D01*
X019568Y023805D01*
X019464Y023701D02*
X018378Y023701D01*
X018374Y023704D02*
X018336Y023714D01*
X017146Y023714D01*
X017146Y022551D01*
X018466Y022551D01*
X018466Y023584D01*
X018456Y023622D01*
X018436Y023656D01*
X018408Y023684D01*
X018374Y023704D01*
X018461Y023603D02*
X019445Y023603D01*
X019445Y023504D02*
X018466Y023504D01*
X018466Y023406D02*
X019445Y023406D01*
X019445Y023307D02*
X018466Y023307D01*
X018466Y023209D02*
X019445Y023209D01*
X019449Y023110D02*
X018466Y023110D01*
X018466Y023012D02*
X019548Y023012D01*
X019585Y022913D02*
X018466Y022913D01*
X018466Y022815D02*
X019427Y022815D01*
X019483Y022871D02*
X019335Y022723D01*
X019255Y022530D01*
X019255Y022321D01*
X019335Y022128D01*
X019483Y021981D01*
X019522Y021964D01*
X019445Y021887D01*
X019445Y021319D01*
X019568Y021196D01*
X020372Y021196D01*
X020495Y021319D01*
X020495Y021887D01*
X020372Y022010D01*
X020340Y022010D01*
X020340Y022310D01*
X020305Y022394D01*
X020305Y022530D01*
X020225Y022723D01*
X020077Y022871D01*
X019884Y022951D01*
X019676Y022951D01*
X019483Y022871D01*
X019332Y022716D02*
X018466Y022716D01*
X018466Y022618D02*
X019291Y022618D01*
X019255Y022519D02*
X017146Y022519D01*
X017146Y022551D02*
X017146Y022451D01*
X018466Y022451D01*
X018466Y021418D01*
X018456Y021380D01*
X018436Y021346D01*
X018408Y021318D01*
X018374Y021298D01*
X018336Y021288D01*
X017146Y021288D01*
X017146Y022451D01*
X017046Y022451D01*
X017046Y021288D01*
X015856Y021288D01*
X015817Y021298D01*
X015783Y021318D01*
X015755Y021346D01*
X015735Y021380D01*
X015725Y021418D01*
X015725Y022451D01*
X017046Y022451D01*
X017046Y022551D01*
X017046Y023714D01*
X015856Y023714D01*
X015817Y023704D01*
X015783Y023684D01*
X015755Y023656D01*
X015735Y023622D01*
X015725Y023584D01*
X015725Y022551D01*
X017046Y022551D01*
X017146Y022551D01*
X017146Y022618D02*
X017046Y022618D01*
X017046Y022716D02*
X017146Y022716D01*
X017146Y022815D02*
X017046Y022815D01*
X017046Y022913D02*
X017146Y022913D01*
X017146Y023012D02*
X017046Y023012D01*
X017046Y023110D02*
X017146Y023110D01*
X017146Y023209D02*
X017046Y023209D01*
X017046Y023307D02*
X017146Y023307D01*
X017146Y023406D02*
X017046Y023406D01*
X017046Y023504D02*
X017146Y023504D01*
X017146Y023603D02*
X017046Y023603D01*
X017046Y023701D02*
X017146Y023701D01*
X015814Y023701D02*
X015393Y023701D01*
X015492Y023603D02*
X015730Y023603D01*
X015725Y023504D02*
X015543Y023504D01*
X015584Y023406D02*
X015725Y023406D01*
X015725Y023307D02*
X015587Y023307D01*
X015587Y023209D02*
X015725Y023209D01*
X015725Y023110D02*
X015587Y023110D01*
X015587Y023012D02*
X015725Y023012D01*
X015725Y022913D02*
X015587Y022913D01*
X015587Y022815D02*
X015725Y022815D01*
X015725Y022716D02*
X015587Y022716D01*
X015587Y022618D02*
X015725Y022618D01*
X015725Y022421D02*
X015511Y022421D01*
X015552Y022519D02*
X017046Y022519D01*
X017046Y022421D02*
X017146Y022421D01*
X017146Y022322D02*
X017046Y022322D01*
X017046Y022224D02*
X017146Y022224D01*
X017146Y022125D02*
X017046Y022125D01*
X017046Y022027D02*
X017146Y022027D01*
X017146Y021928D02*
X017046Y021928D01*
X017046Y021830D02*
X017146Y021830D01*
X017146Y021731D02*
X017046Y021731D01*
X017046Y021633D02*
X017146Y021633D01*
X017146Y021534D02*
X017046Y021534D01*
X017046Y021436D02*
X017146Y021436D01*
X017146Y021337D02*
X017046Y021337D01*
X015764Y021337D02*
X006040Y021337D01*
X006040Y021239D02*
X019525Y021239D01*
X019445Y021337D02*
X018428Y021337D01*
X018466Y021436D02*
X019445Y021436D01*
X019445Y021534D02*
X018466Y021534D01*
X018466Y021633D02*
X019445Y021633D01*
X019445Y021731D02*
X018466Y021731D01*
X018466Y021830D02*
X019445Y021830D01*
X019486Y021928D02*
X018466Y021928D01*
X018466Y022027D02*
X019436Y022027D01*
X019338Y022125D02*
X018466Y022125D01*
X018466Y022224D02*
X019295Y022224D01*
X019255Y022322D02*
X018466Y022322D01*
X018466Y022421D02*
X019255Y022421D01*
X019975Y022913D02*
X021701Y022913D01*
X021799Y022815D02*
X021449Y022815D01*
X021373Y022891D02*
X021210Y022891D01*
X021210Y022456D01*
X021150Y022456D01*
X021150Y022891D01*
X020987Y022891D01*
X020715Y022618D01*
X020269Y022618D01*
X020305Y022519D02*
X020715Y022519D01*
X020715Y022456D02*
X021150Y022456D01*
X021150Y022396D01*
X020715Y022396D01*
X020715Y022233D01*
X020987Y021961D01*
X021150Y021961D01*
X021150Y022396D01*
X021210Y022396D01*
X021210Y022456D01*
X021645Y022456D01*
X021645Y022618D01*
X021996Y022618D01*
X021898Y022716D02*
X021547Y022716D01*
X021645Y022618D02*
X021373Y022891D01*
X021210Y022815D02*
X021150Y022815D01*
X021150Y022716D02*
X021210Y022716D01*
X021210Y022618D02*
X021150Y022618D01*
X021150Y022519D02*
X021210Y022519D01*
X021210Y022421D02*
X022193Y022421D01*
X022095Y022519D02*
X021645Y022519D01*
X021645Y022396D02*
X021210Y022396D01*
X021210Y021961D01*
X021373Y021961D01*
X021645Y022233D01*
X021645Y022396D01*
X021645Y022322D02*
X022292Y022322D01*
X022390Y022224D02*
X021636Y022224D01*
X021537Y022125D02*
X022489Y022125D01*
X022587Y022027D02*
X021439Y022027D01*
X021210Y022027D02*
X021150Y022027D01*
X021150Y022125D02*
X021210Y022125D01*
X021210Y022224D02*
X021150Y022224D01*
X021150Y022322D02*
X021210Y022322D01*
X021150Y022421D02*
X020305Y022421D01*
X020334Y022322D02*
X020715Y022322D01*
X020724Y022224D02*
X020340Y022224D01*
X020340Y022125D02*
X020823Y022125D01*
X020921Y022027D02*
X020340Y022027D01*
X020453Y021928D02*
X022686Y021928D01*
X022784Y021830D02*
X020495Y021830D01*
X020495Y021731D02*
X022844Y021731D01*
X022745Y021633D02*
X020495Y021633D01*
X020495Y021534D02*
X022647Y021534D01*
X022548Y021436D02*
X020495Y021436D01*
X020495Y021337D02*
X022450Y021337D01*
X022351Y021239D02*
X020414Y021239D01*
X021288Y020845D02*
X013220Y020845D01*
X013269Y020796D02*
X013160Y020905D01*
X013017Y020964D01*
X012863Y020964D01*
X012720Y020905D01*
X012611Y020796D01*
X012552Y020653D01*
X012552Y020598D01*
X012166Y020212D01*
X012084Y020130D01*
X012040Y020024D01*
X012040Y019760D01*
X012001Y019721D01*
X011942Y019578D01*
X011942Y019424D01*
X012001Y019281D01*
X012110Y019172D01*
X012253Y019113D01*
X012407Y019113D01*
X012550Y019172D01*
X012659Y019281D01*
X012718Y019424D01*
X012718Y019578D01*
X012659Y019721D01*
X012620Y019760D01*
X012620Y019846D01*
X012962Y020188D01*
X013017Y020188D01*
X013160Y020247D01*
X013269Y020356D01*
X013328Y020499D01*
X013328Y020653D01*
X013269Y020796D01*
X013289Y020746D02*
X021260Y020746D01*
X021260Y020648D02*
X013328Y020648D01*
X013328Y020549D02*
X021655Y020549D01*
X021655Y020451D02*
X013308Y020451D01*
X013265Y020352D02*
X021260Y020352D01*
X021260Y020254D02*
X013167Y020254D01*
X012930Y020155D02*
X021260Y020155D01*
X021200Y020057D02*
X012831Y020057D01*
X012733Y019958D02*
X021200Y019958D01*
X021200Y019860D02*
X012634Y019860D01*
X012620Y019761D02*
X021200Y019761D01*
X021200Y019663D02*
X012683Y019663D01*
X012718Y019564D02*
X021200Y019564D01*
X021200Y019466D02*
X012718Y019466D01*
X012695Y019367D02*
X021241Y019367D01*
X022103Y019269D02*
X012647Y019269D01*
X012546Y019170D02*
X022144Y019170D01*
X022238Y019072D02*
X018808Y019072D01*
X018800Y019080D02*
X018657Y019139D01*
X018503Y019139D01*
X018360Y019080D01*
X018251Y018971D01*
X018192Y018828D01*
X018192Y018674D01*
X018251Y018531D01*
X018290Y018492D01*
X018290Y017510D01*
X018251Y017471D01*
X018192Y017328D01*
X018192Y017174D01*
X018251Y017031D01*
X018360Y016922D01*
X018503Y016863D01*
X018657Y016863D01*
X018800Y016922D01*
X018909Y017031D01*
X018968Y017174D01*
X018968Y017328D01*
X018909Y017471D01*
X018870Y017510D01*
X018870Y018492D01*
X018909Y018531D01*
X018968Y018674D01*
X018968Y018828D01*
X018909Y018971D01*
X018800Y019080D01*
X018906Y018973D02*
X022250Y018973D01*
X022250Y018875D02*
X018949Y018875D01*
X018968Y018776D02*
X022250Y018776D01*
X022250Y018678D02*
X018968Y018678D01*
X018929Y018579D02*
X022250Y018579D01*
X022250Y018481D02*
X018870Y018481D01*
X018870Y018382D02*
X022250Y018382D01*
X022250Y018284D02*
X018870Y018284D01*
X018870Y018185D02*
X022250Y018185D01*
X022250Y018087D02*
X018870Y018087D01*
X018870Y017988D02*
X022250Y017988D01*
X022218Y017890D02*
X018870Y017890D01*
X018870Y017791D02*
X022192Y017791D01*
X022192Y017693D02*
X018870Y017693D01*
X018870Y017594D02*
X022225Y017594D01*
X022286Y017496D02*
X018884Y017496D01*
X018939Y017397D02*
X022419Y017397D01*
X022843Y017299D02*
X018968Y017299D01*
X018968Y017200D02*
X024744Y017200D01*
X024802Y017258D02*
X024259Y016715D01*
X024235Y016705D01*
X024126Y016596D01*
X024067Y016453D01*
X024067Y016299D01*
X024126Y016156D01*
X024235Y016047D01*
X024378Y015988D01*
X024532Y015988D01*
X024675Y016047D01*
X024784Y016156D01*
X024843Y016299D01*
X024843Y016453D01*
X024836Y016471D01*
X025451Y017087D01*
X025495Y017193D01*
X025495Y017772D01*
X026178Y017772D01*
X026257Y017851D01*
X026924Y017851D01*
X027002Y017929D01*
X027015Y017921D01*
X027053Y017911D01*
X027279Y017911D01*
X027279Y018326D01*
X027379Y018326D01*
X027379Y018426D01*
X027279Y018426D01*
X027279Y018841D01*
X027053Y018841D01*
X027015Y018831D01*
X027002Y018823D01*
X026924Y018901D01*
X026257Y018901D01*
X026178Y018980D01*
X025495Y018980D01*
X025495Y019129D01*
X025603Y019237D01*
X025846Y019237D01*
X025969Y019360D01*
X025969Y019890D01*
X025846Y020013D01*
X025316Y020013D01*
X025193Y019890D01*
X025193Y019647D01*
X025090Y019544D01*
X025090Y020152D01*
X025012Y020340D01*
X024869Y020483D01*
X024681Y020561D01*
X024479Y020561D01*
X024291Y020483D01*
X024148Y020340D01*
X024070Y020152D01*
X024070Y019349D01*
X024148Y019162D01*
X024290Y019020D01*
X024290Y018980D01*
X024232Y018980D01*
X024109Y018857D01*
X024109Y017895D01*
X024117Y017888D01*
X024099Y017870D01*
X024099Y017381D01*
X024222Y017258D01*
X024802Y017258D01*
X024646Y017102D02*
X018938Y017102D01*
X018881Y017003D02*
X024547Y017003D01*
X024449Y016905D02*
X018759Y016905D01*
X018401Y016905D02*
X014144Y016905D01*
X014046Y016806D02*
X024350Y016806D01*
X024242Y016708D02*
X013947Y016708D01*
X013849Y016609D02*
X024140Y016609D01*
X024091Y016511D02*
X013750Y016511D01*
X013718Y016479D02*
X014352Y017113D01*
X014407Y017113D01*
X014550Y017172D01*
X014659Y017281D01*
X014718Y017424D01*
X014718Y017578D01*
X014659Y017721D01*
X014550Y017830D01*
X014407Y017889D01*
X014253Y017889D01*
X014110Y017830D01*
X014001Y017721D01*
X013942Y017578D01*
X013942Y017523D01*
X013308Y016889D01*
X013253Y016889D01*
X013110Y016830D01*
X013001Y016721D01*
X012942Y016578D01*
X012942Y016424D01*
X013001Y016281D01*
X013110Y016172D01*
X013253Y016113D01*
X013407Y016113D01*
X013550Y016172D01*
X013659Y016281D01*
X013718Y016424D01*
X013718Y016479D01*
X013713Y016412D02*
X024067Y016412D01*
X024067Y016314D02*
X013673Y016314D01*
X013593Y016215D02*
X024101Y016215D01*
X024165Y016117D02*
X013417Y016117D01*
X013243Y016117D02*
X006040Y016117D01*
X006040Y016215D02*
X013067Y016215D01*
X012987Y016314D02*
X006040Y016314D01*
X006040Y016412D02*
X012947Y016412D01*
X012942Y016511D02*
X006040Y016511D01*
X006040Y016609D02*
X012955Y016609D01*
X012996Y016708D02*
X006040Y016708D01*
X006040Y016806D02*
X008110Y016806D01*
X008135Y016781D02*
X008525Y016781D01*
X008800Y017056D01*
X008800Y017446D01*
X008525Y017721D01*
X008135Y017721D01*
X007860Y017446D01*
X007860Y017056D01*
X008135Y016781D01*
X008011Y016905D02*
X006040Y016905D01*
X006040Y017003D02*
X007913Y017003D01*
X007860Y017102D02*
X006040Y017102D01*
X006040Y017200D02*
X007860Y017200D01*
X007860Y017299D02*
X006040Y017299D01*
X006040Y017397D02*
X007860Y017397D01*
X007910Y017496D02*
X006040Y017496D01*
X006040Y017594D02*
X008009Y017594D01*
X008107Y017693D02*
X006040Y017693D01*
X006040Y017791D02*
X009125Y017791D01*
X009135Y017781D02*
X009525Y017781D01*
X009800Y018056D01*
X009800Y018446D01*
X009525Y018721D01*
X009135Y018721D01*
X008860Y018446D01*
X008860Y018056D01*
X009135Y017781D01*
X009169Y017693D02*
X008553Y017693D01*
X008651Y017594D02*
X009009Y017594D01*
X009064Y017649D02*
X008932Y017517D01*
X008860Y017344D01*
X008860Y017157D01*
X008932Y016985D01*
X009064Y016852D01*
X009237Y016781D01*
X009423Y016781D01*
X009596Y016852D01*
X009728Y016985D01*
X009800Y017157D01*
X009800Y017344D01*
X009728Y017517D01*
X009596Y017649D01*
X009423Y017721D01*
X009237Y017721D01*
X009064Y017649D01*
X008923Y017496D02*
X008750Y017496D01*
X008800Y017397D02*
X008882Y017397D01*
X008860Y017299D02*
X008800Y017299D01*
X008800Y017200D02*
X008860Y017200D01*
X008883Y017102D02*
X008800Y017102D01*
X008747Y017003D02*
X008924Y017003D01*
X009011Y016905D02*
X008649Y016905D01*
X008550Y016806D02*
X009175Y016806D01*
X009485Y016806D02*
X013087Y016806D01*
X013324Y016905D02*
X009649Y016905D01*
X009736Y017003D02*
X013422Y017003D01*
X013521Y017102D02*
X009777Y017102D01*
X009800Y017200D02*
X013619Y017200D01*
X013718Y017299D02*
X009800Y017299D01*
X009778Y017397D02*
X013816Y017397D01*
X013915Y017496D02*
X009737Y017496D01*
X009651Y017594D02*
X013949Y017594D01*
X013989Y017693D02*
X009491Y017693D01*
X009535Y017791D02*
X014072Y017791D01*
X014588Y017791D02*
X018290Y017791D01*
X018290Y017693D02*
X014671Y017693D01*
X014711Y017594D02*
X018290Y017594D01*
X018276Y017496D02*
X014718Y017496D01*
X014707Y017397D02*
X018221Y017397D01*
X018192Y017299D02*
X014666Y017299D01*
X014578Y017200D02*
X018192Y017200D01*
X018222Y017102D02*
X014341Y017102D01*
X014243Y017003D02*
X018279Y017003D01*
X018290Y017890D02*
X009634Y017890D01*
X009732Y017988D02*
X018290Y017988D01*
X018290Y018087D02*
X009800Y018087D01*
X009800Y018185D02*
X018290Y018185D01*
X018290Y018284D02*
X009800Y018284D01*
X009800Y018382D02*
X018290Y018382D01*
X018290Y018481D02*
X009765Y018481D01*
X009666Y018579D02*
X018231Y018579D01*
X018192Y018678D02*
X009568Y018678D01*
X009500Y018841D02*
X009740Y019081D01*
X009740Y019221D01*
X009360Y019221D01*
X009360Y019281D01*
X009300Y019281D01*
X009300Y019661D01*
X009160Y019661D01*
X008920Y019421D01*
X008920Y019281D01*
X009300Y019281D01*
X009300Y019221D01*
X008920Y019221D01*
X008920Y019081D01*
X009160Y018841D01*
X009300Y018841D01*
X009300Y019221D01*
X009360Y019221D01*
X009360Y018841D01*
X009500Y018841D01*
X009534Y018875D02*
X018211Y018875D01*
X018192Y018776D02*
X006040Y018776D01*
X006040Y018678D02*
X009092Y018678D01*
X008994Y018579D02*
X008581Y018579D01*
X008500Y018661D02*
X008360Y018661D01*
X008360Y018281D01*
X008300Y018281D01*
X008300Y018661D01*
X008160Y018661D01*
X007920Y018421D01*
X007920Y018281D01*
X008300Y018281D01*
X008300Y018221D01*
X007920Y018221D01*
X007920Y018081D01*
X008160Y017841D01*
X008300Y017841D01*
X008300Y018221D01*
X008360Y018221D01*
X008360Y018281D01*
X008740Y018281D01*
X008740Y018421D01*
X008500Y018661D01*
X008525Y018781D02*
X008800Y019056D01*
X008800Y019446D01*
X008525Y019721D01*
X008135Y019721D01*
X007860Y019446D01*
X007860Y019056D01*
X008135Y018781D01*
X008525Y018781D01*
X008619Y018875D02*
X009126Y018875D01*
X009028Y018973D02*
X008717Y018973D01*
X008800Y019072D02*
X008929Y019072D01*
X008920Y019170D02*
X008800Y019170D01*
X008800Y019269D02*
X009300Y019269D01*
X009360Y019269D02*
X012013Y019269D01*
X011965Y019367D02*
X009740Y019367D01*
X009740Y019421D02*
X009740Y019281D01*
X009360Y019281D01*
X009360Y019661D01*
X009500Y019661D01*
X009740Y019421D01*
X009695Y019466D02*
X011942Y019466D01*
X011942Y019564D02*
X009596Y019564D01*
X009525Y019781D02*
X009135Y019781D01*
X008860Y020056D01*
X008860Y020446D01*
X009135Y020721D01*
X009525Y020721D01*
X009800Y020446D01*
X009800Y020056D01*
X009525Y019781D01*
X009604Y019860D02*
X012040Y019860D01*
X012040Y019958D02*
X009702Y019958D01*
X009800Y020057D02*
X012054Y020057D01*
X012109Y020155D02*
X009800Y020155D01*
X009800Y020254D02*
X012208Y020254D01*
X012306Y020352D02*
X009800Y020352D01*
X009795Y020451D02*
X012405Y020451D01*
X012503Y020549D02*
X009696Y020549D01*
X009598Y020648D02*
X012552Y020648D01*
X012591Y020746D02*
X006040Y020746D01*
X006040Y020648D02*
X008062Y020648D01*
X008135Y020721D02*
X007860Y020446D01*
X007860Y020056D01*
X008135Y019781D01*
X008525Y019781D01*
X008800Y020056D01*
X008800Y020446D01*
X008525Y020721D01*
X008135Y020721D01*
X007964Y020549D02*
X006040Y020549D01*
X006040Y020451D02*
X007865Y020451D01*
X007860Y020352D02*
X006040Y020352D01*
X006040Y020254D02*
X007860Y020254D01*
X007860Y020155D02*
X006040Y020155D01*
X006040Y020057D02*
X007860Y020057D01*
X007958Y019958D02*
X006040Y019958D01*
X006040Y019860D02*
X008056Y019860D01*
X008077Y019663D02*
X006040Y019663D01*
X006040Y019761D02*
X012040Y019761D01*
X011977Y019663D02*
X008583Y019663D01*
X008681Y019564D02*
X009064Y019564D01*
X008965Y019466D02*
X008780Y019466D01*
X008800Y019367D02*
X008920Y019367D01*
X009300Y019367D02*
X009360Y019367D01*
X009360Y019466D02*
X009300Y019466D01*
X009300Y019564D02*
X009360Y019564D01*
X009360Y019170D02*
X009300Y019170D01*
X009300Y019072D02*
X009360Y019072D01*
X009360Y018973D02*
X009300Y018973D01*
X009300Y018875D02*
X009360Y018875D01*
X009632Y018973D02*
X018254Y018973D01*
X018352Y019072D02*
X009731Y019072D01*
X009740Y019170D02*
X012114Y019170D01*
X012660Y020845D02*
X006040Y020845D01*
X006040Y020943D02*
X012813Y020943D01*
X013067Y020943D02*
X022250Y020943D01*
X022250Y020845D02*
X022122Y020845D01*
X022120Y020848D02*
X022092Y020876D01*
X022058Y020896D01*
X022020Y020906D01*
X021755Y020906D01*
X021755Y020550D01*
X022150Y020550D01*
X022150Y020776D01*
X022140Y020814D01*
X022120Y020848D01*
X022150Y020746D02*
X022250Y020746D01*
X022250Y020648D02*
X022150Y020648D01*
X022250Y020549D02*
X021755Y020549D01*
X021755Y020451D02*
X022250Y020451D01*
X022160Y020352D02*
X022150Y020352D01*
X022910Y020451D02*
X023374Y020451D01*
X023344Y020436D02*
X023407Y020468D01*
X023475Y020490D01*
X023530Y020499D01*
X023530Y019801D01*
X023630Y019801D01*
X023630Y020499D01*
X023685Y020490D01*
X023753Y020468D01*
X023816Y020436D01*
X023873Y020394D01*
X023923Y020344D01*
X023965Y020287D01*
X023997Y020224D01*
X024019Y020156D01*
X024030Y020086D01*
X024030Y019801D01*
X023630Y019801D01*
X023630Y019701D01*
X024030Y019701D01*
X024030Y019415D01*
X024019Y019345D01*
X023997Y019278D01*
X023965Y019215D01*
X023923Y019158D01*
X023873Y019108D01*
X023816Y019066D01*
X023753Y019034D01*
X023685Y019012D01*
X023630Y019003D01*
X023630Y019701D01*
X023530Y019701D01*
X023130Y019701D01*
X023130Y019415D01*
X023141Y019345D01*
X023163Y019278D01*
X023195Y019215D01*
X023237Y019158D01*
X023287Y019108D01*
X023344Y019066D01*
X023407Y019034D01*
X023475Y019012D01*
X023530Y019003D01*
X023530Y019701D01*
X023530Y019801D01*
X023130Y019801D01*
X023130Y020086D01*
X023141Y020156D01*
X023163Y020224D01*
X023195Y020287D01*
X023237Y020344D01*
X023287Y020394D01*
X023344Y020436D01*
X023245Y020352D02*
X023000Y020352D01*
X023048Y020254D02*
X023178Y020254D01*
X023141Y020155D02*
X023089Y020155D01*
X023090Y020057D02*
X023130Y020057D01*
X023130Y019958D02*
X023090Y019958D01*
X023090Y019860D02*
X023130Y019860D01*
X023090Y019761D02*
X023530Y019761D01*
X023530Y019663D02*
X023630Y019663D01*
X023630Y019761D02*
X024070Y019761D01*
X024070Y019663D02*
X024030Y019663D01*
X024030Y019564D02*
X024070Y019564D01*
X024070Y019466D02*
X024030Y019466D01*
X024022Y019367D02*
X024070Y019367D01*
X024103Y019269D02*
X023992Y019269D01*
X023932Y019170D02*
X024144Y019170D01*
X024238Y019072D02*
X023824Y019072D01*
X023630Y019072D02*
X023530Y019072D01*
X023530Y019170D02*
X023630Y019170D01*
X023630Y019269D02*
X023530Y019269D01*
X023530Y019367D02*
X023630Y019367D01*
X023630Y019466D02*
X023530Y019466D01*
X023530Y019564D02*
X023630Y019564D01*
X023630Y019860D02*
X023530Y019860D01*
X023530Y019958D02*
X023630Y019958D01*
X023630Y020057D02*
X023530Y020057D01*
X023530Y020155D02*
X023630Y020155D01*
X023630Y020254D02*
X023530Y020254D01*
X023530Y020352D02*
X023630Y020352D01*
X023630Y020451D02*
X023530Y020451D01*
X023786Y020451D02*
X024259Y020451D01*
X024160Y020352D02*
X023915Y020352D01*
X023982Y020254D02*
X024112Y020254D01*
X024071Y020155D02*
X024019Y020155D01*
X024030Y020057D02*
X024070Y020057D01*
X024070Y019958D02*
X024030Y019958D01*
X024030Y019860D02*
X024070Y019860D01*
X023130Y019663D02*
X023090Y019663D01*
X023090Y019564D02*
X023130Y019564D01*
X023130Y019466D02*
X023090Y019466D01*
X023090Y019367D02*
X023138Y019367D01*
X023168Y019269D02*
X023057Y019269D01*
X023016Y019170D02*
X023228Y019170D01*
X023336Y019072D02*
X022922Y019072D01*
X022910Y018973D02*
X024226Y018973D01*
X024128Y018875D02*
X022910Y018875D01*
X022910Y018776D02*
X024109Y018776D01*
X024109Y018678D02*
X022910Y018678D01*
X022910Y018579D02*
X024109Y018579D01*
X024109Y018481D02*
X022910Y018481D01*
X022910Y018382D02*
X024109Y018382D01*
X024109Y018284D02*
X022910Y018284D01*
X022910Y018185D02*
X024109Y018185D01*
X024109Y018087D02*
X022910Y018087D01*
X023693Y017988D02*
X024109Y017988D01*
X024114Y017890D02*
X023791Y017890D01*
X023811Y017791D02*
X024099Y017791D01*
X024099Y017693D02*
X023811Y017693D01*
X023811Y017594D02*
X024099Y017594D01*
X024099Y017496D02*
X023811Y017496D01*
X023811Y017397D02*
X024099Y017397D01*
X024182Y017299D02*
X023728Y017299D01*
X024875Y016511D02*
X042620Y016511D01*
X042620Y016609D02*
X024974Y016609D01*
X025072Y016708D02*
X030324Y016708D01*
X030240Y016806D02*
X025171Y016806D01*
X025269Y016905D02*
X030200Y016905D01*
X030192Y017003D02*
X025368Y017003D01*
X025457Y017102D02*
X030202Y017102D01*
X030243Y017200D02*
X025495Y017200D01*
X025495Y017299D02*
X030244Y017299D01*
X030203Y017397D02*
X025495Y017397D01*
X025495Y017496D02*
X030118Y017496D01*
X030020Y017594D02*
X025495Y017594D01*
X025495Y017693D02*
X029921Y017693D01*
X029823Y017791D02*
X026197Y017791D01*
X026963Y017890D02*
X029724Y017890D01*
X029626Y017988D02*
X027716Y017988D01*
X027725Y018003D02*
X027735Y018041D01*
X027735Y018326D01*
X027379Y018326D01*
X027379Y017911D01*
X027605Y017911D01*
X027643Y017921D01*
X027677Y017941D01*
X027705Y017969D01*
X027725Y018003D01*
X027735Y018087D02*
X029527Y018087D01*
X029429Y018185D02*
X027735Y018185D01*
X027735Y018284D02*
X029330Y018284D01*
X029232Y018382D02*
X027379Y018382D01*
X027379Y018426D02*
X027735Y018426D01*
X027735Y018711D01*
X027725Y018749D01*
X027705Y018783D01*
X027677Y018811D01*
X027643Y018831D01*
X027605Y018841D01*
X027379Y018841D01*
X027379Y018426D01*
X027379Y018481D02*
X027279Y018481D01*
X027279Y018579D02*
X027379Y018579D01*
X027379Y018678D02*
X027279Y018678D01*
X027279Y018776D02*
X027379Y018776D01*
X027709Y018776D02*
X028838Y018776D01*
X028936Y018678D02*
X027735Y018678D01*
X027735Y018579D02*
X029035Y018579D01*
X029133Y018481D02*
X027735Y018481D01*
X027379Y018284D02*
X027279Y018284D01*
X027279Y018185D02*
X027379Y018185D01*
X027379Y018087D02*
X027279Y018087D01*
X027279Y017988D02*
X027379Y017988D01*
X026950Y018875D02*
X028739Y018875D01*
X028641Y018973D02*
X026184Y018973D01*
X025878Y019269D02*
X028500Y019269D01*
X028500Y019367D02*
X028020Y019367D01*
X028118Y019466D02*
X028500Y019466D01*
X028500Y019564D02*
X028175Y019564D01*
X028216Y019663D02*
X028500Y019663D01*
X028500Y019761D02*
X028220Y019761D01*
X028220Y019860D02*
X028500Y019860D01*
X028500Y019958D02*
X028220Y019958D01*
X028220Y020057D02*
X028500Y020057D01*
X028459Y020155D02*
X028220Y020155D01*
X028220Y020254D02*
X028360Y020254D01*
X028262Y020352D02*
X028220Y020352D01*
X028703Y020845D02*
X028913Y020845D01*
X029011Y020746D02*
X028801Y020746D01*
X028900Y020648D02*
X029110Y020648D01*
X029208Y020549D02*
X028998Y020549D01*
X029097Y020451D02*
X029307Y020451D01*
X029405Y020352D02*
X029145Y020352D01*
X029160Y020254D02*
X029504Y020254D01*
X029570Y020187D02*
X029706Y020131D01*
X030459Y020131D01*
X030503Y020113D01*
X030657Y020113D01*
X030701Y020131D01*
X030959Y020131D01*
X031003Y020113D01*
X031157Y020113D01*
X031201Y020131D01*
X031459Y020131D01*
X031503Y020113D01*
X031657Y020113D01*
X031800Y020172D01*
X031909Y020281D01*
X031968Y020424D01*
X031968Y020432D01*
X032040Y020504D01*
X032040Y021498D01*
X031917Y021621D01*
X030297Y021621D01*
X030297Y021684D01*
X030174Y021807D01*
X029686Y021807D01*
X029563Y021684D01*
X029563Y021242D01*
X028844Y021960D01*
X028740Y022065D01*
X028604Y022121D01*
X028002Y022121D01*
X027877Y022246D01*
X027684Y022326D01*
X027476Y022326D01*
X027283Y022246D01*
X027135Y022098D01*
X027055Y021905D01*
X027055Y021696D01*
X027135Y021503D01*
X027283Y021356D01*
X027476Y021276D01*
X027684Y021276D01*
X027877Y021356D01*
X027902Y021381D01*
X028377Y021381D01*
X029570Y020187D01*
X029647Y020155D02*
X029160Y020155D01*
X029160Y020057D02*
X033680Y020057D01*
X033680Y020155D02*
X031760Y020155D01*
X031882Y020254D02*
X033680Y020254D01*
X033680Y020352D02*
X031939Y020352D01*
X031987Y020451D02*
X033680Y020451D01*
X033680Y020549D02*
X032040Y020549D01*
X032040Y020648D02*
X033680Y020648D01*
X033680Y020746D02*
X032040Y020746D01*
X032040Y020845D02*
X033680Y020845D01*
X033680Y020943D02*
X032040Y020943D01*
X032040Y021042D02*
X033680Y021042D01*
X033680Y021140D02*
X032040Y021140D01*
X032040Y021239D02*
X033680Y021239D01*
X033680Y021337D02*
X032040Y021337D01*
X032040Y021436D02*
X033680Y021436D01*
X033680Y021534D02*
X032003Y021534D01*
X033680Y021633D02*
X030297Y021633D01*
X030250Y021731D02*
X033680Y021731D01*
X033680Y021830D02*
X028974Y021830D01*
X028876Y021928D02*
X033680Y021928D01*
X033680Y021951D02*
X033680Y019731D01*
X033690Y019693D01*
X033710Y019659D01*
X033738Y019631D01*
X033772Y019611D01*
X033810Y019601D01*
X035530Y019601D01*
X035530Y021951D01*
X033680Y021951D01*
X033680Y022051D02*
X033680Y024271D01*
X033690Y024309D01*
X033710Y024343D01*
X033738Y024371D01*
X033772Y024391D01*
X033810Y024401D01*
X035530Y024401D01*
X035530Y022051D01*
X035630Y022051D01*
X035630Y024401D01*
X037350Y024401D01*
X037388Y024391D01*
X037422Y024371D01*
X037450Y024343D01*
X037470Y024309D01*
X037480Y024271D01*
X037480Y022051D01*
X035630Y022051D01*
X035630Y021951D01*
X037480Y021951D01*
X037480Y019731D01*
X037470Y019693D01*
X037450Y019659D01*
X037422Y019631D01*
X037388Y019611D01*
X037350Y019601D01*
X035630Y019601D01*
X035630Y021951D01*
X035530Y021951D01*
X035530Y022051D01*
X033680Y022051D01*
X033680Y022125D02*
X030205Y022125D01*
X030297Y022224D02*
X033680Y022224D01*
X033680Y022322D02*
X030297Y022322D01*
X029655Y022125D02*
X027998Y022125D01*
X027899Y022224D02*
X029563Y022224D01*
X029563Y022322D02*
X027693Y022322D01*
X027467Y022322D02*
X023225Y022322D01*
X023324Y022224D02*
X023850Y022224D01*
X023712Y022125D02*
X023422Y022125D01*
X023127Y022421D02*
X029563Y022421D01*
X029563Y022519D02*
X023028Y022519D01*
X022930Y022618D02*
X029563Y022618D01*
X029563Y022716D02*
X024303Y022716D01*
X024273Y022686D02*
X024545Y022958D01*
X024545Y023121D01*
X024110Y023121D01*
X024110Y023181D01*
X024050Y023181D01*
X024050Y023616D01*
X023887Y023616D01*
X023615Y023343D01*
X023615Y023181D01*
X024050Y023181D01*
X024050Y023121D01*
X023615Y023121D01*
X023615Y022958D01*
X023887Y022686D01*
X024050Y022686D01*
X024050Y023121D01*
X024110Y023121D01*
X024110Y022686D01*
X024273Y022686D01*
X024110Y022716D02*
X024050Y022716D01*
X024050Y022815D02*
X024110Y022815D01*
X024110Y022913D02*
X024050Y022913D01*
X024050Y023012D02*
X024110Y023012D01*
X024110Y023110D02*
X024050Y023110D01*
X024110Y023181D02*
X024545Y023181D01*
X024545Y023343D01*
X024273Y023616D01*
X024110Y023616D01*
X024110Y023181D01*
X024110Y023209D02*
X024050Y023209D01*
X024050Y023307D02*
X024110Y023307D01*
X024110Y023406D02*
X024050Y023406D01*
X024050Y023504D02*
X024110Y023504D01*
X024110Y023603D02*
X024050Y023603D01*
X023874Y023603D02*
X021945Y023603D01*
X022043Y023504D02*
X023776Y023504D01*
X023677Y023406D02*
X022142Y023406D01*
X022240Y023307D02*
X023615Y023307D01*
X023615Y023209D02*
X022339Y023209D01*
X022437Y023110D02*
X023615Y023110D01*
X023615Y023012D02*
X022536Y023012D01*
X022634Y022913D02*
X023660Y022913D01*
X023758Y022815D02*
X022733Y022815D01*
X022831Y022716D02*
X023857Y022716D01*
X024402Y022815D02*
X027308Y022815D01*
X027387Y022736D02*
X027115Y023008D01*
X027115Y023171D01*
X027550Y023171D01*
X027550Y023231D01*
X027550Y023666D01*
X027387Y023666D01*
X027115Y023393D01*
X027115Y023231D01*
X027550Y023231D01*
X027610Y023231D01*
X027610Y023666D01*
X027773Y023666D01*
X028045Y023393D01*
X028045Y023231D01*
X027610Y023231D01*
X027610Y023171D01*
X028045Y023171D01*
X028045Y023008D01*
X027773Y022736D01*
X027610Y022736D01*
X027610Y023171D01*
X027550Y023171D01*
X027550Y022736D01*
X027387Y022736D01*
X027550Y022815D02*
X027610Y022815D01*
X027610Y022913D02*
X027550Y022913D01*
X027550Y023012D02*
X027610Y023012D01*
X027610Y023110D02*
X027550Y023110D01*
X027550Y023209D02*
X024545Y023209D01*
X024545Y023307D02*
X027115Y023307D01*
X027127Y023406D02*
X024483Y023406D01*
X024384Y023504D02*
X027226Y023504D01*
X027324Y023603D02*
X024286Y023603D01*
X024545Y023110D02*
X027115Y023110D01*
X027115Y023012D02*
X024545Y023012D01*
X024500Y022913D02*
X027210Y022913D01*
X027610Y023209D02*
X029921Y023209D01*
X030120Y023307D02*
X028045Y023307D01*
X028033Y023406D02*
X030120Y023406D01*
X030127Y023504D02*
X027934Y023504D01*
X027836Y023603D02*
X030202Y023603D01*
X030243Y023701D02*
X021813Y023701D01*
X021602Y023012D02*
X020392Y023012D01*
X020133Y022815D02*
X020911Y022815D01*
X020813Y022716D02*
X020228Y022716D01*
X020715Y022618D02*
X020715Y022456D01*
X020377Y023800D02*
X030330Y023800D01*
X029651Y023110D02*
X028045Y023110D01*
X028045Y023012D02*
X029563Y023012D01*
X029563Y022913D02*
X027950Y022913D01*
X027852Y022815D02*
X029563Y022815D01*
X028777Y022027D02*
X035530Y022027D01*
X035530Y022125D02*
X035630Y022125D01*
X035630Y022027D02*
X042620Y022027D01*
X042620Y022125D02*
X041811Y022125D01*
X042058Y022224D02*
X042620Y022224D01*
X042620Y022322D02*
X042218Y022322D01*
X042339Y022421D02*
X042620Y022421D01*
X042620Y022519D02*
X042434Y022519D01*
X042512Y022618D02*
X042620Y022618D01*
X042620Y022716D02*
X042577Y022716D01*
X042620Y021928D02*
X037480Y021928D01*
X037480Y021830D02*
X042620Y021830D01*
X042620Y021731D02*
X037480Y021731D01*
X037480Y021633D02*
X042620Y021633D01*
X042620Y021534D02*
X037480Y021534D01*
X037480Y021436D02*
X042620Y021436D01*
X042620Y021337D02*
X037480Y021337D01*
X037480Y021239D02*
X040887Y021239D01*
X040932Y021258D02*
X040746Y021181D01*
X040603Y021038D01*
X040526Y020852D01*
X040526Y020650D01*
X040603Y020464D01*
X040746Y020321D01*
X040916Y020251D01*
X040746Y020181D01*
X040603Y020038D01*
X040526Y019852D01*
X040526Y019650D01*
X040603Y019464D01*
X040746Y019321D01*
X040932Y019244D01*
X041728Y019244D01*
X041914Y019321D01*
X042057Y019464D01*
X042134Y019650D01*
X042134Y019852D01*
X042057Y020038D01*
X041914Y020181D01*
X041744Y020251D01*
X041914Y020321D01*
X042057Y020464D01*
X042134Y020650D01*
X042134Y020852D01*
X042057Y021038D01*
X041914Y021181D01*
X041728Y021258D01*
X040932Y021258D01*
X040706Y021140D02*
X037480Y021140D01*
X037480Y021042D02*
X040607Y021042D01*
X040564Y020943D02*
X037480Y020943D01*
X037480Y020845D02*
X040526Y020845D01*
X040526Y020746D02*
X037480Y020746D01*
X037480Y020648D02*
X040527Y020648D01*
X040568Y020549D02*
X037480Y020549D01*
X037480Y020451D02*
X040616Y020451D01*
X040715Y020352D02*
X037480Y020352D01*
X037480Y020254D02*
X040908Y020254D01*
X040721Y020155D02*
X037480Y020155D01*
X037480Y020057D02*
X040622Y020057D01*
X040571Y019958D02*
X037480Y019958D01*
X037480Y019860D02*
X040530Y019860D01*
X040526Y019761D02*
X037480Y019761D01*
X037452Y019663D02*
X040526Y019663D01*
X040562Y019564D02*
X032245Y019564D01*
X032245Y019531D02*
X032245Y019693D01*
X031973Y019966D01*
X031810Y019966D01*
X031810Y019531D01*
X031750Y019531D01*
X031750Y019966D01*
X031587Y019966D01*
X031315Y019693D01*
X031315Y019531D01*
X031750Y019531D01*
X031750Y019471D01*
X031315Y019471D01*
X031315Y019308D01*
X031587Y019036D01*
X031750Y019036D01*
X031750Y019471D01*
X031810Y019471D01*
X031810Y019531D01*
X032245Y019531D01*
X032245Y019471D02*
X031810Y019471D01*
X031810Y019036D01*
X031973Y019036D01*
X032245Y019308D01*
X032245Y019471D01*
X032245Y019466D02*
X040603Y019466D01*
X040700Y019367D02*
X032245Y019367D01*
X032206Y019269D02*
X040872Y019269D01*
X041788Y019269D02*
X042620Y019269D01*
X042620Y019367D02*
X041960Y019367D01*
X042057Y019466D02*
X042620Y019466D01*
X042620Y019564D02*
X042098Y019564D01*
X042134Y019663D02*
X042620Y019663D01*
X042620Y019761D02*
X042134Y019761D01*
X042130Y019860D02*
X042620Y019860D01*
X042620Y019958D02*
X042089Y019958D01*
X042038Y020057D02*
X042620Y020057D01*
X042620Y020155D02*
X041939Y020155D01*
X041945Y020352D02*
X042620Y020352D01*
X042620Y020254D02*
X041752Y020254D01*
X042044Y020451D02*
X042620Y020451D01*
X042620Y020549D02*
X042092Y020549D01*
X042133Y020648D02*
X042620Y020648D01*
X042620Y020746D02*
X042134Y020746D01*
X042134Y020845D02*
X042620Y020845D01*
X042620Y020943D02*
X042096Y020943D01*
X042053Y021042D02*
X042620Y021042D01*
X042620Y021140D02*
X041954Y021140D01*
X041773Y021239D02*
X042620Y021239D01*
X041505Y022125D02*
X041405Y022125D01*
X041405Y022224D02*
X041505Y022224D01*
X041505Y022322D02*
X041405Y022322D01*
X041405Y022421D02*
X041505Y022421D01*
X041505Y022519D02*
X041405Y022519D01*
X041405Y022618D02*
X041505Y022618D01*
X041505Y022716D02*
X041405Y022716D01*
X041405Y022815D02*
X041505Y022815D01*
X041505Y022913D02*
X041405Y022913D01*
X041405Y023012D02*
X041505Y023012D01*
X041505Y023110D02*
X041405Y023110D01*
X041405Y023209D02*
X041505Y023209D01*
X041505Y023307D02*
X041405Y023307D01*
X041405Y023406D02*
X039484Y023406D01*
X039487Y023399D02*
X039410Y023585D01*
X039267Y023727D01*
X039081Y023805D01*
X038879Y023805D01*
X038693Y023727D01*
X038550Y023585D01*
X038473Y023399D01*
X038473Y022603D01*
X038550Y022417D01*
X038693Y022274D01*
X038879Y022197D01*
X039081Y022197D01*
X039267Y022274D01*
X039410Y022417D01*
X039487Y022603D01*
X039487Y023399D01*
X039487Y023307D02*
X040155Y023307D01*
X040165Y023209D02*
X039487Y023209D01*
X039487Y023110D02*
X040182Y023110D01*
X040207Y023012D02*
X039487Y023012D01*
X039487Y022913D02*
X040239Y022913D01*
X040281Y022815D02*
X039487Y022815D01*
X039487Y022716D02*
X040333Y022716D01*
X040398Y022618D02*
X039487Y022618D01*
X039452Y022519D02*
X040476Y022519D01*
X040571Y022421D02*
X039411Y022421D01*
X039315Y022322D02*
X040692Y022322D01*
X040852Y022224D02*
X039145Y022224D01*
X038815Y022224D02*
X037480Y022224D01*
X037480Y022322D02*
X037745Y022322D01*
X037746Y022322D02*
X037808Y022290D01*
X037875Y022268D01*
X037932Y022259D01*
X037932Y022952D01*
X038028Y022952D01*
X038028Y022259D01*
X038085Y022268D01*
X038152Y022290D01*
X038214Y022322D01*
X038271Y022363D01*
X038321Y022413D01*
X038362Y022470D01*
X038394Y022532D01*
X038416Y022599D01*
X038427Y022669D01*
X038427Y022952D01*
X038028Y022952D01*
X038028Y023049D01*
X037932Y023049D01*
X037932Y023742D01*
X037875Y023734D01*
X037808Y023712D01*
X037746Y023680D01*
X037689Y023639D01*
X037639Y023589D01*
X037598Y023532D01*
X037566Y023469D01*
X037544Y023402D01*
X037533Y023333D01*
X037533Y023049D01*
X037932Y023049D01*
X037932Y022952D01*
X037533Y022952D01*
X037533Y022669D01*
X037544Y022599D01*
X037566Y022532D01*
X037598Y022470D01*
X037639Y022413D01*
X037689Y022363D01*
X037746Y022322D01*
X037633Y022421D02*
X037480Y022421D01*
X037480Y022519D02*
X037573Y022519D01*
X037541Y022618D02*
X037480Y022618D01*
X037480Y022716D02*
X037533Y022716D01*
X037533Y022815D02*
X037480Y022815D01*
X037480Y022913D02*
X037533Y022913D01*
X037480Y023012D02*
X037932Y023012D01*
X038028Y023012D02*
X038473Y023012D01*
X038427Y023049D02*
X038427Y023333D01*
X038416Y023402D01*
X038394Y023469D01*
X038362Y023532D01*
X038321Y023589D01*
X038271Y023639D01*
X038214Y023680D01*
X038152Y023712D01*
X038085Y023734D01*
X038028Y023742D01*
X038028Y023049D01*
X038427Y023049D01*
X038427Y023110D02*
X038473Y023110D01*
X038473Y023209D02*
X038427Y023209D01*
X038427Y023307D02*
X038473Y023307D01*
X038476Y023406D02*
X038415Y023406D01*
X038376Y023504D02*
X038517Y023504D01*
X038568Y023603D02*
X038307Y023603D01*
X038172Y023701D02*
X038667Y023701D01*
X038868Y023800D02*
X037480Y023800D01*
X037480Y023898D02*
X040264Y023898D01*
X040225Y023800D02*
X039092Y023800D01*
X039293Y023701D02*
X040195Y023701D01*
X040175Y023603D02*
X039392Y023603D01*
X039443Y023504D02*
X040161Y023504D01*
X040313Y023997D02*
X037480Y023997D01*
X037480Y024095D02*
X040372Y024095D01*
X040445Y024194D02*
X037480Y024194D01*
X037474Y024292D02*
X040533Y024292D01*
X040643Y024391D02*
X037387Y024391D01*
X037480Y023701D02*
X037788Y023701D01*
X037932Y023701D02*
X038028Y023701D01*
X038028Y023603D02*
X037932Y023603D01*
X037932Y023504D02*
X038028Y023504D01*
X038028Y023406D02*
X037932Y023406D01*
X037932Y023307D02*
X038028Y023307D01*
X038028Y023209D02*
X037932Y023209D01*
X037932Y023110D02*
X038028Y023110D01*
X038028Y022913D02*
X037932Y022913D01*
X037932Y022815D02*
X038028Y022815D01*
X038028Y022716D02*
X037932Y022716D01*
X037932Y022618D02*
X038028Y022618D01*
X038028Y022519D02*
X037932Y022519D01*
X037932Y022421D02*
X038028Y022421D01*
X038028Y022322D02*
X037932Y022322D01*
X038215Y022322D02*
X038645Y022322D01*
X038549Y022421D02*
X038327Y022421D01*
X038387Y022519D02*
X038508Y022519D01*
X038473Y022618D02*
X038419Y022618D01*
X038427Y022716D02*
X038473Y022716D01*
X038473Y022815D02*
X038427Y022815D01*
X038427Y022913D02*
X038473Y022913D01*
X037533Y023110D02*
X037480Y023110D01*
X037480Y023209D02*
X037533Y023209D01*
X037533Y023307D02*
X037480Y023307D01*
X037480Y023406D02*
X037545Y023406D01*
X037584Y023504D02*
X037480Y023504D01*
X037480Y023603D02*
X037653Y023603D01*
X035630Y023603D02*
X035530Y023603D01*
X035530Y023701D02*
X035630Y023701D01*
X035630Y023800D02*
X035530Y023800D01*
X035530Y023898D02*
X035630Y023898D01*
X035630Y023997D02*
X035530Y023997D01*
X035530Y024095D02*
X035630Y024095D01*
X035630Y024194D02*
X035530Y024194D01*
X035530Y024292D02*
X035630Y024292D01*
X035630Y024391D02*
X035530Y024391D01*
X035530Y023504D02*
X035630Y023504D01*
X035630Y023406D02*
X035530Y023406D01*
X035530Y023307D02*
X035630Y023307D01*
X035630Y023209D02*
X035530Y023209D01*
X035530Y023110D02*
X035630Y023110D01*
X035630Y023012D02*
X035530Y023012D01*
X035530Y022913D02*
X035630Y022913D01*
X035630Y022815D02*
X035530Y022815D01*
X035530Y022716D02*
X035630Y022716D01*
X035630Y022618D02*
X035530Y022618D01*
X035530Y022519D02*
X035630Y022519D01*
X035630Y022421D02*
X035530Y022421D01*
X035530Y022322D02*
X035630Y022322D01*
X035630Y022224D02*
X035530Y022224D01*
X035530Y021928D02*
X035630Y021928D01*
X035630Y021830D02*
X035530Y021830D01*
X035530Y021731D02*
X035630Y021731D01*
X035630Y021633D02*
X035530Y021633D01*
X035530Y021534D02*
X035630Y021534D01*
X035630Y021436D02*
X035530Y021436D01*
X035530Y021337D02*
X035630Y021337D01*
X035630Y021239D02*
X035530Y021239D01*
X035530Y021140D02*
X035630Y021140D01*
X035630Y021042D02*
X035530Y021042D01*
X035530Y020943D02*
X035630Y020943D01*
X035630Y020845D02*
X035530Y020845D01*
X035530Y020746D02*
X035630Y020746D01*
X035630Y020648D02*
X035530Y020648D01*
X035530Y020549D02*
X035630Y020549D01*
X035630Y020451D02*
X035530Y020451D01*
X035530Y020352D02*
X035630Y020352D01*
X035630Y020254D02*
X035530Y020254D01*
X035530Y020155D02*
X035630Y020155D01*
X035630Y020057D02*
X035530Y020057D01*
X035530Y019958D02*
X035630Y019958D01*
X035630Y019860D02*
X035530Y019860D01*
X035530Y019761D02*
X035630Y019761D01*
X035630Y019663D02*
X035530Y019663D01*
X033708Y019663D02*
X032245Y019663D01*
X032177Y019761D02*
X033680Y019761D01*
X033680Y019860D02*
X032079Y019860D01*
X031980Y019958D02*
X033680Y019958D01*
X032107Y019170D02*
X042620Y019170D01*
X042620Y019072D02*
X032009Y019072D01*
X031810Y019072D02*
X031750Y019072D01*
X031750Y019170D02*
X031810Y019170D01*
X031810Y019269D02*
X031750Y019269D01*
X031750Y019367D02*
X031810Y019367D01*
X031810Y019466D02*
X031750Y019466D01*
X031750Y019564D02*
X031810Y019564D01*
X031810Y019663D02*
X031750Y019663D01*
X031750Y019761D02*
X031810Y019761D01*
X031810Y019860D02*
X031750Y019860D01*
X031750Y019958D02*
X031810Y019958D01*
X031580Y019958D02*
X030647Y019958D01*
X030677Y019946D02*
X030484Y020026D01*
X030276Y020026D01*
X030083Y019946D01*
X029935Y019798D01*
X029855Y019605D01*
X029855Y019396D01*
X029935Y019203D01*
X030083Y019056D01*
X030276Y018976D01*
X030484Y018976D01*
X030677Y019056D01*
X030825Y019203D01*
X030905Y019396D01*
X030905Y019605D01*
X030825Y019798D01*
X030677Y019946D01*
X030763Y019860D02*
X031481Y019860D01*
X031383Y019761D02*
X030840Y019761D01*
X030881Y019663D02*
X031315Y019663D01*
X031315Y019564D02*
X030905Y019564D01*
X030905Y019466D02*
X031315Y019466D01*
X031315Y019367D02*
X030893Y019367D01*
X030852Y019269D02*
X031354Y019269D01*
X031453Y019170D02*
X030792Y019170D01*
X030694Y019072D02*
X031551Y019072D01*
X030362Y018185D02*
X042620Y018185D01*
X042620Y018087D02*
X030461Y018087D01*
X030559Y017988D02*
X042620Y017988D01*
X042620Y017890D02*
X030658Y017890D01*
X030838Y017791D02*
X042620Y017791D01*
X042620Y017693D02*
X030921Y017693D01*
X030961Y017594D02*
X042620Y017594D01*
X042620Y017496D02*
X030968Y017496D01*
X030957Y017397D02*
X042620Y017397D01*
X042620Y017299D02*
X030916Y017299D01*
X030917Y017200D02*
X042620Y017200D01*
X042620Y017102D02*
X030958Y017102D01*
X030968Y017003D02*
X042620Y017003D01*
X042620Y016905D02*
X030960Y016905D01*
X030920Y016806D02*
X042620Y016806D01*
X042620Y016708D02*
X030836Y016708D01*
X030264Y018284D02*
X042620Y018284D01*
X042620Y018382D02*
X030165Y018382D01*
X030067Y018481D02*
X042620Y018481D01*
X042620Y018579D02*
X029968Y018579D01*
X029870Y018678D02*
X042620Y018678D01*
X042620Y018776D02*
X029771Y018776D01*
X029673Y018875D02*
X042620Y018875D01*
X042620Y018973D02*
X029574Y018973D01*
X029476Y019072D02*
X030066Y019072D01*
X029968Y019170D02*
X029377Y019170D01*
X029279Y019269D02*
X029908Y019269D01*
X029867Y019367D02*
X029180Y019367D01*
X029160Y019466D02*
X029855Y019466D01*
X029855Y019564D02*
X029160Y019564D01*
X029160Y019663D02*
X029879Y019663D01*
X029920Y019761D02*
X029160Y019761D01*
X029160Y019860D02*
X029997Y019860D01*
X030113Y019958D02*
X029160Y019958D01*
X028506Y019170D02*
X025537Y019170D01*
X025495Y019072D02*
X028547Y019072D01*
X027440Y019367D02*
X027020Y019367D01*
X027118Y019466D02*
X027342Y019466D01*
X027285Y019564D02*
X027175Y019564D01*
X027216Y019663D02*
X027244Y019663D01*
X027240Y019761D02*
X027220Y019761D01*
X027220Y019860D02*
X027240Y019860D01*
X027240Y019958D02*
X027220Y019958D01*
X027220Y020057D02*
X027240Y020057D01*
X027240Y020155D02*
X027220Y020155D01*
X027220Y020254D02*
X027240Y020254D01*
X027240Y020352D02*
X027220Y020352D01*
X027211Y020451D02*
X027249Y020451D01*
X026453Y020746D02*
X022910Y020746D01*
X022910Y020648D02*
X026354Y020648D01*
X026290Y020549D02*
X024709Y020549D01*
X024901Y020451D02*
X026249Y020451D01*
X026240Y020352D02*
X025000Y020352D01*
X025048Y020254D02*
X026240Y020254D01*
X026240Y020155D02*
X025089Y020155D01*
X025090Y020057D02*
X026240Y020057D01*
X026240Y019958D02*
X025901Y019958D01*
X025969Y019860D02*
X026240Y019860D01*
X026240Y019761D02*
X025969Y019761D01*
X025969Y019663D02*
X026244Y019663D01*
X026285Y019564D02*
X025969Y019564D01*
X025969Y019466D02*
X026342Y019466D01*
X026440Y019367D02*
X025969Y019367D01*
X025193Y019663D02*
X025090Y019663D01*
X025090Y019761D02*
X025193Y019761D01*
X025193Y019860D02*
X025090Y019860D01*
X025090Y019958D02*
X025261Y019958D01*
X025110Y019564D02*
X025090Y019564D01*
X024451Y020549D02*
X022910Y020549D01*
X022910Y020845D02*
X026369Y020845D01*
X026271Y020943D02*
X022989Y020943D01*
X023088Y021042D02*
X026172Y021042D01*
X026074Y021140D02*
X023186Y021140D01*
X023285Y021239D02*
X023944Y021239D01*
X023751Y021337D02*
X023383Y021337D01*
X024216Y021239D02*
X025975Y021239D01*
X025877Y021337D02*
X024409Y021337D01*
X024448Y022125D02*
X027162Y022125D01*
X027105Y022027D02*
X026121Y022027D01*
X026219Y021928D02*
X027065Y021928D01*
X027055Y021830D02*
X026318Y021830D01*
X026416Y021731D02*
X027055Y021731D01*
X027081Y021633D02*
X026515Y021633D01*
X026613Y021534D02*
X027122Y021534D01*
X027202Y021436D02*
X026712Y021436D01*
X026810Y021337D02*
X027327Y021337D01*
X026909Y021239D02*
X028519Y021239D01*
X028617Y021140D02*
X028393Y021140D01*
X028506Y021042D02*
X028716Y021042D01*
X028814Y020943D02*
X028604Y020943D01*
X028420Y021337D02*
X027833Y021337D01*
X029073Y021731D02*
X029610Y021731D01*
X029563Y021633D02*
X029171Y021633D01*
X029270Y021534D02*
X029563Y021534D01*
X029563Y021436D02*
X029368Y021436D01*
X029467Y021337D02*
X029563Y021337D01*
X027261Y022224D02*
X024310Y022224D01*
X022281Y021140D02*
X006040Y021140D01*
X006040Y021042D02*
X022250Y021042D01*
X021755Y020845D02*
X021655Y020845D01*
X021655Y020746D02*
X021755Y020746D01*
X021755Y020648D02*
X021655Y020648D01*
X027550Y023307D02*
X027610Y023307D01*
X027610Y023406D02*
X027550Y023406D01*
X027550Y023504D02*
X027610Y023504D01*
X027610Y023603D02*
X027550Y023603D01*
X031917Y023701D02*
X033680Y023701D01*
X033680Y023603D02*
X031958Y023603D01*
X032033Y023504D02*
X033680Y023504D01*
X033680Y023406D02*
X032040Y023406D01*
X032040Y023307D02*
X033680Y023307D01*
X033680Y023209D02*
X032040Y023209D01*
X032040Y023110D02*
X033680Y023110D01*
X033680Y023012D02*
X032040Y023012D01*
X032040Y022913D02*
X033680Y022913D01*
X033680Y022815D02*
X032040Y022815D01*
X032040Y022716D02*
X033680Y022716D01*
X033680Y022618D02*
X032040Y022618D01*
X032040Y022519D02*
X033680Y022519D01*
X033680Y022421D02*
X031957Y022421D01*
X033680Y023997D02*
X008417Y023997D01*
X008360Y024095D02*
X033680Y024095D01*
X033680Y024194D02*
X008303Y024194D01*
X008212Y024292D02*
X033686Y024292D01*
X033773Y024391D02*
X008113Y024391D01*
X007996Y024489D02*
X040782Y024489D01*
X041099Y022125D02*
X037480Y022125D01*
X042620Y016412D02*
X024843Y016412D01*
X024843Y016314D02*
X042620Y016314D01*
X042620Y016215D02*
X024809Y016215D01*
X024745Y016117D02*
X042620Y016117D01*
X042620Y016018D02*
X024606Y016018D01*
X024304Y016018D02*
X006040Y016018D01*
X006040Y015920D02*
X042620Y015920D01*
X042620Y015821D02*
X020808Y015821D01*
X020800Y015830D02*
X020657Y015889D01*
X020503Y015889D01*
X020360Y015830D01*
X020251Y015721D01*
X020192Y015578D01*
X020192Y015424D01*
X020213Y015373D01*
X020110Y015330D01*
X020001Y015221D01*
X019942Y015078D01*
X019942Y014924D01*
X019963Y014873D01*
X019860Y014830D01*
X019751Y014721D01*
X019692Y014578D01*
X019692Y014424D01*
X019751Y014281D01*
X019860Y014172D01*
X020003Y014113D01*
X020058Y014113D01*
X021192Y012979D01*
X021192Y012924D01*
X021251Y012781D01*
X021360Y012672D01*
X021503Y012613D01*
X021657Y012613D01*
X021800Y012672D01*
X021909Y012781D01*
X021952Y012884D01*
X022003Y012863D01*
X022157Y012863D01*
X022300Y012922D01*
X022409Y013031D01*
X022452Y013134D01*
X022503Y013113D01*
X022657Y013113D01*
X022800Y013172D01*
X022909Y013281D01*
X022968Y013424D01*
X022968Y013578D01*
X022909Y013721D01*
X022800Y013830D01*
X022657Y013889D01*
X022602Y013889D01*
X020968Y015523D01*
X020968Y015578D01*
X020909Y015721D01*
X020800Y015830D01*
X020907Y015723D02*
X042620Y015723D01*
X042620Y015624D02*
X020949Y015624D01*
X020968Y015526D02*
X042620Y015526D01*
X042620Y015427D02*
X021064Y015427D01*
X021162Y015329D02*
X042620Y015329D01*
X042620Y015230D02*
X021261Y015230D01*
X021359Y015132D02*
X042620Y015132D01*
X042620Y015033D02*
X021458Y015033D01*
X021556Y014935D02*
X040757Y014935D01*
X040746Y014931D02*
X040603Y014788D01*
X040526Y014602D01*
X040526Y014400D01*
X040603Y014214D01*
X040746Y014071D01*
X040916Y014001D01*
X040746Y013931D01*
X040603Y013788D01*
X040526Y013602D01*
X040526Y013400D01*
X040603Y013214D01*
X040746Y013071D01*
X040932Y012994D01*
X041728Y012994D01*
X041914Y013071D01*
X042057Y013214D01*
X042134Y013400D01*
X042134Y013602D01*
X042057Y013788D01*
X041914Y013931D01*
X041744Y014001D01*
X041914Y014071D01*
X042057Y014214D01*
X042134Y014400D01*
X042134Y014602D01*
X042057Y014788D01*
X041914Y014931D01*
X041728Y015008D01*
X040932Y015008D01*
X040746Y014931D01*
X040652Y014836D02*
X021655Y014836D01*
X021753Y014738D02*
X040583Y014738D01*
X040542Y014639D02*
X021852Y014639D01*
X021950Y014541D02*
X040526Y014541D01*
X040526Y014442D02*
X022049Y014442D01*
X022147Y014344D02*
X040550Y014344D01*
X040590Y014245D02*
X022246Y014245D01*
X022344Y014147D02*
X040670Y014147D01*
X040801Y014048D02*
X022443Y014048D01*
X022541Y013950D02*
X040793Y013950D01*
X040667Y013851D02*
X022748Y013851D01*
X022877Y013753D02*
X040589Y013753D01*
X040548Y013654D02*
X022936Y013654D01*
X022968Y013556D02*
X028086Y013556D01*
X028110Y013580D02*
X028001Y013471D01*
X027942Y013328D01*
X027942Y013273D01*
X027416Y012747D01*
X027334Y012665D01*
X027290Y012559D01*
X027290Y011932D01*
X027070Y011712D01*
X027070Y011290D01*
X007778Y011290D01*
X007778Y011192D02*
X027168Y011192D01*
X027070Y011290D02*
X027359Y011001D01*
X027070Y010712D01*
X027070Y010290D01*
X027359Y010001D01*
X027070Y009712D01*
X027070Y009290D01*
X027369Y008991D01*
X027791Y008991D01*
X028080Y009280D01*
X028369Y008991D01*
X028791Y008991D01*
X029090Y009290D01*
X029090Y009712D01*
X028801Y010001D01*
X029090Y010290D01*
X029090Y010712D01*
X028801Y011001D01*
X029090Y011290D01*
X042620Y011290D01*
X042620Y011192D02*
X028992Y011192D01*
X029090Y011290D02*
X029090Y011712D01*
X028791Y012011D01*
X028369Y012011D01*
X028080Y011722D01*
X027870Y011932D01*
X027870Y012381D01*
X028352Y012863D01*
X028407Y012863D01*
X028550Y012922D01*
X028659Y013031D01*
X028718Y013174D01*
X028718Y013328D01*
X028659Y013471D01*
X028550Y013580D01*
X028407Y013639D01*
X028253Y013639D01*
X028110Y013580D01*
X027995Y013457D02*
X022968Y013457D01*
X022941Y013359D02*
X027955Y013359D01*
X027929Y013260D02*
X022888Y013260D01*
X022776Y013162D02*
X027831Y013162D01*
X027732Y013063D02*
X022422Y013063D01*
X022343Y012965D02*
X027634Y012965D01*
X027535Y012866D02*
X022166Y012866D01*
X021994Y012866D02*
X021944Y012866D01*
X021896Y012768D02*
X027437Y012768D01*
X027338Y012669D02*
X021794Y012669D01*
X021366Y012669D02*
X013201Y012669D01*
X013300Y012571D02*
X027295Y012571D01*
X027290Y012472D02*
X013300Y012472D01*
X013300Y012374D02*
X027290Y012374D01*
X027290Y012275D02*
X013300Y012275D01*
X013300Y012181D02*
X013025Y011906D01*
X012635Y011906D01*
X012360Y012181D01*
X012360Y012571D01*
X011675Y012571D01*
X011400Y012846D01*
X011010Y012846D01*
X010735Y012571D01*
X010131Y012571D01*
X010090Y012669D02*
X010834Y012669D01*
X010932Y012768D02*
X010048Y012768D01*
X010050Y012766D02*
X009814Y013002D01*
X009505Y013130D01*
X009171Y013130D01*
X008862Y013002D01*
X008626Y012766D01*
X008498Y012457D01*
X008498Y012123D01*
X008626Y011814D01*
X008862Y011578D01*
X009171Y011450D01*
X009505Y011450D01*
X009814Y011578D01*
X010050Y011814D01*
X010178Y012123D01*
X010178Y012457D01*
X010050Y012766D01*
X009950Y012866D02*
X021216Y012866D01*
X021192Y012965D02*
X009851Y012965D01*
X009666Y013063D02*
X021107Y013063D01*
X021009Y013162D02*
X008401Y013162D01*
X008370Y013131D02*
X008852Y013613D01*
X008907Y013613D01*
X009050Y013672D01*
X009159Y013781D01*
X009218Y013924D01*
X009218Y014078D01*
X009159Y014221D01*
X009050Y014330D01*
X008907Y014389D01*
X008753Y014389D01*
X008610Y014330D01*
X008501Y014221D01*
X008442Y014078D01*
X008442Y014023D01*
X007834Y013415D01*
X007790Y013309D01*
X007790Y013193D01*
X007790Y012621D01*
X007761Y012592D01*
X007686Y012667D01*
X007688Y012669D01*
X007708Y012703D01*
X007718Y012741D01*
X007718Y012980D01*
X007349Y012980D01*
X007349Y013018D01*
X007311Y013018D01*
X007311Y013387D01*
X007072Y013387D01*
X007034Y013376D01*
X007000Y013357D01*
X006972Y013329D01*
X006952Y013295D01*
X006942Y013256D01*
X006942Y013018D01*
X007311Y013018D01*
X007311Y012980D01*
X006942Y012980D01*
X006942Y012741D01*
X006952Y012703D01*
X006972Y012669D01*
X006974Y012667D01*
X006882Y012576D01*
X006882Y011926D01*
X006931Y011877D01*
X006882Y011828D01*
X006882Y011178D01*
X007005Y011055D01*
X007655Y011055D01*
X007778Y011178D01*
X007778Y011828D01*
X007729Y011877D01*
X007778Y011926D01*
X007778Y011961D01*
X007888Y011961D01*
X007994Y012005D01*
X008076Y012087D01*
X008326Y012337D01*
X008370Y012443D01*
X008370Y013131D01*
X008370Y013063D02*
X009010Y013063D01*
X008825Y012965D02*
X008370Y012965D01*
X008370Y012866D02*
X008726Y012866D01*
X008628Y012768D02*
X008370Y012768D01*
X008370Y012669D02*
X008586Y012669D01*
X008545Y012571D02*
X008370Y012571D01*
X008370Y012472D02*
X008504Y012472D01*
X008498Y012374D02*
X008341Y012374D01*
X008265Y012275D02*
X008498Y012275D01*
X008498Y012177D02*
X008166Y012177D01*
X008068Y012078D02*
X008516Y012078D01*
X008557Y011980D02*
X007934Y011980D01*
X007733Y011881D02*
X008598Y011881D01*
X008657Y011783D02*
X007778Y011783D01*
X007778Y011684D02*
X008756Y011684D01*
X008854Y011586D02*
X007778Y011586D01*
X007778Y011487D02*
X009081Y011487D01*
X009594Y011487D02*
X027070Y011487D01*
X027070Y011389D02*
X007778Y011389D01*
X007693Y011093D02*
X027266Y011093D01*
X027353Y010995D02*
X006777Y010995D01*
X006826Y011093D02*
X006967Y011093D01*
X006882Y011192D02*
X006867Y011192D01*
X006871Y011290D02*
X006882Y011290D01*
X006871Y011389D02*
X006882Y011389D01*
X006882Y011487D02*
X006839Y011487D01*
X006798Y011586D02*
X006882Y011586D01*
X006882Y011684D02*
X006710Y011684D01*
X006566Y011783D02*
X006882Y011783D01*
X006927Y011881D02*
X006040Y011881D01*
X006040Y011783D02*
X006125Y011783D01*
X006040Y011980D02*
X006882Y011980D01*
X006882Y012078D02*
X006040Y012078D01*
X006040Y012177D02*
X006882Y012177D01*
X006882Y012275D02*
X006040Y012275D01*
X006040Y012374D02*
X006882Y012374D01*
X006882Y012472D02*
X006040Y012472D01*
X006040Y012571D02*
X006882Y012571D01*
X006972Y012669D02*
X006040Y012669D01*
X006040Y012768D02*
X006197Y012768D01*
X006495Y012768D02*
X006942Y012768D01*
X006942Y012866D02*
X006680Y012866D01*
X006779Y012965D02*
X006942Y012965D01*
X006942Y013063D02*
X006827Y013063D01*
X006867Y013162D02*
X006942Y013162D01*
X006943Y013260D02*
X006871Y013260D01*
X006871Y013359D02*
X007004Y013359D01*
X006838Y013457D02*
X007876Y013457D01*
X007811Y013359D02*
X007656Y013359D01*
X007660Y013357D02*
X007626Y013376D01*
X007588Y013387D01*
X007349Y013387D01*
X007349Y013018D01*
X007718Y013018D01*
X007718Y013256D01*
X007708Y013295D01*
X007688Y013329D01*
X007660Y013357D01*
X007717Y013260D02*
X007790Y013260D01*
X007790Y013162D02*
X007718Y013162D01*
X007718Y013063D02*
X007790Y013063D01*
X007790Y012965D02*
X007718Y012965D01*
X007718Y012866D02*
X007790Y012866D01*
X007790Y012768D02*
X007718Y012768D01*
X007688Y012669D02*
X007790Y012669D01*
X007349Y013063D02*
X007311Y013063D01*
X007311Y013162D02*
X007349Y013162D01*
X007349Y013260D02*
X007311Y013260D01*
X007311Y013359D02*
X007349Y013359D01*
X006797Y013556D02*
X007975Y013556D01*
X008073Y013654D02*
X006708Y013654D01*
X006563Y013753D02*
X008172Y013753D01*
X008270Y013851D02*
X006040Y013851D01*
X006040Y013753D02*
X006129Y013753D01*
X006040Y013950D02*
X008369Y013950D01*
X008442Y014048D02*
X006040Y014048D01*
X006040Y014147D02*
X008470Y014147D01*
X008526Y014245D02*
X006040Y014245D01*
X006040Y014344D02*
X008644Y014344D01*
X009016Y014344D02*
X014721Y014344D01*
X014724Y014359D02*
X014710Y014287D01*
X014710Y014261D01*
X015070Y014261D01*
X015070Y014621D01*
X015044Y014621D01*
X014972Y014607D01*
X014905Y014579D01*
X014844Y014538D01*
X014793Y014487D01*
X014752Y014426D01*
X014724Y014359D01*
X014763Y014442D02*
X006040Y014442D01*
X006040Y014541D02*
X014848Y014541D01*
X015070Y014541D02*
X015090Y014541D01*
X015090Y014621D02*
X015090Y014261D01*
X015070Y014261D01*
X015070Y014241D01*
X014710Y014241D01*
X014710Y014214D01*
X014724Y014143D01*
X014752Y014076D01*
X014793Y014015D01*
X014844Y013963D01*
X014905Y013923D01*
X014972Y013895D01*
X015044Y013881D01*
X015070Y013881D01*
X015070Y014241D01*
X015090Y014241D01*
X015090Y014261D01*
X015450Y014261D01*
X015450Y014287D01*
X015436Y014359D01*
X015408Y014426D01*
X015367Y014487D01*
X015316Y014538D01*
X015255Y014579D01*
X015188Y014607D01*
X015116Y014621D01*
X015090Y014621D01*
X015090Y014442D02*
X015070Y014442D01*
X015070Y014344D02*
X015090Y014344D01*
X015090Y014245D02*
X015650Y014245D01*
X015650Y014165D02*
X015715Y014007D01*
X015836Y013886D01*
X015994Y013821D01*
X016166Y013821D01*
X016324Y013886D01*
X016445Y014007D01*
X016510Y014165D01*
X016510Y014336D01*
X016445Y014494D01*
X016324Y014615D01*
X016166Y014681D01*
X015994Y014681D01*
X015836Y014615D01*
X015715Y014494D01*
X015650Y014336D01*
X015650Y014165D01*
X015658Y014147D02*
X015437Y014147D01*
X015436Y014143D02*
X015450Y014214D01*
X015450Y014241D01*
X015090Y014241D01*
X015090Y013881D01*
X015116Y013881D01*
X015188Y013895D01*
X015255Y013923D01*
X015316Y013963D01*
X015367Y014015D01*
X015408Y014076D01*
X015436Y014143D01*
X015390Y014048D02*
X015698Y014048D01*
X015773Y013950D02*
X015296Y013950D01*
X015090Y013950D02*
X015070Y013950D01*
X015070Y014048D02*
X015090Y014048D01*
X015090Y014147D02*
X015070Y014147D01*
X015070Y014245D02*
X009134Y014245D01*
X009190Y014147D02*
X014723Y014147D01*
X014770Y014048D02*
X009218Y014048D01*
X009218Y013950D02*
X014864Y013950D01*
X015439Y014344D02*
X015653Y014344D01*
X015694Y014442D02*
X015397Y014442D01*
X015312Y014541D02*
X015762Y014541D01*
X015894Y014639D02*
X006040Y014639D01*
X006040Y014738D02*
X019768Y014738D01*
X019717Y014639D02*
X017266Y014639D01*
X017324Y014615D02*
X017166Y014681D01*
X016994Y014681D01*
X016836Y014615D01*
X016715Y014494D01*
X016650Y014336D01*
X016650Y014165D01*
X016715Y014007D01*
X016836Y013886D01*
X016994Y013821D01*
X017166Y013821D01*
X017324Y013886D01*
X017445Y014007D01*
X017510Y014165D01*
X017510Y014336D01*
X017445Y014494D01*
X017324Y014615D01*
X017398Y014541D02*
X019692Y014541D01*
X019692Y014442D02*
X017466Y014442D01*
X017507Y014344D02*
X019725Y014344D01*
X019787Y014245D02*
X017510Y014245D01*
X017502Y014147D02*
X019920Y014147D01*
X020122Y014048D02*
X017462Y014048D01*
X017387Y013950D02*
X020221Y013950D01*
X020319Y013851D02*
X017239Y013851D01*
X016921Y013851D02*
X016239Y013851D01*
X016387Y013950D02*
X016773Y013950D01*
X016698Y014048D02*
X016462Y014048D01*
X016502Y014147D02*
X016658Y014147D01*
X016650Y014245D02*
X016510Y014245D01*
X016507Y014344D02*
X016653Y014344D01*
X016694Y014442D02*
X016466Y014442D01*
X016398Y014541D02*
X016762Y014541D01*
X016894Y014639D02*
X016266Y014639D01*
X015921Y013851D02*
X009188Y013851D01*
X009131Y013753D02*
X020418Y013753D01*
X020516Y013654D02*
X009008Y013654D01*
X008795Y013556D02*
X020615Y013556D01*
X020713Y013457D02*
X008697Y013457D01*
X008598Y013359D02*
X020812Y013359D01*
X020910Y013260D02*
X008500Y013260D01*
X010172Y012472D02*
X010735Y012472D01*
X010735Y012374D02*
X010178Y012374D01*
X010178Y012275D02*
X010735Y012275D01*
X010735Y012181D02*
X011010Y011906D01*
X011400Y011906D01*
X011675Y012181D01*
X011675Y012571D01*
X011675Y012472D02*
X012360Y012472D01*
X012360Y012374D02*
X011675Y012374D01*
X011675Y012275D02*
X012360Y012275D01*
X012364Y012177D02*
X011671Y012177D01*
X011572Y012078D02*
X012463Y012078D01*
X012561Y011980D02*
X011474Y011980D01*
X010936Y011980D02*
X010118Y011980D01*
X010078Y011881D02*
X027239Y011881D01*
X027290Y011980D02*
X013099Y011980D01*
X013197Y012078D02*
X027290Y012078D01*
X027290Y012177D02*
X013296Y012177D01*
X013300Y012181D02*
X013300Y012571D01*
X013025Y012846D01*
X012635Y012846D01*
X012360Y012571D01*
X012459Y012669D02*
X011576Y012669D01*
X011478Y012768D02*
X012557Y012768D01*
X013103Y012768D02*
X021264Y012768D01*
X019876Y014836D02*
X006040Y014836D01*
X006040Y014935D02*
X019942Y014935D01*
X019942Y015033D02*
X006040Y015033D01*
X006040Y015132D02*
X019964Y015132D01*
X020011Y015230D02*
X006040Y015230D01*
X006040Y015329D02*
X020109Y015329D01*
X020192Y015427D02*
X006040Y015427D01*
X006040Y015526D02*
X020192Y015526D01*
X020211Y015624D02*
X006040Y015624D01*
X006040Y015723D02*
X020253Y015723D01*
X020352Y015821D02*
X006040Y015821D01*
X008360Y017841D02*
X008500Y017841D01*
X008740Y018081D01*
X008740Y018221D01*
X008360Y018221D01*
X008360Y017841D01*
X008360Y017890D02*
X008300Y017890D01*
X008300Y017988D02*
X008360Y017988D01*
X008360Y018087D02*
X008300Y018087D01*
X008300Y018185D02*
X008360Y018185D01*
X008360Y018284D02*
X008300Y018284D01*
X008300Y018382D02*
X008360Y018382D01*
X008360Y018481D02*
X008300Y018481D01*
X008300Y018579D02*
X008360Y018579D01*
X008079Y018579D02*
X006040Y018579D01*
X006040Y018481D02*
X007980Y018481D01*
X007920Y018382D02*
X006040Y018382D01*
X006040Y018284D02*
X007920Y018284D01*
X007920Y018185D02*
X006040Y018185D01*
X006040Y018087D02*
X007920Y018087D01*
X008013Y017988D02*
X006040Y017988D01*
X006040Y017890D02*
X008111Y017890D01*
X008549Y017890D02*
X009026Y017890D01*
X008928Y017988D02*
X008647Y017988D01*
X008740Y018087D02*
X008860Y018087D01*
X008860Y018185D02*
X008740Y018185D01*
X008740Y018284D02*
X008860Y018284D01*
X008860Y018382D02*
X008740Y018382D01*
X008680Y018481D02*
X008895Y018481D01*
X008041Y018875D02*
X006040Y018875D01*
X006040Y018973D02*
X007943Y018973D01*
X007860Y019072D02*
X006040Y019072D01*
X006040Y019170D02*
X007860Y019170D01*
X007860Y019269D02*
X006040Y019269D01*
X006040Y019367D02*
X007860Y019367D01*
X007880Y019466D02*
X006040Y019466D01*
X006040Y019564D02*
X007979Y019564D01*
X008604Y019860D02*
X009056Y019860D01*
X008958Y019958D02*
X008702Y019958D01*
X008800Y020057D02*
X008860Y020057D01*
X008860Y020155D02*
X008800Y020155D01*
X008800Y020254D02*
X008860Y020254D01*
X008860Y020352D02*
X008800Y020352D01*
X008795Y020451D02*
X008865Y020451D01*
X008964Y020549D02*
X008696Y020549D01*
X008598Y020648D02*
X009062Y020648D01*
X007759Y022125D02*
X015725Y022125D01*
X015725Y022027D02*
X007425Y022027D01*
X006985Y022027D02*
X006040Y022027D01*
X006040Y022125D02*
X006651Y022125D01*
X006480Y022224D02*
X006040Y022224D01*
X006040Y022322D02*
X006335Y022322D01*
X006237Y022421D02*
X006040Y022421D01*
X006040Y022519D02*
X006138Y022519D01*
X006072Y022618D02*
X006040Y022618D01*
X006040Y021928D02*
X015725Y021928D01*
X015725Y021830D02*
X006040Y021830D01*
X006040Y021731D02*
X015725Y021731D01*
X015725Y021633D02*
X006040Y021633D01*
X006040Y021534D02*
X015725Y021534D01*
X015725Y021436D02*
X006040Y021436D01*
X007930Y022224D02*
X010915Y022224D01*
X010745Y022322D02*
X010315Y022322D01*
X010314Y022322D02*
X010371Y022363D01*
X010421Y022413D01*
X010462Y022470D01*
X010494Y022532D01*
X010516Y022599D01*
X010527Y022669D01*
X010527Y022952D01*
X010128Y022952D01*
X010128Y022259D01*
X010185Y022268D01*
X010252Y022290D01*
X010314Y022322D01*
X010427Y022421D02*
X010649Y022421D01*
X010608Y022519D02*
X010487Y022519D01*
X010519Y022618D02*
X010573Y022618D01*
X010573Y022716D02*
X010527Y022716D01*
X010527Y022815D02*
X010573Y022815D01*
X010573Y022913D02*
X010527Y022913D01*
X010573Y023012D02*
X010128Y023012D01*
X010128Y023049D02*
X010527Y023049D01*
X010527Y023333D01*
X010516Y023402D01*
X010494Y023469D01*
X010462Y023532D01*
X010421Y023589D01*
X010371Y023639D01*
X010314Y023680D01*
X010252Y023712D01*
X010185Y023734D01*
X010128Y023742D01*
X010128Y023049D01*
X010032Y023049D01*
X010032Y023742D01*
X009975Y023734D01*
X009908Y023712D01*
X009846Y023680D01*
X009789Y023639D01*
X009739Y023589D01*
X009698Y023532D01*
X009666Y023469D01*
X009644Y023402D01*
X009633Y023333D01*
X009633Y023049D01*
X010032Y023049D01*
X010032Y022952D01*
X010128Y022952D01*
X010128Y023049D01*
X010128Y023110D02*
X010032Y023110D01*
X010032Y023012D02*
X008515Y023012D01*
X008489Y022913D02*
X009633Y022913D01*
X009633Y022952D02*
X009633Y022669D01*
X009644Y022599D01*
X009666Y022532D01*
X009698Y022470D01*
X009739Y022413D01*
X009789Y022363D01*
X009846Y022322D01*
X009908Y022290D01*
X009975Y022268D01*
X010032Y022259D01*
X010032Y022952D01*
X009633Y022952D01*
X009633Y022815D02*
X008452Y022815D01*
X008395Y022716D02*
X009633Y022716D01*
X009641Y022618D02*
X008338Y022618D01*
X008272Y022519D02*
X009673Y022519D01*
X009733Y022421D02*
X008173Y022421D01*
X008075Y022322D02*
X009845Y022322D01*
X010032Y022322D02*
X010128Y022322D01*
X010128Y022421D02*
X010032Y022421D01*
X010032Y022519D02*
X010128Y022519D01*
X010128Y022618D02*
X010032Y022618D01*
X010032Y022716D02*
X010128Y022716D01*
X010128Y022815D02*
X010032Y022815D01*
X010032Y022913D02*
X010128Y022913D01*
X010128Y023209D02*
X010032Y023209D01*
X010032Y023307D02*
X010128Y023307D01*
X010128Y023406D02*
X010032Y023406D01*
X010032Y023504D02*
X010128Y023504D01*
X010128Y023603D02*
X010032Y023603D01*
X010032Y023701D02*
X010128Y023701D01*
X010272Y023701D02*
X010767Y023701D01*
X010668Y023603D02*
X010407Y023603D01*
X010476Y023504D02*
X010617Y023504D01*
X010576Y023406D02*
X010515Y023406D01*
X010527Y023307D02*
X010573Y023307D01*
X010573Y023209D02*
X010527Y023209D01*
X010527Y023110D02*
X010573Y023110D01*
X009633Y023110D02*
X008542Y023110D01*
X008565Y023209D02*
X009633Y023209D01*
X009633Y023307D02*
X008565Y023307D01*
X008565Y023406D02*
X009645Y023406D01*
X009684Y023504D02*
X008565Y023504D01*
X008552Y023603D02*
X009753Y023603D01*
X009888Y023701D02*
X008526Y023701D01*
X011245Y022224D02*
X012915Y022224D01*
X012745Y022322D02*
X012315Y022322D01*
X012314Y022322D02*
X012371Y022363D01*
X012421Y022413D01*
X012462Y022470D01*
X012494Y022532D01*
X012516Y022599D01*
X012527Y022669D01*
X012527Y022952D01*
X012128Y022952D01*
X012128Y022259D01*
X012185Y022268D01*
X012252Y022290D01*
X012314Y022322D01*
X012427Y022421D02*
X012649Y022421D01*
X012608Y022519D02*
X012487Y022519D01*
X012519Y022618D02*
X012573Y022618D01*
X012573Y022716D02*
X012527Y022716D01*
X012527Y022815D02*
X012573Y022815D01*
X012573Y022913D02*
X012527Y022913D01*
X012573Y023012D02*
X012128Y023012D01*
X012128Y023049D02*
X012527Y023049D01*
X012527Y023333D01*
X012516Y023402D01*
X012494Y023469D01*
X012462Y023532D01*
X012421Y023589D01*
X012371Y023639D01*
X012314Y023680D01*
X012252Y023712D01*
X012185Y023734D01*
X012128Y023742D01*
X012128Y023049D01*
X012032Y023049D01*
X012032Y023742D01*
X011975Y023734D01*
X011908Y023712D01*
X011846Y023680D01*
X011789Y023639D01*
X011739Y023589D01*
X011698Y023532D01*
X011666Y023469D01*
X011644Y023402D01*
X011633Y023333D01*
X011633Y023049D01*
X012032Y023049D01*
X012032Y022952D01*
X012128Y022952D01*
X012128Y023049D01*
X012128Y023110D02*
X012032Y023110D01*
X012032Y023012D02*
X011587Y023012D01*
X011633Y022952D02*
X011633Y022669D01*
X011644Y022599D01*
X011666Y022532D01*
X011698Y022470D01*
X011739Y022413D01*
X011789Y022363D01*
X011846Y022322D01*
X011908Y022290D01*
X011975Y022268D01*
X012032Y022259D01*
X012032Y022952D01*
X011633Y022952D01*
X011633Y022913D02*
X011587Y022913D01*
X011587Y022815D02*
X011633Y022815D01*
X011633Y022716D02*
X011587Y022716D01*
X011587Y022618D02*
X011641Y022618D01*
X011673Y022519D02*
X011552Y022519D01*
X011511Y022421D02*
X011733Y022421D01*
X011845Y022322D02*
X011415Y022322D01*
X012032Y022322D02*
X012128Y022322D01*
X012128Y022421D02*
X012032Y022421D01*
X012032Y022519D02*
X012128Y022519D01*
X012128Y022618D02*
X012032Y022618D01*
X012032Y022716D02*
X012128Y022716D01*
X012128Y022815D02*
X012032Y022815D01*
X012032Y022913D02*
X012128Y022913D01*
X012128Y023209D02*
X012032Y023209D01*
X012032Y023307D02*
X012128Y023307D01*
X012128Y023406D02*
X012032Y023406D01*
X012032Y023504D02*
X012128Y023504D01*
X012128Y023603D02*
X012032Y023603D01*
X012032Y023701D02*
X012128Y023701D01*
X012272Y023701D02*
X012767Y023701D01*
X012668Y023603D02*
X012407Y023603D01*
X012476Y023504D02*
X012617Y023504D01*
X012576Y023406D02*
X012515Y023406D01*
X012527Y023307D02*
X012573Y023307D01*
X012573Y023209D02*
X012527Y023209D01*
X012527Y023110D02*
X012573Y023110D01*
X011753Y023603D02*
X011492Y023603D01*
X011543Y023504D02*
X011684Y023504D01*
X011645Y023406D02*
X011584Y023406D01*
X011587Y023307D02*
X011633Y023307D01*
X011633Y023209D02*
X011587Y023209D01*
X011587Y023110D02*
X011633Y023110D01*
X011393Y023701D02*
X011888Y023701D01*
X013393Y023701D02*
X013888Y023701D01*
X013908Y023712D02*
X013846Y023680D01*
X013789Y023639D01*
X013739Y023589D01*
X013698Y023532D01*
X013666Y023469D01*
X013644Y023402D01*
X013633Y023333D01*
X013633Y023049D01*
X014032Y023049D01*
X014032Y023742D01*
X013975Y023734D01*
X013908Y023712D01*
X014032Y023701D02*
X014128Y023701D01*
X014128Y023742D02*
X014128Y023049D01*
X014032Y023049D01*
X014032Y022952D01*
X014128Y022952D01*
X014128Y022259D01*
X014185Y022268D01*
X014252Y022290D01*
X014314Y022322D01*
X014371Y022363D01*
X014421Y022413D01*
X014462Y022470D01*
X014494Y022532D01*
X014516Y022599D01*
X014527Y022669D01*
X014527Y022952D01*
X014128Y022952D01*
X014128Y023049D01*
X014527Y023049D01*
X014527Y023333D01*
X014516Y023402D01*
X014494Y023469D01*
X014462Y023532D01*
X014421Y023589D01*
X014371Y023639D01*
X014314Y023680D01*
X014252Y023712D01*
X014185Y023734D01*
X014128Y023742D01*
X014128Y023603D02*
X014032Y023603D01*
X014032Y023504D02*
X014128Y023504D01*
X014128Y023406D02*
X014032Y023406D01*
X014032Y023307D02*
X014128Y023307D01*
X014128Y023209D02*
X014032Y023209D01*
X014032Y023110D02*
X014128Y023110D01*
X014128Y023012D02*
X014573Y023012D01*
X014573Y023110D02*
X014527Y023110D01*
X014527Y023209D02*
X014573Y023209D01*
X014573Y023307D02*
X014527Y023307D01*
X014515Y023406D02*
X014576Y023406D01*
X014617Y023504D02*
X014476Y023504D01*
X014407Y023603D02*
X014668Y023603D01*
X014767Y023701D02*
X014272Y023701D01*
X013753Y023603D02*
X013492Y023603D01*
X013543Y023504D02*
X013684Y023504D01*
X013645Y023406D02*
X013584Y023406D01*
X013587Y023307D02*
X013633Y023307D01*
X013633Y023209D02*
X013587Y023209D01*
X013587Y023110D02*
X013633Y023110D01*
X013587Y023012D02*
X014032Y023012D01*
X014032Y022952D02*
X013633Y022952D01*
X013633Y022669D01*
X013644Y022599D01*
X013666Y022532D01*
X013698Y022470D01*
X013739Y022413D01*
X013789Y022363D01*
X013846Y022322D01*
X013908Y022290D01*
X013975Y022268D01*
X014032Y022259D01*
X014032Y022952D01*
X014032Y022913D02*
X014128Y022913D01*
X014128Y022815D02*
X014032Y022815D01*
X014032Y022716D02*
X014128Y022716D01*
X014128Y022618D02*
X014032Y022618D01*
X014032Y022519D02*
X014128Y022519D01*
X014128Y022421D02*
X014032Y022421D01*
X014032Y022322D02*
X014128Y022322D01*
X014315Y022322D02*
X014745Y022322D01*
X014649Y022421D02*
X014427Y022421D01*
X014487Y022519D02*
X014608Y022519D01*
X014573Y022618D02*
X014519Y022618D01*
X014527Y022716D02*
X014573Y022716D01*
X014573Y022815D02*
X014527Y022815D01*
X014527Y022913D02*
X014573Y022913D01*
X013633Y022913D02*
X013587Y022913D01*
X013587Y022815D02*
X013633Y022815D01*
X013633Y022716D02*
X013587Y022716D01*
X013587Y022618D02*
X013641Y022618D01*
X013673Y022519D02*
X013552Y022519D01*
X013511Y022421D02*
X013733Y022421D01*
X013845Y022322D02*
X013415Y022322D01*
X013245Y022224D02*
X014915Y022224D01*
X015245Y022224D02*
X015725Y022224D01*
X015725Y022322D02*
X015415Y022322D01*
X028574Y013556D02*
X040526Y013556D01*
X040526Y013457D02*
X028665Y013457D01*
X028705Y013359D02*
X040543Y013359D01*
X040584Y013260D02*
X028718Y013260D01*
X028713Y013162D02*
X040655Y013162D01*
X040765Y013063D02*
X028672Y013063D01*
X028593Y012965D02*
X042620Y012965D01*
X042620Y013063D02*
X041895Y013063D01*
X042005Y013162D02*
X042620Y013162D01*
X042620Y013260D02*
X042076Y013260D01*
X042117Y013359D02*
X042620Y013359D01*
X042620Y013457D02*
X042134Y013457D01*
X042134Y013556D02*
X042620Y013556D01*
X042620Y013654D02*
X042112Y013654D01*
X042071Y013753D02*
X042620Y013753D01*
X042620Y013851D02*
X041993Y013851D01*
X041867Y013950D02*
X042620Y013950D01*
X042620Y014048D02*
X041859Y014048D01*
X041990Y014147D02*
X042620Y014147D01*
X042620Y014245D02*
X042070Y014245D01*
X042110Y014344D02*
X042620Y014344D01*
X042620Y014442D02*
X042134Y014442D01*
X042134Y014541D02*
X042620Y014541D01*
X042620Y014639D02*
X042118Y014639D01*
X042077Y014738D02*
X042620Y014738D01*
X042620Y014836D02*
X042008Y014836D01*
X041903Y014935D02*
X042620Y014935D01*
X042620Y012866D02*
X028416Y012866D01*
X028257Y012768D02*
X042620Y012768D01*
X042620Y012669D02*
X028159Y012669D01*
X028060Y012571D02*
X042620Y012571D01*
X042620Y012472D02*
X027962Y012472D01*
X027870Y012374D02*
X042620Y012374D01*
X042620Y012275D02*
X027870Y012275D01*
X027870Y012177D02*
X042620Y012177D01*
X042620Y012078D02*
X027870Y012078D01*
X027870Y011980D02*
X028338Y011980D01*
X028239Y011881D02*
X027921Y011881D01*
X028019Y011783D02*
X028141Y011783D01*
X028822Y011980D02*
X042620Y011980D01*
X042620Y011881D02*
X028921Y011881D01*
X029019Y011783D02*
X042620Y011783D01*
X042620Y011684D02*
X029090Y011684D01*
X029090Y011586D02*
X042620Y011586D01*
X042620Y011487D02*
X029090Y011487D01*
X029090Y011389D02*
X042620Y011389D01*
X042620Y011093D02*
X028894Y011093D01*
X028807Y010995D02*
X031601Y010995D01*
X031676Y011026D02*
X031483Y010946D01*
X031335Y010798D01*
X031255Y010605D01*
X031255Y010396D01*
X031335Y010203D01*
X031483Y010056D01*
X031676Y009976D01*
X031884Y009976D01*
X032077Y010056D01*
X032225Y010203D01*
X032305Y010396D01*
X032305Y010605D01*
X032225Y010798D01*
X032077Y010946D01*
X031884Y011026D01*
X031676Y011026D01*
X031433Y010896D02*
X030642Y010896D01*
X030573Y010966D02*
X030410Y010966D01*
X030410Y010531D01*
X030350Y010531D01*
X030350Y010966D01*
X030187Y010966D01*
X029915Y010693D01*
X029915Y010531D01*
X030350Y010531D01*
X030350Y010471D01*
X029915Y010471D01*
X029915Y010308D01*
X030187Y010036D01*
X030350Y010036D01*
X030350Y010471D01*
X030410Y010471D01*
X030410Y010531D01*
X030845Y010531D01*
X030845Y010693D01*
X030573Y010966D01*
X030410Y010896D02*
X030350Y010896D01*
X030350Y010798D02*
X030410Y010798D01*
X030410Y010699D02*
X030350Y010699D01*
X030350Y010601D02*
X030410Y010601D01*
X030410Y010502D02*
X031255Y010502D01*
X031255Y010404D02*
X030845Y010404D01*
X030845Y010471D02*
X030410Y010471D01*
X030410Y010036D01*
X030573Y010036D01*
X030845Y010308D01*
X030845Y010471D01*
X030845Y010601D02*
X031255Y010601D01*
X031294Y010699D02*
X030839Y010699D01*
X030741Y010798D02*
X031335Y010798D01*
X031959Y010995D02*
X042620Y010995D01*
X042620Y010896D02*
X032127Y010896D01*
X032225Y010798D02*
X042620Y010798D01*
X042620Y010699D02*
X032266Y010699D01*
X032305Y010601D02*
X042620Y010601D01*
X042620Y010502D02*
X032305Y010502D01*
X032305Y010404D02*
X042620Y010404D01*
X042620Y010305D02*
X032267Y010305D01*
X032226Y010207D02*
X042620Y010207D01*
X042620Y010108D02*
X032130Y010108D01*
X031967Y010010D02*
X042620Y010010D01*
X042620Y009911D02*
X028891Y009911D01*
X028810Y010010D02*
X031593Y010010D01*
X031430Y010108D02*
X030645Y010108D01*
X030744Y010207D02*
X031334Y010207D01*
X031293Y010305D02*
X030842Y010305D01*
X030410Y010305D02*
X030350Y010305D01*
X030350Y010207D02*
X030410Y010207D01*
X030410Y010108D02*
X030350Y010108D01*
X030115Y010108D02*
X028909Y010108D01*
X029007Y010207D02*
X030016Y010207D01*
X029918Y010305D02*
X029090Y010305D01*
X029090Y010404D02*
X029915Y010404D01*
X029915Y010601D02*
X029090Y010601D01*
X029090Y010699D02*
X029921Y010699D01*
X030019Y010798D02*
X029004Y010798D01*
X028906Y010896D02*
X030118Y010896D01*
X030350Y010502D02*
X029090Y010502D01*
X028989Y009813D02*
X042620Y009813D01*
X042620Y009714D02*
X029088Y009714D01*
X029090Y009616D02*
X042620Y009616D01*
X042620Y009517D02*
X029090Y009517D01*
X029090Y009419D02*
X042620Y009419D01*
X042620Y009320D02*
X029090Y009320D01*
X029022Y009222D02*
X042620Y009222D01*
X042620Y009123D02*
X028924Y009123D01*
X028825Y009025D02*
X042620Y009025D01*
X042620Y008926D02*
X007918Y008926D01*
X007914Y008931D02*
X007744Y009001D01*
X007914Y009071D01*
X008057Y009214D01*
X008134Y009400D01*
X008134Y009602D01*
X008057Y009788D01*
X007914Y009931D01*
X007728Y010008D01*
X006932Y010008D01*
X006746Y009931D01*
X006603Y009788D01*
X006526Y009602D01*
X006526Y009400D01*
X006603Y009214D01*
X006746Y009071D01*
X006916Y009001D01*
X006746Y008931D01*
X006603Y008788D01*
X006526Y008602D01*
X006526Y008400D01*
X006603Y008214D01*
X006746Y008071D01*
X006932Y007994D01*
X007728Y007994D01*
X007914Y008071D01*
X008057Y008214D01*
X008134Y008400D01*
X008134Y008602D01*
X008057Y008788D01*
X007914Y008931D01*
X008017Y008828D02*
X042620Y008828D01*
X042620Y008729D02*
X008081Y008729D01*
X008122Y008631D02*
X042620Y008631D01*
X042620Y008532D02*
X008134Y008532D01*
X008134Y008434D02*
X042620Y008434D01*
X042620Y008335D02*
X008107Y008335D01*
X008066Y008237D02*
X042620Y008237D01*
X042620Y008138D02*
X007981Y008138D01*
X007838Y008040D02*
X042620Y008040D01*
X042620Y007941D02*
X006040Y007941D01*
X006040Y007843D02*
X042620Y007843D01*
X042620Y007744D02*
X013041Y007744D01*
X013000Y007786D02*
X012860Y007786D01*
X012860Y007406D01*
X012800Y007406D01*
X012800Y007786D01*
X012660Y007786D01*
X012420Y007546D01*
X012420Y007406D01*
X012800Y007406D01*
X012800Y007346D01*
X012420Y007346D01*
X012420Y007206D01*
X012660Y006966D01*
X012800Y006966D01*
X012800Y007346D01*
X012860Y007346D01*
X012860Y007406D01*
X013240Y007406D01*
X013240Y007546D01*
X013000Y007786D01*
X012860Y007744D02*
X012800Y007744D01*
X012800Y007646D02*
X012860Y007646D01*
X012860Y007547D02*
X012800Y007547D01*
X012800Y007449D02*
X012860Y007449D01*
X012860Y007350D02*
X042620Y007350D01*
X042620Y007252D02*
X013240Y007252D01*
X013240Y007206D02*
X013240Y007346D01*
X012860Y007346D01*
X012860Y006966D01*
X013000Y006966D01*
X013240Y007206D01*
X013187Y007153D02*
X027859Y007153D01*
X027860Y007155D02*
X027751Y007046D01*
X027692Y006903D01*
X027692Y006749D01*
X027751Y006606D01*
X027790Y006567D01*
X027790Y006508D01*
X027787Y006458D01*
X027790Y006451D01*
X027790Y006443D01*
X027809Y006397D01*
X027826Y006349D01*
X027831Y006344D01*
X027834Y006337D01*
X027870Y006301D01*
X028265Y005864D01*
X028265Y005760D01*
X028226Y005721D01*
X028167Y005578D01*
X028167Y005424D01*
X028226Y005281D01*
X028335Y005172D01*
X028478Y005113D01*
X028632Y005113D01*
X028775Y005172D01*
X028884Y005281D01*
X028943Y005424D01*
X028943Y005578D01*
X028884Y005721D01*
X028845Y005760D01*
X028845Y005969D01*
X028848Y006019D01*
X028845Y006026D01*
X028845Y006034D01*
X028826Y006080D01*
X028809Y006128D01*
X028804Y006133D01*
X028801Y006140D01*
X028765Y006176D01*
X028392Y006589D01*
X028409Y006606D01*
X028468Y006749D01*
X028468Y006903D01*
X028409Y007046D01*
X028300Y007155D01*
X028157Y007214D01*
X028003Y007214D01*
X027860Y007155D01*
X027760Y007055D02*
X013089Y007055D01*
X012860Y007055D02*
X012800Y007055D01*
X012800Y007153D02*
X012860Y007153D01*
X012860Y007252D02*
X012800Y007252D01*
X012800Y007350D02*
X011235Y007350D01*
X011235Y007346D02*
X011235Y007406D01*
X011175Y007406D01*
X011175Y007786D01*
X011035Y007786D01*
X010795Y007546D01*
X010795Y007406D01*
X011175Y007406D01*
X011175Y007346D01*
X010795Y007346D01*
X010795Y007206D01*
X011035Y006966D01*
X011175Y006966D01*
X011175Y007346D01*
X011235Y007346D01*
X011615Y007346D01*
X011615Y007206D01*
X011375Y006966D01*
X011235Y006966D01*
X011235Y007346D01*
X011235Y007406D02*
X011615Y007406D01*
X011615Y007546D01*
X011375Y007786D01*
X011235Y007786D01*
X011235Y007406D01*
X011235Y007449D02*
X011175Y007449D01*
X011175Y007547D02*
X011235Y007547D01*
X011235Y007646D02*
X011175Y007646D01*
X011175Y007744D02*
X011235Y007744D01*
X011416Y007744D02*
X012619Y007744D01*
X012520Y007646D02*
X011515Y007646D01*
X011613Y007547D02*
X012422Y007547D01*
X012420Y007449D02*
X011615Y007449D01*
X011615Y007252D02*
X012420Y007252D01*
X012473Y007153D02*
X011562Y007153D01*
X011464Y007055D02*
X012571Y007055D01*
X013240Y007449D02*
X042620Y007449D01*
X042620Y007547D02*
X013238Y007547D01*
X013140Y007646D02*
X042620Y007646D01*
X042620Y007153D02*
X028301Y007153D01*
X028400Y007055D02*
X042620Y007055D01*
X042620Y006956D02*
X028446Y006956D01*
X028468Y006858D02*
X042620Y006858D01*
X042620Y006759D02*
X028468Y006759D01*
X028432Y006661D02*
X042620Y006661D01*
X042620Y006562D02*
X028415Y006562D01*
X028505Y006464D02*
X042620Y006464D01*
X042620Y006365D02*
X028594Y006365D01*
X028683Y006267D02*
X042620Y006267D01*
X042620Y006168D02*
X041926Y006168D01*
X041914Y006181D02*
X041728Y006258D01*
X040932Y006258D01*
X040746Y006181D01*
X040603Y006038D01*
X040526Y005852D01*
X040526Y005650D01*
X040603Y005464D01*
X040746Y005321D01*
X040916Y005251D01*
X040746Y005181D01*
X040603Y005038D01*
X040526Y004852D01*
X040526Y004650D01*
X040603Y004464D01*
X040746Y004321D01*
X040932Y004244D01*
X041728Y004244D01*
X041914Y004321D01*
X042057Y004464D01*
X042134Y004650D01*
X042134Y004852D01*
X042057Y005038D01*
X041914Y005181D01*
X041744Y005251D01*
X041914Y005321D01*
X042057Y005464D01*
X042134Y005650D01*
X042134Y005852D01*
X042057Y006038D01*
X041914Y006181D01*
X042025Y006070D02*
X042620Y006070D01*
X042620Y005971D02*
X042084Y005971D01*
X042125Y005873D02*
X042620Y005873D01*
X042620Y005774D02*
X042134Y005774D01*
X042134Y005676D02*
X042620Y005676D01*
X042620Y005577D02*
X042104Y005577D01*
X042063Y005479D02*
X042620Y005479D01*
X042620Y005380D02*
X041973Y005380D01*
X041819Y005282D02*
X042620Y005282D01*
X042620Y005183D02*
X041907Y005183D01*
X042010Y005085D02*
X042620Y005085D01*
X042620Y004986D02*
X042078Y004986D01*
X042119Y004888D02*
X042620Y004888D01*
X042620Y004789D02*
X042134Y004789D01*
X042134Y004691D02*
X042620Y004691D01*
X042620Y004592D02*
X042110Y004592D01*
X042069Y004494D02*
X042620Y004494D01*
X042620Y004395D02*
X041988Y004395D01*
X041855Y004297D02*
X042620Y004297D01*
X042620Y004198D02*
X013935Y004198D01*
X013935Y004144D02*
X013935Y004380D01*
X013844Y004598D01*
X013677Y004765D01*
X013459Y004856D01*
X013223Y004856D01*
X013004Y004765D01*
X012977Y004738D01*
X012988Y004802D01*
X012505Y004802D01*
X012505Y004320D01*
X012580Y004332D01*
X012660Y004357D01*
X012735Y004396D01*
X012762Y004415D01*
X012747Y004380D01*
X012747Y004144D01*
X012837Y003925D01*
X013004Y003758D01*
X013223Y003668D01*
X013459Y003668D01*
X013677Y003758D01*
X013844Y003925D01*
X013935Y004144D01*
X013917Y004100D02*
X042620Y004100D01*
X042620Y004001D02*
X013876Y004001D01*
X013822Y003903D02*
X042620Y003903D01*
X042620Y003804D02*
X026075Y003804D01*
X026050Y003830D02*
X025907Y003889D01*
X025753Y003889D01*
X025610Y003830D01*
X025571Y003791D01*
X025089Y003791D01*
X025050Y003830D01*
X024907Y003889D01*
X024753Y003889D01*
X024610Y003830D01*
X024501Y003721D01*
X024442Y003578D01*
X024442Y003424D01*
X024501Y003281D01*
X024610Y003172D01*
X024753Y003113D01*
X024907Y003113D01*
X025050Y003172D01*
X025089Y003211D01*
X025571Y003211D01*
X025610Y003172D01*
X025753Y003113D01*
X025907Y003113D01*
X026050Y003172D01*
X026159Y003281D01*
X026218Y003424D01*
X026218Y003578D01*
X026159Y003721D01*
X026050Y003830D01*
X026165Y003706D02*
X030157Y003706D01*
X030133Y003696D02*
X029985Y003548D01*
X029905Y003355D01*
X029905Y003146D01*
X029985Y002953D01*
X030133Y002806D01*
X030326Y002726D01*
X030534Y002726D01*
X030727Y002806D01*
X030875Y002953D01*
X030955Y003146D01*
X030955Y003355D01*
X030875Y003548D01*
X030727Y003696D01*
X030534Y003776D01*
X030326Y003776D01*
X030133Y003696D01*
X030044Y003607D02*
X026206Y003607D01*
X026218Y003509D02*
X029969Y003509D01*
X029928Y003410D02*
X026213Y003410D01*
X026172Y003312D02*
X029905Y003312D01*
X029905Y003213D02*
X026091Y003213D01*
X025912Y003115D02*
X029918Y003115D01*
X029959Y003016D02*
X013622Y003016D01*
X013677Y002993D02*
X013459Y003084D01*
X013223Y003084D01*
X013004Y002993D01*
X012837Y002826D01*
X012747Y002608D01*
X012747Y002372D01*
X012762Y002337D01*
X012735Y002356D01*
X012660Y002394D01*
X012580Y002420D01*
X012505Y002432D01*
X012505Y001949D01*
X012988Y001949D01*
X012977Y002014D01*
X013004Y001987D01*
X013223Y001896D01*
X013459Y001896D01*
X013677Y001987D01*
X013844Y002154D01*
X013935Y002372D01*
X013935Y002608D01*
X013844Y002826D01*
X013677Y002993D01*
X013753Y002918D02*
X030021Y002918D01*
X030119Y002819D02*
X013847Y002819D01*
X013888Y002721D02*
X033015Y002721D01*
X033015Y002815D02*
X033015Y002287D01*
X033052Y002197D01*
X033121Y002128D01*
X033211Y002091D01*
X033524Y002091D01*
X033593Y002119D01*
X033632Y002103D01*
X033577Y002080D01*
X033505Y002009D01*
X033436Y001940D01*
X033399Y001850D01*
X033399Y001537D01*
X033436Y001447D01*
X033505Y001378D01*
X033595Y001341D01*
X033693Y001341D01*
X033783Y001378D01*
X033787Y001383D01*
X033792Y001378D01*
X033882Y001341D01*
X033979Y001341D01*
X034017Y001357D01*
X034055Y001341D01*
X034368Y001341D01*
X034385Y001348D01*
X034429Y001304D01*
X034498Y001235D01*
X034588Y001197D01*
X034757Y001197D01*
X034847Y001235D01*
X034902Y001290D01*
X034958Y001235D01*
X035048Y001197D01*
X035217Y001197D01*
X035307Y001235D01*
X035376Y001304D01*
X035398Y001357D01*
X035437Y001341D01*
X035534Y001341D01*
X035624Y001378D01*
X035629Y001383D01*
X035633Y001378D01*
X035724Y001341D01*
X035821Y001341D01*
X035859Y001357D01*
X035897Y001341D01*
X036210Y001341D01*
X036284Y001371D01*
X036357Y001341D01*
X036670Y001341D01*
X036760Y001378D01*
X036780Y001398D01*
X036799Y001378D01*
X036890Y001341D01*
X037130Y001341D01*
X037220Y001378D01*
X037289Y001447D01*
X037361Y001519D01*
X037398Y001609D01*
X037398Y001993D01*
X037361Y002083D01*
X037292Y002152D01*
X037220Y002224D01*
X037130Y002261D01*
X037123Y002261D01*
X037131Y002269D01*
X037168Y002359D01*
X037168Y002743D01*
X037131Y002833D01*
X037123Y002841D01*
X037284Y002841D01*
X037374Y002878D01*
X037428Y002932D01*
X037450Y002912D01*
X037471Y002889D01*
X037487Y002881D01*
X037500Y002869D01*
X037506Y002867D01*
X037418Y002830D01*
X037349Y002762D01*
X037312Y002671D01*
X037312Y002574D01*
X037349Y002484D01*
X037354Y002479D01*
X037349Y002475D01*
X037312Y002385D01*
X037312Y002287D01*
X037349Y002197D01*
X037418Y002128D01*
X037508Y002091D01*
X037745Y002091D01*
X037720Y002080D01*
X037651Y002012D01*
X037580Y001940D01*
X037542Y001850D01*
X037542Y001609D01*
X037580Y001519D01*
X037649Y001450D01*
X037720Y001378D01*
X037810Y001341D01*
X038051Y001341D01*
X038125Y001371D01*
X038199Y001341D01*
X038512Y001341D01*
X038602Y001378D01*
X038621Y001398D01*
X038641Y001378D01*
X038731Y001341D01*
X038972Y001341D01*
X039062Y001378D01*
X039131Y001447D01*
X039203Y001519D01*
X039240Y001609D01*
X039240Y001993D01*
X039203Y002083D01*
X039146Y002140D01*
X039203Y002197D01*
X039240Y002287D01*
X039240Y002815D01*
X039203Y002905D01*
X039146Y002962D01*
X039203Y003019D01*
X039240Y003109D01*
X039240Y003206D01*
X039216Y003265D01*
X039240Y003324D01*
X039240Y003493D01*
X039203Y003583D01*
X039134Y003652D01*
X039062Y003724D01*
X038972Y003761D01*
X038731Y003761D01*
X038641Y003724D01*
X038579Y003662D01*
X038512Y003689D01*
X038414Y003689D01*
X038324Y003652D01*
X038265Y003593D01*
X038205Y003618D01*
X037964Y003618D01*
X037888Y003586D01*
X037833Y003614D01*
X037736Y003621D01*
X037644Y003590D01*
X037624Y003573D01*
X037604Y003590D01*
X037512Y003621D01*
X037414Y003614D01*
X037360Y003586D01*
X037284Y003618D01*
X037043Y003618D01*
X036953Y003580D01*
X036884Y003512D01*
X036884Y003512D01*
X036881Y003509D01*
X036812Y003440D01*
X036775Y003350D01*
X036775Y003181D01*
X036812Y003091D01*
X036847Y003056D01*
X036847Y003037D01*
X036857Y003011D01*
X036659Y003011D01*
X036612Y002992D01*
X036631Y003037D01*
X036631Y003565D01*
X036594Y003655D01*
X036525Y003724D01*
X036435Y003761D01*
X036337Y003761D01*
X036247Y003724D01*
X036243Y003719D01*
X036238Y003724D01*
X036148Y003761D01*
X036050Y003761D01*
X035960Y003724D01*
X035891Y003655D01*
X035876Y003618D01*
X035662Y003618D01*
X035588Y003587D01*
X035514Y003618D01*
X035417Y003618D01*
X035394Y003608D01*
X035371Y003618D01*
X035201Y003618D01*
X035130Y003588D01*
X035059Y003618D01*
X035018Y003618D01*
X035002Y003655D01*
X034934Y003724D01*
X034843Y003761D01*
X034746Y003761D01*
X034656Y003724D01*
X034587Y003655D01*
X034550Y003565D01*
X034550Y003037D01*
X034562Y003007D01*
X034482Y002974D01*
X034414Y002905D01*
X034398Y002868D01*
X034357Y002868D01*
X034334Y002858D01*
X034334Y002887D01*
X034297Y002977D01*
X034228Y003046D01*
X034138Y003083D01*
X034040Y003083D01*
X033950Y003046D01*
X033912Y003007D01*
X033903Y003011D01*
X033733Y003011D01*
X033643Y002974D01*
X033575Y002905D01*
X033554Y002855D01*
X033524Y002868D01*
X033483Y002868D01*
X033468Y002905D01*
X033399Y002974D01*
X033309Y003011D01*
X033211Y003011D01*
X033121Y002974D01*
X033052Y002905D01*
X033015Y002815D01*
X033017Y002819D02*
X030741Y002819D01*
X030839Y002918D02*
X033065Y002918D01*
X033015Y002622D02*
X013929Y002622D01*
X013935Y002524D02*
X033015Y002524D01*
X033015Y002425D02*
X013935Y002425D01*
X013916Y002327D02*
X033015Y002327D01*
X033039Y002228D02*
X030710Y002228D01*
X030623Y002316D02*
X030460Y002316D01*
X030460Y001881D01*
X030400Y001881D01*
X030400Y002316D01*
X030237Y002316D01*
X029965Y002043D01*
X029965Y001881D01*
X030400Y001881D01*
X030400Y001821D01*
X029965Y001821D01*
X029965Y001658D01*
X030237Y001386D01*
X030400Y001386D01*
X030400Y001821D01*
X030460Y001821D01*
X030460Y001881D01*
X030895Y001881D01*
X030895Y002043D01*
X030623Y002316D01*
X030460Y002228D02*
X030400Y002228D01*
X030400Y002130D02*
X030460Y002130D01*
X030460Y002031D02*
X030400Y002031D01*
X030400Y001933D02*
X030460Y001933D01*
X030460Y001834D02*
X033399Y001834D01*
X033399Y001736D02*
X030895Y001736D01*
X030895Y001658D02*
X030895Y001821D01*
X030460Y001821D01*
X030460Y001386D01*
X030623Y001386D01*
X030895Y001658D01*
X030874Y001637D02*
X033399Y001637D01*
X033399Y001539D02*
X030776Y001539D01*
X030677Y001440D02*
X033443Y001440D01*
X033593Y001342D02*
X008323Y001342D01*
X008380Y001440D02*
X012180Y001440D01*
X012175Y001443D02*
X012250Y001405D01*
X012330Y001379D01*
X012405Y001367D01*
X012405Y001849D01*
X012505Y001849D01*
X012505Y001367D01*
X012580Y001379D01*
X012660Y001405D01*
X012735Y001443D01*
X012803Y001492D01*
X012862Y001552D01*
X012912Y001620D01*
X012950Y001695D01*
X012976Y001774D01*
X012988Y001849D01*
X012505Y001849D01*
X012505Y001949D01*
X012405Y001949D01*
X012405Y001849D01*
X011922Y001849D01*
X011934Y001774D01*
X011960Y001695D01*
X011998Y001620D01*
X012048Y001552D01*
X012107Y001492D01*
X012175Y001443D01*
X012061Y001539D02*
X008436Y001539D01*
X008482Y001637D02*
X011989Y001637D01*
X011947Y001736D02*
X008508Y001736D01*
X008535Y001834D02*
X011925Y001834D01*
X011922Y001949D02*
X012405Y001949D01*
X012405Y002432D01*
X012330Y002420D01*
X012250Y002394D01*
X012175Y002356D01*
X012148Y002337D01*
X012163Y002372D01*
X012163Y002608D01*
X012073Y002826D01*
X011966Y002933D01*
X012073Y003039D01*
X012163Y003258D01*
X012163Y003494D01*
X012073Y003712D01*
X011966Y003819D01*
X012073Y003925D01*
X012163Y004144D01*
X012163Y004380D01*
X012148Y004415D01*
X012175Y004396D01*
X012250Y004357D01*
X012330Y004332D01*
X012405Y004320D01*
X012405Y004802D01*
X012505Y004802D01*
X012505Y004902D01*
X012988Y004902D01*
X012976Y004977D01*
X012950Y005057D01*
X012912Y005132D01*
X012862Y005200D01*
X012803Y005259D01*
X012735Y005309D01*
X012660Y005347D01*
X012580Y005373D01*
X012505Y005385D01*
X012505Y004902D01*
X012405Y004902D01*
X012405Y004802D01*
X011922Y004802D01*
X011933Y004738D01*
X011906Y004765D01*
X011687Y004856D01*
X011451Y004856D01*
X011233Y004765D01*
X011066Y004598D01*
X010975Y004380D01*
X010975Y004144D01*
X011066Y003925D01*
X011172Y003819D01*
X011066Y003712D01*
X010975Y003494D01*
X010975Y003258D01*
X011066Y003039D01*
X011172Y002933D01*
X011066Y002826D01*
X010975Y002608D01*
X010975Y002372D01*
X011066Y002154D01*
X011233Y001987D01*
X011451Y001896D01*
X011687Y001896D01*
X011906Y001987D01*
X011933Y002014D01*
X011922Y001949D01*
X011776Y001933D02*
X012405Y001933D01*
X012405Y002031D02*
X012505Y002031D01*
X012505Y001933D02*
X013134Y001933D01*
X012985Y001834D02*
X030400Y001834D01*
X030400Y001736D02*
X030460Y001736D01*
X030460Y001637D02*
X030400Y001637D01*
X030400Y001539D02*
X030460Y001539D01*
X030460Y001440D02*
X030400Y001440D01*
X030183Y001440D02*
X012730Y001440D01*
X012849Y001539D02*
X030084Y001539D01*
X029986Y001637D02*
X012921Y001637D01*
X012963Y001736D02*
X029965Y001736D01*
X029965Y001933D02*
X013548Y001933D01*
X013722Y002031D02*
X029965Y002031D01*
X030051Y002130D02*
X013820Y002130D01*
X013875Y002228D02*
X030150Y002228D01*
X030809Y002130D02*
X033120Y002130D01*
X033433Y001933D02*
X030895Y001933D01*
X030895Y002031D02*
X033528Y002031D01*
X033695Y001342D02*
X033880Y001342D01*
X033982Y001342D02*
X034053Y001342D01*
X034370Y001342D02*
X034390Y001342D01*
X034489Y001243D02*
X008246Y001243D01*
X008147Y001145D02*
X040601Y001145D01*
X040499Y001243D02*
X035316Y001243D01*
X035392Y001342D02*
X035434Y001342D01*
X035536Y001342D02*
X035721Y001342D01*
X035823Y001342D02*
X035895Y001342D01*
X036212Y001342D02*
X036355Y001342D01*
X036672Y001342D02*
X036887Y001342D01*
X037133Y001342D02*
X037808Y001342D01*
X037658Y001440D02*
X037283Y001440D01*
X037369Y001539D02*
X037571Y001539D01*
X037542Y001637D02*
X037398Y001637D01*
X037398Y001736D02*
X037542Y001736D01*
X037542Y001834D02*
X037398Y001834D01*
X037398Y001933D02*
X037577Y001933D01*
X037671Y002031D02*
X037383Y002031D01*
X037417Y002130D02*
X037315Y002130D01*
X037336Y002228D02*
X037210Y002228D01*
X037155Y002327D02*
X037312Y002327D01*
X037329Y002425D02*
X037168Y002425D01*
X037168Y002524D02*
X037333Y002524D01*
X037312Y002622D02*
X037168Y002622D01*
X037168Y002721D02*
X037333Y002721D01*
X037407Y002819D02*
X037137Y002819D01*
X037414Y002918D02*
X037444Y002918D01*
X036855Y003016D02*
X036623Y003016D01*
X036631Y003115D02*
X036802Y003115D01*
X036775Y003213D02*
X036631Y003213D01*
X036631Y003312D02*
X036775Y003312D01*
X036800Y003410D02*
X036631Y003410D01*
X036631Y003509D02*
X036881Y003509D01*
X036881Y003509D01*
X037018Y003607D02*
X036614Y003607D01*
X036543Y003706D02*
X038623Y003706D01*
X038279Y003607D02*
X038230Y003607D01*
X037939Y003607D02*
X037846Y003607D01*
X037696Y003607D02*
X037551Y003607D01*
X037402Y003607D02*
X037309Y003607D01*
X035942Y003706D02*
X034952Y003706D01*
X035084Y003607D02*
X035176Y003607D01*
X035539Y003607D02*
X035637Y003607D01*
X034638Y003706D02*
X030703Y003706D01*
X030816Y003607D02*
X034567Y003607D01*
X034550Y003509D02*
X030891Y003509D01*
X030932Y003410D02*
X034550Y003410D01*
X034550Y003312D02*
X030955Y003312D01*
X030955Y003213D02*
X034550Y003213D01*
X034550Y003115D02*
X030942Y003115D01*
X030901Y003016D02*
X033921Y003016D01*
X034257Y003016D02*
X034558Y003016D01*
X034426Y002918D02*
X034321Y002918D01*
X033587Y002918D02*
X033455Y002918D01*
X034855Y001243D02*
X034949Y001243D01*
X037649Y001450D02*
X037649Y001450D01*
X038054Y001342D02*
X038197Y001342D01*
X038514Y001342D02*
X038729Y001342D01*
X038974Y001342D02*
X040417Y001342D01*
X040350Y001440D02*
X039124Y001440D01*
X039211Y001539D02*
X040295Y001539D01*
X040250Y001637D02*
X039240Y001637D01*
X039240Y001736D02*
X040215Y001736D01*
X040188Y001834D02*
X039240Y001834D01*
X039240Y001933D02*
X040168Y001933D01*
X040158Y002031D02*
X039224Y002031D01*
X039156Y002130D02*
X041405Y002130D01*
X041405Y002228D02*
X041505Y002228D01*
X041505Y002327D02*
X041405Y002327D01*
X041405Y002425D02*
X041505Y002425D01*
X041505Y002524D02*
X041405Y002524D01*
X041405Y002622D02*
X041505Y002622D01*
X041505Y002721D02*
X041405Y002721D01*
X041405Y002819D02*
X041505Y002819D01*
X041505Y002918D02*
X041405Y002918D01*
X041405Y003016D02*
X041505Y003016D01*
X041505Y003115D02*
X041405Y003115D01*
X041405Y003213D02*
X041505Y003213D01*
X041505Y003312D02*
X041405Y003312D01*
X041405Y003410D02*
X041505Y003410D01*
X041661Y003410D02*
X042620Y003410D01*
X042620Y003312D02*
X041989Y003312D01*
X042167Y003213D02*
X042620Y003213D01*
X042620Y003115D02*
X042299Y003115D01*
X042403Y003016D02*
X042620Y003016D01*
X042620Y002918D02*
X042487Y002918D01*
X042555Y002819D02*
X042620Y002819D01*
X042611Y002721D02*
X042620Y002721D01*
X042620Y003509D02*
X039234Y003509D01*
X039240Y003410D02*
X041249Y003410D01*
X040921Y003312D02*
X039235Y003312D01*
X039237Y003213D02*
X040743Y003213D01*
X040611Y003115D02*
X039240Y003115D01*
X039200Y003016D02*
X040507Y003016D01*
X040423Y002918D02*
X039190Y002918D01*
X039238Y002819D02*
X040355Y002819D01*
X040299Y002721D02*
X039240Y002721D01*
X039240Y002622D02*
X040254Y002622D01*
X040217Y002524D02*
X039240Y002524D01*
X039240Y002425D02*
X040189Y002425D01*
X040170Y002327D02*
X039240Y002327D01*
X039216Y002228D02*
X040159Y002228D01*
X040731Y001046D02*
X008049Y001046D01*
X008561Y001933D02*
X009392Y001933D01*
X009366Y001943D02*
X009554Y001866D01*
X010356Y001866D01*
X010544Y001943D01*
X010687Y002087D01*
X010765Y002274D01*
X010765Y002477D01*
X010687Y002665D01*
X010544Y002808D01*
X010381Y002876D01*
X010544Y002943D01*
X010687Y003087D01*
X010765Y003274D01*
X010765Y003477D01*
X010687Y003665D01*
X010544Y003808D01*
X010381Y003876D01*
X010544Y003943D01*
X010687Y004087D01*
X010765Y004274D01*
X010765Y004477D01*
X010687Y004665D01*
X010544Y004808D01*
X010356Y004886D01*
X009554Y004886D01*
X009366Y004808D01*
X009223Y004665D01*
X009145Y004477D01*
X009145Y004274D01*
X009223Y004087D01*
X009366Y003943D01*
X009529Y003876D01*
X009366Y003808D01*
X009223Y003665D01*
X009145Y003477D01*
X009145Y003274D01*
X009223Y003087D01*
X009366Y002943D01*
X009529Y002876D01*
X009366Y002808D01*
X009223Y002665D01*
X009145Y002477D01*
X009145Y002274D01*
X009223Y002087D01*
X009366Y001943D01*
X009278Y002031D02*
X008565Y002031D01*
X008565Y002130D02*
X009205Y002130D01*
X009164Y002228D02*
X008565Y002228D01*
X008559Y002327D02*
X009145Y002327D01*
X009145Y002425D02*
X008533Y002425D01*
X008506Y002524D02*
X009164Y002524D01*
X009205Y002622D02*
X008480Y002622D01*
X008432Y002721D02*
X009279Y002721D01*
X009393Y002819D02*
X008375Y002819D01*
X008318Y002918D02*
X009428Y002918D01*
X009293Y003016D02*
X008238Y003016D01*
X008139Y003115D02*
X009211Y003115D01*
X009170Y003213D02*
X008041Y003213D01*
X007871Y003312D02*
X009145Y003312D01*
X009145Y003410D02*
X007666Y003410D01*
X006744Y003410D02*
X006040Y003410D01*
X006040Y003312D02*
X006539Y003312D01*
X006369Y003213D02*
X006040Y003213D01*
X006040Y003115D02*
X006271Y003115D01*
X006172Y003016D02*
X006040Y003016D01*
X006040Y002918D02*
X006092Y002918D01*
X006040Y003509D02*
X009158Y003509D01*
X009199Y003607D02*
X006040Y003607D01*
X006040Y003706D02*
X009264Y003706D01*
X009362Y003804D02*
X006040Y003804D01*
X006040Y003903D02*
X009464Y003903D01*
X009308Y004001D02*
X006040Y004001D01*
X006040Y004100D02*
X009217Y004100D01*
X009176Y004198D02*
X006040Y004198D01*
X006040Y004297D02*
X009145Y004297D01*
X009145Y004395D02*
X006040Y004395D01*
X006040Y004494D02*
X009152Y004494D01*
X009193Y004592D02*
X007809Y004592D01*
X007798Y004587D02*
X007861Y004619D01*
X007918Y004660D01*
X007968Y004710D01*
X008009Y004767D01*
X008041Y004829D01*
X008063Y004896D01*
X008072Y004952D01*
X007378Y004952D01*
X007378Y004554D01*
X007662Y004554D01*
X007731Y004565D01*
X007798Y004587D01*
X007949Y004691D02*
X009249Y004691D01*
X009347Y004789D02*
X008021Y004789D01*
X008060Y004888D02*
X012405Y004888D01*
X012405Y004902D02*
X011922Y004902D01*
X011934Y004977D01*
X011960Y005057D01*
X011998Y005132D01*
X012048Y005200D01*
X012107Y005259D01*
X012175Y005309D01*
X012250Y005347D01*
X012330Y005373D01*
X012405Y005385D01*
X012405Y004902D01*
X012405Y004986D02*
X012505Y004986D01*
X012505Y004888D02*
X040541Y004888D01*
X040526Y004789D02*
X013619Y004789D01*
X013751Y004691D02*
X040526Y004691D01*
X040550Y004592D02*
X013847Y004592D01*
X013887Y004494D02*
X040591Y004494D01*
X040672Y004395D02*
X013928Y004395D01*
X013935Y004297D02*
X040805Y004297D01*
X040582Y004986D02*
X012973Y004986D01*
X012936Y005085D02*
X040650Y005085D01*
X040753Y005183D02*
X028786Y005183D01*
X028884Y005282D02*
X040841Y005282D01*
X040687Y005380D02*
X028925Y005380D01*
X028943Y005479D02*
X040597Y005479D01*
X040556Y005577D02*
X028943Y005577D01*
X028903Y005676D02*
X040526Y005676D01*
X040526Y005774D02*
X028845Y005774D01*
X028845Y005873D02*
X040535Y005873D01*
X040576Y005971D02*
X028845Y005971D01*
X028830Y006070D02*
X040635Y006070D01*
X040734Y006168D02*
X028773Y006168D01*
X028257Y005873D02*
X015885Y005873D01*
X015885Y005823D02*
X015885Y005961D01*
X015495Y005961D01*
X015495Y006041D01*
X015415Y006041D01*
X015415Y006431D01*
X015277Y006431D01*
X015025Y006179D01*
X015025Y006041D01*
X015415Y006041D01*
X015415Y005961D01*
X015025Y005961D01*
X015025Y005823D01*
X015277Y005571D01*
X015415Y005571D01*
X015415Y005961D01*
X015495Y005961D01*
X015495Y005571D01*
X015633Y005571D01*
X015885Y005823D01*
X015837Y005774D02*
X028265Y005774D01*
X028207Y005676D02*
X015738Y005676D01*
X015640Y005577D02*
X028167Y005577D01*
X028167Y005479D02*
X006040Y005479D01*
X006040Y005577D02*
X006740Y005577D01*
X006746Y005571D02*
X006932Y005494D01*
X007728Y005494D01*
X007914Y005571D01*
X008057Y005714D01*
X008134Y005900D01*
X008134Y006102D01*
X008057Y006288D01*
X007914Y006431D01*
X007728Y006508D01*
X006932Y006508D01*
X006746Y006431D01*
X006603Y006288D01*
X006526Y006102D01*
X006526Y005900D01*
X006603Y005714D01*
X006746Y005571D01*
X006641Y005676D02*
X006040Y005676D01*
X006040Y005774D02*
X006578Y005774D01*
X006538Y005873D02*
X006040Y005873D01*
X006040Y005971D02*
X006526Y005971D01*
X006526Y006070D02*
X006040Y006070D01*
X006040Y006168D02*
X006554Y006168D01*
X006595Y006267D02*
X006040Y006267D01*
X006040Y006365D02*
X006681Y006365D01*
X006827Y006464D02*
X006040Y006464D01*
X006040Y006562D02*
X027790Y006562D01*
X027788Y006464D02*
X009685Y006464D01*
X009658Y006491D02*
X009252Y006491D01*
X008965Y006204D01*
X008965Y005798D01*
X009252Y005511D01*
X009658Y005511D01*
X009945Y005798D01*
X009945Y006204D01*
X009658Y006491D01*
X009783Y006365D02*
X015211Y006365D01*
X015113Y006267D02*
X009882Y006267D01*
X009945Y006168D02*
X015025Y006168D01*
X015025Y006070D02*
X009945Y006070D01*
X009945Y005971D02*
X015415Y005971D01*
X015495Y005971D02*
X028168Y005971D01*
X028079Y006070D02*
X015885Y006070D01*
X015885Y006041D02*
X015885Y006179D01*
X015633Y006431D01*
X015495Y006431D01*
X015495Y006041D01*
X015885Y006041D01*
X015885Y006168D02*
X027990Y006168D01*
X027901Y006267D02*
X015797Y006267D01*
X015699Y006365D02*
X027820Y006365D01*
X027728Y006661D02*
X006040Y006661D01*
X006040Y006759D02*
X027692Y006759D01*
X027692Y006858D02*
X006040Y006858D01*
X006040Y006956D02*
X027714Y006956D01*
X028185Y005380D02*
X012533Y005380D01*
X012505Y005380D02*
X012405Y005380D01*
X012377Y005380D02*
X007865Y005380D01*
X007861Y005383D02*
X007798Y005415D01*
X007731Y005437D01*
X007662Y005448D01*
X007378Y005448D01*
X007378Y005049D01*
X007282Y005049D01*
X007282Y005448D01*
X006998Y005448D01*
X006929Y005437D01*
X006862Y005415D01*
X006799Y005383D01*
X006742Y005342D01*
X006692Y005292D01*
X006651Y005235D01*
X006619Y005172D01*
X006597Y005105D01*
X006588Y005049D01*
X007282Y005049D01*
X007282Y004952D01*
X007378Y004952D01*
X007378Y005049D01*
X008072Y005049D01*
X008063Y005105D01*
X008041Y005172D01*
X008009Y005235D01*
X007968Y005292D01*
X007918Y005342D01*
X007861Y005383D01*
X007975Y005282D02*
X012138Y005282D01*
X012036Y005183D02*
X008035Y005183D01*
X008066Y005085D02*
X011974Y005085D01*
X011937Y004986D02*
X007378Y004986D01*
X007282Y004986D02*
X006040Y004986D01*
X006040Y004888D02*
X006600Y004888D01*
X006597Y004896D02*
X006619Y004829D01*
X006651Y004767D01*
X006692Y004710D01*
X006742Y004660D01*
X006799Y004619D01*
X006862Y004587D01*
X006929Y004565D01*
X006998Y004554D01*
X007282Y004554D01*
X007282Y004952D01*
X006588Y004952D01*
X006597Y004896D01*
X006639Y004789D02*
X006040Y004789D01*
X006040Y004691D02*
X006711Y004691D01*
X006851Y004592D02*
X006040Y004592D01*
X006040Y005085D02*
X006594Y005085D01*
X006625Y005183D02*
X006040Y005183D01*
X006040Y005282D02*
X006685Y005282D01*
X006795Y005380D02*
X006040Y005380D01*
X007282Y005380D02*
X007378Y005380D01*
X007378Y005282D02*
X007282Y005282D01*
X007282Y005183D02*
X007378Y005183D01*
X007378Y005085D02*
X007282Y005085D01*
X007282Y004888D02*
X007378Y004888D01*
X007378Y004789D02*
X007282Y004789D01*
X007282Y004691D02*
X007378Y004691D01*
X007378Y004592D02*
X007282Y004592D01*
X007920Y005577D02*
X009186Y005577D01*
X009087Y005676D02*
X008019Y005676D01*
X008082Y005774D02*
X008989Y005774D01*
X008965Y005873D02*
X008122Y005873D01*
X008134Y005971D02*
X008965Y005971D01*
X008965Y006070D02*
X008134Y006070D01*
X008106Y006168D02*
X008965Y006168D01*
X009028Y006267D02*
X008065Y006267D01*
X007979Y006365D02*
X009127Y006365D01*
X009225Y006464D02*
X007833Y006464D01*
X009724Y005577D02*
X015270Y005577D01*
X015172Y005676D02*
X009823Y005676D01*
X009921Y005774D02*
X015073Y005774D01*
X015025Y005873D02*
X009945Y005873D01*
X010563Y004789D02*
X011291Y004789D01*
X011159Y004691D02*
X010661Y004691D01*
X010717Y004592D02*
X011063Y004592D01*
X011023Y004494D02*
X010758Y004494D01*
X010765Y004395D02*
X010982Y004395D01*
X010975Y004297D02*
X010765Y004297D01*
X010733Y004198D02*
X010975Y004198D01*
X010993Y004100D02*
X010693Y004100D01*
X010602Y004001D02*
X011034Y004001D01*
X011088Y003903D02*
X010446Y003903D01*
X010548Y003804D02*
X011158Y003804D01*
X011063Y003706D02*
X010646Y003706D01*
X010711Y003607D02*
X011022Y003607D01*
X010981Y003509D02*
X010752Y003509D01*
X010765Y003410D02*
X010975Y003410D01*
X010975Y003312D02*
X010765Y003312D01*
X010740Y003213D02*
X010994Y003213D01*
X011034Y003115D02*
X010699Y003115D01*
X010617Y003016D02*
X011089Y003016D01*
X011157Y002918D02*
X010482Y002918D01*
X010517Y002819D02*
X011063Y002819D01*
X011022Y002721D02*
X010631Y002721D01*
X010705Y002622D02*
X010981Y002622D01*
X010975Y002524D02*
X010746Y002524D01*
X010765Y002425D02*
X010975Y002425D01*
X010994Y002327D02*
X010765Y002327D01*
X010746Y002228D02*
X011035Y002228D01*
X011090Y002130D02*
X010705Y002130D01*
X010632Y002031D02*
X011188Y002031D01*
X011362Y001933D02*
X010518Y001933D01*
X012163Y002425D02*
X012363Y002425D01*
X012405Y002425D02*
X012505Y002425D01*
X012547Y002425D02*
X012747Y002425D01*
X012747Y002524D02*
X012163Y002524D01*
X012157Y002622D02*
X012753Y002622D01*
X012794Y002721D02*
X012116Y002721D01*
X012076Y002819D02*
X012834Y002819D01*
X012929Y002918D02*
X011981Y002918D01*
X012050Y003016D02*
X013060Y003016D01*
X012505Y002327D02*
X012405Y002327D01*
X012405Y002228D02*
X012505Y002228D01*
X012505Y002130D02*
X012405Y002130D01*
X012405Y001834D02*
X012505Y001834D01*
X012505Y001736D02*
X012405Y001736D01*
X012405Y001637D02*
X012505Y001637D01*
X012505Y001539D02*
X012405Y001539D01*
X012405Y001440D02*
X012505Y001440D01*
X012104Y003115D02*
X024748Y003115D01*
X024912Y003115D02*
X025748Y003115D01*
X025585Y003804D02*
X025075Y003804D01*
X024585Y003804D02*
X013723Y003804D01*
X013551Y003706D02*
X024495Y003706D01*
X024454Y003607D02*
X012116Y003607D01*
X012157Y003509D02*
X024442Y003509D01*
X024447Y003410D02*
X012163Y003410D01*
X012163Y003312D02*
X024488Y003312D01*
X024569Y003213D02*
X012145Y003213D01*
X012075Y003706D02*
X013131Y003706D01*
X012958Y003804D02*
X011981Y003804D01*
X012050Y003903D02*
X012860Y003903D01*
X012806Y004001D02*
X012104Y004001D01*
X012145Y004100D02*
X012765Y004100D01*
X012747Y004198D02*
X012163Y004198D01*
X012163Y004297D02*
X012747Y004297D01*
X012734Y004395D02*
X012753Y004395D01*
X012505Y004395D02*
X012405Y004395D01*
X012405Y004494D02*
X012505Y004494D01*
X012505Y004592D02*
X012405Y004592D01*
X012405Y004691D02*
X012505Y004691D01*
X012505Y004789D02*
X012405Y004789D01*
X012405Y005085D02*
X012505Y005085D01*
X012505Y005183D02*
X012405Y005183D01*
X012405Y005282D02*
X012505Y005282D01*
X012772Y005282D02*
X028226Y005282D01*
X028324Y005183D02*
X012874Y005183D01*
X012986Y004789D02*
X013063Y004789D01*
X012176Y004395D02*
X012157Y004395D01*
X011924Y004789D02*
X011847Y004789D01*
X015415Y005577D02*
X015495Y005577D01*
X015495Y005676D02*
X015415Y005676D01*
X015415Y005774D02*
X015495Y005774D01*
X015495Y005873D02*
X015415Y005873D01*
X015415Y006070D02*
X015495Y006070D01*
X015495Y006168D02*
X015415Y006168D01*
X015415Y006267D02*
X015495Y006267D01*
X015495Y006365D02*
X015415Y006365D01*
X011235Y007055D02*
X011175Y007055D01*
X011175Y007153D02*
X011235Y007153D01*
X011235Y007252D02*
X011175Y007252D01*
X011175Y007350D02*
X006040Y007350D01*
X006040Y007252D02*
X010795Y007252D01*
X010848Y007153D02*
X006040Y007153D01*
X006040Y007055D02*
X010946Y007055D01*
X010795Y007449D02*
X006040Y007449D01*
X006040Y007547D02*
X010797Y007547D01*
X010895Y007646D02*
X006040Y007646D01*
X006040Y007744D02*
X010994Y007744D01*
X008060Y009222D02*
X027138Y009222D01*
X027070Y009320D02*
X008101Y009320D01*
X008134Y009419D02*
X027070Y009419D01*
X027070Y009517D02*
X008134Y009517D01*
X008128Y009616D02*
X027070Y009616D01*
X027072Y009714D02*
X008087Y009714D01*
X008032Y009813D02*
X027171Y009813D01*
X027269Y009911D02*
X007933Y009911D01*
X007966Y009123D02*
X027236Y009123D01*
X027335Y009025D02*
X007802Y009025D01*
X006858Y009025D02*
X006040Y009025D01*
X006040Y009123D02*
X006694Y009123D01*
X006600Y009222D02*
X006040Y009222D01*
X006040Y009320D02*
X006559Y009320D01*
X006526Y009419D02*
X006040Y009419D01*
X006040Y009517D02*
X006526Y009517D01*
X006532Y009616D02*
X006040Y009616D01*
X006040Y009714D02*
X006573Y009714D01*
X006628Y009813D02*
X006040Y009813D01*
X006040Y009911D02*
X006727Y009911D01*
X006040Y010010D02*
X027350Y010010D01*
X027251Y010108D02*
X006040Y010108D01*
X006040Y010207D02*
X027153Y010207D01*
X027070Y010305D02*
X006040Y010305D01*
X006040Y010404D02*
X027070Y010404D01*
X027070Y010502D02*
X006040Y010502D01*
X006040Y010601D02*
X027070Y010601D01*
X027070Y010699D02*
X006040Y010699D01*
X006040Y010798D02*
X006201Y010798D01*
X006491Y010798D02*
X027156Y010798D01*
X027254Y010896D02*
X006679Y010896D01*
X009821Y011586D02*
X027070Y011586D01*
X027070Y011684D02*
X009920Y011684D01*
X010018Y011783D02*
X027141Y011783D01*
X030350Y010404D02*
X030410Y010404D01*
X028236Y009123D02*
X027924Y009123D01*
X027825Y009025D02*
X028335Y009025D01*
X028138Y009222D02*
X028022Y009222D01*
X039080Y003706D02*
X042620Y003706D01*
X042620Y003607D02*
X039179Y003607D01*
X010838Y012078D02*
X010159Y012078D01*
X010178Y012177D02*
X010739Y012177D01*
X010735Y012181D02*
X010735Y012571D01*
X006742Y008926D02*
X006040Y008926D01*
X006040Y008828D02*
X006643Y008828D01*
X006579Y008729D02*
X006040Y008729D01*
X006040Y008631D02*
X006538Y008631D01*
X006526Y008532D02*
X006040Y008532D01*
X006040Y008434D02*
X006526Y008434D01*
X006553Y008335D02*
X006040Y008335D01*
X006040Y008237D02*
X006594Y008237D01*
X006679Y008138D02*
X006040Y008138D01*
X006040Y008040D02*
X006822Y008040D01*
D38*
X034580Y019001D02*
X034580Y020751D01*
X036530Y020451D02*
X038130Y020451D01*
X036630Y020451D02*
X036630Y018951D01*
D39*
X016180Y021001D02*
X016180Y021851D01*
D40*
X017730Y021701D02*
X017730Y020951D01*
D41*
X019970Y023398D02*
X021682Y023398D01*
X023330Y021751D01*
X022580Y021001D01*
X022580Y019751D01*
X022580Y017751D01*
X025930Y021751D02*
X026830Y020851D01*
X028230Y020851D01*
X028830Y020251D01*
X028830Y019251D01*
X030580Y017501D01*
X030580Y017001D01*
X030580Y017376D02*
X030580Y017501D01*
X029930Y020501D02*
X029930Y021282D01*
X029930Y022620D02*
X029930Y022751D01*
X030130Y022951D01*
X031030Y022951D01*
X031080Y023001D01*
X025930Y021751D02*
X024080Y021751D01*
X023330Y021751D01*
D42*
X025581Y019625D03*
M02*
