G75*
%MOIN*%
%OFA0B0*%
%FSLAX24Y24*%
%IPPOS*%
%LPD*%
%AMOC8*
5,1,8,0,0,1.08239X$1,22.5*
%
%ADD10C,0.0000*%
%ADD11C,0.0100*%
%ADD12C,0.0070*%
%ADD13C,0.0040*%
%ADD14C,0.0050*%
%ADD15C,0.0030*%
%ADD16C,0.0060*%
%ADD17C,0.0080*%
%ADD18C,0.0020*%
%ADD19R,0.0550X0.0300*%
%ADD20R,0.0059X0.0118*%
%ADD21R,0.0118X0.0118*%
%ADD22C,0.0200*%
%ADD23R,0.0315X0.0236*%
%ADD24R,0.0374X0.0354*%
%ADD25R,0.0138X0.0354*%
D10*
X005830Y001251D02*
X006330Y000751D01*
X042330Y000751D01*
X042830Y001251D01*
X042830Y024251D01*
X042330Y024751D01*
X006330Y024751D01*
X005830Y024251D01*
X005830Y001251D01*
X006031Y011306D02*
X006033Y011341D01*
X006039Y011376D01*
X006049Y011410D01*
X006062Y011443D01*
X006079Y011474D01*
X006100Y011502D01*
X006123Y011529D01*
X006150Y011552D01*
X006178Y011573D01*
X006209Y011590D01*
X006242Y011603D01*
X006276Y011613D01*
X006311Y011619D01*
X006346Y011621D01*
X006381Y011619D01*
X006416Y011613D01*
X006450Y011603D01*
X006483Y011590D01*
X006514Y011573D01*
X006542Y011552D01*
X006569Y011529D01*
X006592Y011502D01*
X006613Y011474D01*
X006630Y011443D01*
X006643Y011410D01*
X006653Y011376D01*
X006659Y011341D01*
X006661Y011306D01*
X006659Y011271D01*
X006653Y011236D01*
X006643Y011202D01*
X006630Y011169D01*
X006613Y011138D01*
X006592Y011110D01*
X006569Y011083D01*
X006542Y011060D01*
X006514Y011039D01*
X006483Y011022D01*
X006450Y011009D01*
X006416Y010999D01*
X006381Y010993D01*
X006346Y010991D01*
X006311Y010993D01*
X006276Y010999D01*
X006242Y011009D01*
X006209Y011022D01*
X006178Y011039D01*
X006150Y011060D01*
X006123Y011083D01*
X006100Y011110D01*
X006079Y011138D01*
X006062Y011169D01*
X006049Y011202D01*
X006039Y011236D01*
X006033Y011271D01*
X006031Y011306D01*
X006031Y013274D02*
X006033Y013309D01*
X006039Y013344D01*
X006049Y013378D01*
X006062Y013411D01*
X006079Y013442D01*
X006100Y013470D01*
X006123Y013497D01*
X006150Y013520D01*
X006178Y013541D01*
X006209Y013558D01*
X006242Y013571D01*
X006276Y013581D01*
X006311Y013587D01*
X006346Y013589D01*
X006381Y013587D01*
X006416Y013581D01*
X006450Y013571D01*
X006483Y013558D01*
X006514Y013541D01*
X006542Y013520D01*
X006569Y013497D01*
X006592Y013470D01*
X006613Y013442D01*
X006630Y013411D01*
X006643Y013378D01*
X006653Y013344D01*
X006659Y013309D01*
X006661Y013274D01*
X006659Y013239D01*
X006653Y013204D01*
X006643Y013170D01*
X006630Y013137D01*
X006613Y013106D01*
X006592Y013078D01*
X006569Y013051D01*
X006542Y013028D01*
X006514Y013007D01*
X006483Y012990D01*
X006450Y012977D01*
X006416Y012967D01*
X006381Y012961D01*
X006346Y012959D01*
X006311Y012961D01*
X006276Y012967D01*
X006242Y012977D01*
X006209Y012990D01*
X006178Y013007D01*
X006150Y013028D01*
X006123Y013051D01*
X006100Y013078D01*
X006079Y013106D01*
X006062Y013137D01*
X006049Y013170D01*
X006039Y013204D01*
X006033Y013239D01*
X006031Y013274D01*
X008708Y012290D02*
X008710Y012340D01*
X008716Y012390D01*
X008726Y012439D01*
X008740Y012487D01*
X008757Y012534D01*
X008778Y012579D01*
X008803Y012623D01*
X008831Y012664D01*
X008863Y012703D01*
X008897Y012740D01*
X008934Y012774D01*
X008974Y012804D01*
X009016Y012831D01*
X009060Y012855D01*
X009106Y012876D01*
X009153Y012892D01*
X009201Y012905D01*
X009251Y012914D01*
X009300Y012919D01*
X009351Y012920D01*
X009401Y012917D01*
X009450Y012910D01*
X009499Y012899D01*
X009547Y012884D01*
X009593Y012866D01*
X009638Y012844D01*
X009681Y012818D01*
X009722Y012789D01*
X009761Y012757D01*
X009797Y012722D01*
X009829Y012684D01*
X009859Y012644D01*
X009886Y012601D01*
X009909Y012557D01*
X009928Y012511D01*
X009944Y012463D01*
X009956Y012414D01*
X009964Y012365D01*
X009968Y012315D01*
X009968Y012265D01*
X009964Y012215D01*
X009956Y012166D01*
X009944Y012117D01*
X009928Y012069D01*
X009909Y012023D01*
X009886Y011979D01*
X009859Y011936D01*
X009829Y011896D01*
X009797Y011858D01*
X009761Y011823D01*
X009722Y011791D01*
X009681Y011762D01*
X009638Y011736D01*
X009593Y011714D01*
X009547Y011696D01*
X009499Y011681D01*
X009450Y011670D01*
X009401Y011663D01*
X009351Y011660D01*
X009300Y011661D01*
X009251Y011666D01*
X009201Y011675D01*
X009153Y011688D01*
X009106Y011704D01*
X009060Y011725D01*
X009016Y011749D01*
X008974Y011776D01*
X008934Y011806D01*
X008897Y011840D01*
X008863Y011877D01*
X008831Y011916D01*
X008803Y011957D01*
X008778Y012001D01*
X008757Y012046D01*
X008740Y012093D01*
X008726Y012141D01*
X008716Y012190D01*
X008710Y012240D01*
X008708Y012290D01*
D11*
X008580Y010001D02*
X006830Y010001D01*
X006830Y008001D01*
X006080Y008001D01*
X006080Y010001D01*
X006830Y010001D01*
X008580Y010001D02*
X008580Y008001D01*
X006830Y008001D01*
X006830Y006501D02*
X006080Y006501D01*
X006080Y004501D01*
X006830Y004501D01*
X006830Y006501D01*
X008580Y006501D01*
X008580Y004501D01*
X006830Y004501D01*
X015830Y010051D02*
X015830Y011951D01*
X017330Y011951D01*
X017330Y010051D01*
X015830Y010051D01*
X014367Y013365D02*
X014367Y015137D01*
X017793Y015137D01*
X017793Y013365D01*
X014367Y013365D01*
X018380Y006226D02*
X020255Y006226D01*
X020255Y004751D01*
X018380Y004751D01*
X018380Y006226D01*
X040080Y006251D02*
X040080Y004251D01*
X041830Y004251D01*
X041830Y006251D01*
X042580Y006251D01*
X042580Y004251D01*
X041830Y004251D01*
X041830Y006251D02*
X040080Y006251D01*
X040080Y013001D02*
X040080Y015001D01*
X041830Y015001D01*
X041830Y013001D01*
X040080Y013001D01*
X041830Y013001D02*
X042580Y013001D01*
X042580Y015001D01*
X041830Y015001D01*
X041830Y019251D02*
X040080Y019251D01*
X040080Y021251D01*
X041830Y021251D01*
X041830Y019251D01*
X042580Y019251D01*
X042580Y021251D01*
X041830Y021251D01*
X039480Y021751D02*
X037480Y021751D01*
X037480Y023501D01*
X039480Y023501D01*
X039480Y021751D01*
X039480Y023501D02*
X039480Y024251D01*
X037480Y024251D01*
X037480Y023501D01*
X036300Y023845D02*
X033860Y023845D01*
X033860Y020656D01*
X036300Y020656D01*
X036300Y023845D01*
X015580Y023501D02*
X015580Y021751D01*
X009580Y021751D01*
X009580Y023501D01*
X015580Y023501D01*
X015580Y024251D01*
X009580Y024251D01*
X009580Y023501D01*
D12*
X016155Y011726D02*
X016157Y011746D01*
X016163Y011764D01*
X016172Y011782D01*
X016184Y011797D01*
X016199Y011809D01*
X016217Y011818D01*
X016235Y011824D01*
X016255Y011826D01*
X016275Y011824D01*
X016293Y011818D01*
X016311Y011809D01*
X016326Y011797D01*
X016338Y011782D01*
X016347Y011764D01*
X016353Y011746D01*
X016355Y011726D01*
X016353Y011706D01*
X016347Y011688D01*
X016338Y011670D01*
X016326Y011655D01*
X016311Y011643D01*
X016293Y011634D01*
X016275Y011628D01*
X016255Y011626D01*
X016235Y011628D01*
X016217Y011634D01*
X016199Y011643D01*
X016184Y011655D01*
X016172Y011670D01*
X016163Y011688D01*
X016157Y011706D01*
X016155Y011726D01*
X019905Y005801D02*
X019907Y005821D01*
X019913Y005839D01*
X019922Y005857D01*
X019934Y005872D01*
X019949Y005884D01*
X019967Y005893D01*
X019985Y005899D01*
X020005Y005901D01*
X020025Y005899D01*
X020043Y005893D01*
X020061Y005884D01*
X020076Y005872D01*
X020088Y005857D01*
X020097Y005839D01*
X020103Y005821D01*
X020105Y005801D01*
X020103Y005781D01*
X020097Y005763D01*
X020088Y005745D01*
X020076Y005730D01*
X020061Y005718D01*
X020043Y005709D01*
X020025Y005703D01*
X020005Y005701D01*
X019985Y005703D01*
X019967Y005709D01*
X019949Y005718D01*
X019934Y005730D01*
X019922Y005745D01*
X019913Y005763D01*
X019907Y005781D01*
X019905Y005801D01*
D13*
X020510Y005851D02*
X020510Y005671D01*
X020870Y005671D01*
X020750Y005671D02*
X020750Y005851D01*
X020690Y005911D01*
X020570Y005911D01*
X020510Y005851D01*
X020510Y006039D02*
X020510Y006279D01*
X020570Y006279D01*
X020810Y006039D01*
X020870Y006039D01*
X020870Y005911D02*
X020750Y005791D01*
X022165Y004893D02*
X022225Y004773D01*
X022345Y004653D01*
X022345Y004833D01*
X022405Y004893D01*
X022465Y004893D01*
X022525Y004833D01*
X022525Y004713D01*
X022465Y004653D01*
X022345Y004653D01*
X022285Y004524D02*
X022225Y004524D01*
X022165Y004464D01*
X022165Y004344D01*
X022225Y004284D01*
X022225Y004156D02*
X022345Y004156D01*
X022405Y004096D01*
X022405Y003916D01*
X022525Y003916D02*
X022165Y003916D01*
X022165Y004096D01*
X022225Y004156D01*
X022405Y004036D02*
X022525Y004156D01*
X022525Y004284D02*
X022285Y004524D01*
X022525Y004524D02*
X022525Y004284D01*
X020840Y004038D02*
X020840Y003918D01*
X020780Y003858D01*
X020780Y003729D02*
X020720Y003729D01*
X020660Y003669D01*
X020660Y003609D01*
X020660Y003669D02*
X020600Y003729D01*
X020540Y003729D01*
X020480Y003669D01*
X020480Y003549D01*
X020540Y003489D01*
X020540Y003361D02*
X020480Y003301D01*
X020480Y003181D01*
X020540Y003121D01*
X020780Y003121D01*
X020840Y003181D01*
X020840Y003301D01*
X020780Y003361D01*
X020780Y003489D02*
X020840Y003549D01*
X020840Y003669D01*
X020780Y003729D01*
X020540Y003858D02*
X020480Y003918D01*
X020480Y004038D01*
X020540Y004098D01*
X020600Y004098D01*
X020660Y004038D01*
X020720Y004098D01*
X020780Y004098D01*
X020840Y004038D01*
X020660Y004038D02*
X020660Y003978D01*
X018200Y004986D02*
X018200Y005106D01*
X018200Y005046D02*
X017840Y005046D01*
X017840Y004986D02*
X017840Y005106D01*
X017900Y005231D02*
X018140Y005231D01*
X018200Y005291D01*
X018200Y005412D01*
X018140Y005472D01*
X018140Y005600D02*
X018080Y005600D01*
X018020Y005660D01*
X018020Y005780D01*
X018080Y005840D01*
X018140Y005840D01*
X018200Y005780D01*
X018200Y005660D01*
X018140Y005600D01*
X018020Y005660D02*
X017960Y005600D01*
X017900Y005600D01*
X017840Y005660D01*
X017840Y005780D01*
X017900Y005840D01*
X017960Y005840D01*
X018020Y005780D01*
X017900Y005472D02*
X017840Y005412D01*
X017840Y005291D01*
X017900Y005231D01*
X017534Y005016D02*
X017534Y004776D01*
X017534Y004896D02*
X017173Y004896D01*
X017293Y004776D01*
X017233Y004647D02*
X017173Y004587D01*
X017173Y004407D01*
X017534Y004407D01*
X017534Y004587D01*
X017474Y004647D01*
X017233Y004647D01*
X016091Y005188D02*
X016091Y005368D01*
X016031Y005428D01*
X015791Y005428D01*
X015731Y005368D01*
X015731Y005188D01*
X016091Y005188D01*
X016091Y005556D02*
X015851Y005796D01*
X015791Y005796D01*
X015731Y005736D01*
X015731Y005616D01*
X015791Y005556D01*
X016091Y005556D02*
X016091Y005796D01*
X015618Y006971D02*
X015498Y006971D01*
X015438Y007031D01*
X015438Y007151D02*
X015558Y007211D01*
X015618Y007211D01*
X015679Y007151D01*
X015679Y007031D01*
X015618Y006971D01*
X015438Y007151D02*
X015438Y007331D01*
X015679Y007331D01*
X015310Y007271D02*
X015250Y007331D01*
X015130Y007331D01*
X015070Y007271D01*
X015070Y007031D01*
X015130Y006971D01*
X015250Y006971D01*
X015310Y007031D01*
X014172Y006921D02*
X013932Y006921D01*
X014052Y006921D02*
X014052Y007281D01*
X013932Y007161D01*
X013804Y007101D02*
X013744Y007041D01*
X013563Y007041D01*
X013563Y006921D02*
X013563Y007281D01*
X013744Y007281D01*
X013804Y007221D01*
X013804Y007101D01*
X013683Y007041D02*
X013804Y006921D01*
X012845Y007727D02*
X012845Y008087D01*
X012665Y007907D01*
X012905Y007907D01*
X012537Y007787D02*
X012537Y008027D01*
X012477Y008087D01*
X012296Y008087D01*
X012296Y007727D01*
X012477Y007727D01*
X012537Y007787D01*
X010905Y007787D02*
X010905Y007847D01*
X010845Y007907D01*
X010665Y007907D01*
X010665Y007787D01*
X010725Y007727D01*
X010845Y007727D01*
X010905Y007787D01*
X010785Y008027D02*
X010665Y007907D01*
X010785Y008027D02*
X010905Y008087D01*
X010537Y008027D02*
X010477Y008087D01*
X010296Y008087D01*
X010296Y007727D01*
X010477Y007727D01*
X010537Y007787D01*
X010537Y008027D01*
X009847Y007436D02*
X009787Y007496D01*
X009667Y007496D01*
X009607Y007436D01*
X009479Y007436D02*
X009479Y007376D01*
X009418Y007316D01*
X009479Y007256D01*
X009479Y007196D01*
X009418Y007136D01*
X009298Y007136D01*
X009238Y007196D01*
X009110Y007196D02*
X009050Y007136D01*
X008930Y007136D01*
X008870Y007196D01*
X008870Y007436D01*
X008930Y007496D01*
X009050Y007496D01*
X009110Y007436D01*
X009238Y007436D02*
X009298Y007496D01*
X009418Y007496D01*
X009479Y007436D01*
X009418Y007316D02*
X009358Y007316D01*
X009607Y007136D02*
X009847Y007376D01*
X009847Y007436D01*
X009847Y007136D02*
X009607Y007136D01*
X009325Y007961D02*
X009385Y008021D01*
X009385Y008141D01*
X009325Y008201D01*
X009085Y008201D01*
X009025Y008141D01*
X009025Y008021D01*
X009085Y007961D01*
X009325Y007961D01*
X009325Y008329D02*
X009385Y008389D01*
X009385Y008509D01*
X009325Y008569D01*
X009385Y008698D02*
X009385Y008878D01*
X009325Y008938D01*
X009085Y008938D01*
X009025Y008878D01*
X009025Y008698D01*
X009385Y008698D01*
X009085Y008569D02*
X009025Y008509D01*
X009025Y008389D01*
X009085Y008329D01*
X009325Y008329D01*
X009205Y009066D02*
X009205Y009306D01*
X009325Y009434D02*
X009385Y009494D01*
X009385Y009614D01*
X009325Y009674D01*
X009325Y009434D02*
X009085Y009434D01*
X009025Y009494D01*
X009025Y009614D01*
X009085Y009674D01*
X009025Y009803D02*
X009025Y010043D01*
X009025Y009923D02*
X009385Y009923D01*
X010356Y010267D02*
X010537Y010267D01*
X010597Y010327D01*
X010597Y010567D01*
X010537Y010627D01*
X010356Y010627D01*
X010356Y010267D01*
X010725Y010267D02*
X010725Y010327D01*
X010965Y010567D01*
X010965Y010627D01*
X010725Y010627D01*
X010785Y011356D02*
X010425Y011356D01*
X010425Y011536D01*
X010485Y011596D01*
X010605Y011596D01*
X010665Y011536D01*
X010665Y011356D01*
X010665Y011476D02*
X010785Y011596D01*
X010785Y011724D02*
X010425Y011964D01*
X010485Y012092D02*
X010425Y012153D01*
X010425Y012273D01*
X010485Y012333D01*
X010545Y012333D01*
X010785Y012092D01*
X010785Y012333D01*
X010785Y011964D02*
X010425Y011724D01*
X012236Y010627D02*
X012417Y010627D01*
X012477Y010567D01*
X012477Y010327D01*
X012417Y010267D01*
X012236Y010267D01*
X012236Y010627D01*
X012605Y010627D02*
X012605Y010447D01*
X012725Y010507D01*
X012785Y010507D01*
X012845Y010447D01*
X012845Y010327D01*
X012785Y010267D01*
X012665Y010267D01*
X012605Y010327D01*
X012605Y010627D02*
X012845Y010627D01*
X013750Y010534D02*
X013750Y010714D01*
X013810Y010774D01*
X013930Y010774D01*
X013990Y010714D01*
X013990Y010534D01*
X014110Y010534D02*
X013750Y010534D01*
X013750Y010406D02*
X013750Y010166D01*
X013750Y010286D02*
X014110Y010286D01*
X014485Y009616D02*
X014665Y009616D01*
X014725Y009556D01*
X014725Y009436D01*
X014665Y009376D01*
X014485Y009376D01*
X014485Y009256D02*
X014485Y009616D01*
X014605Y009376D02*
X014725Y009256D01*
X014853Y009256D02*
X015094Y009496D01*
X015094Y009556D01*
X015034Y009616D01*
X014913Y009616D01*
X014853Y009556D01*
X014853Y009256D02*
X015094Y009256D01*
X015222Y009256D02*
X015222Y009316D01*
X015462Y009556D01*
X015462Y009616D01*
X015222Y009616D01*
X016225Y009446D02*
X016345Y009446D01*
X016285Y009446D02*
X016285Y009806D01*
X016225Y009806D02*
X016345Y009806D01*
X016471Y009746D02*
X016471Y009506D01*
X016531Y009446D01*
X016651Y009446D01*
X016711Y009506D01*
X016839Y009506D02*
X016839Y009446D01*
X016839Y009506D02*
X017079Y009746D01*
X017079Y009806D01*
X016839Y009806D01*
X016711Y009746D02*
X016651Y009806D01*
X016531Y009806D01*
X016471Y009746D01*
X016410Y008571D02*
X016470Y008511D01*
X016470Y008391D01*
X016410Y008331D01*
X016230Y008331D01*
X016350Y008331D02*
X016470Y008211D01*
X016598Y008211D02*
X016839Y008451D01*
X016839Y008511D01*
X016778Y008571D01*
X016658Y008571D01*
X016598Y008511D01*
X016410Y008571D02*
X016230Y008571D01*
X016230Y008211D01*
X016598Y008211D02*
X016839Y008211D01*
X018675Y008216D02*
X018675Y008576D01*
X018855Y008576D01*
X018915Y008516D01*
X018915Y008396D01*
X018855Y008336D01*
X018675Y008336D01*
X018795Y008336D02*
X018915Y008216D01*
X019043Y008276D02*
X019103Y008216D01*
X019223Y008216D01*
X019284Y008276D01*
X019284Y008396D01*
X019223Y008456D01*
X019163Y008456D01*
X019043Y008396D01*
X019043Y008576D01*
X019284Y008576D01*
X019218Y009201D02*
X019279Y009261D01*
X019279Y009321D01*
X019218Y009381D01*
X019038Y009381D01*
X019038Y009261D01*
X019098Y009201D01*
X019218Y009201D01*
X019038Y009381D02*
X019158Y009501D01*
X019279Y009561D01*
X018910Y009501D02*
X018910Y009381D01*
X018850Y009321D01*
X018670Y009321D01*
X018790Y009321D02*
X018910Y009201D01*
X018670Y009201D02*
X018670Y009561D01*
X018850Y009561D01*
X018910Y009501D01*
X019565Y010451D02*
X019685Y010451D01*
X019745Y010511D01*
X019873Y010451D02*
X020114Y010451D01*
X019993Y010451D02*
X019993Y010811D01*
X019873Y010691D01*
X019745Y010751D02*
X019685Y010811D01*
X019565Y010811D01*
X019505Y010751D01*
X019505Y010511D01*
X019565Y010451D01*
X020242Y010451D02*
X020242Y010511D01*
X020482Y010751D01*
X020482Y010811D01*
X020242Y010811D01*
X018720Y011321D02*
X018360Y011321D01*
X018360Y011501D01*
X018420Y011561D01*
X018540Y011561D01*
X018600Y011501D01*
X018600Y011321D01*
X018600Y011441D02*
X018720Y011561D01*
X018720Y011689D02*
X018720Y011929D01*
X018720Y011809D02*
X018360Y011809D01*
X018480Y011689D01*
X018540Y012058D02*
X018540Y012238D01*
X018600Y012298D01*
X018660Y012298D01*
X018720Y012238D01*
X018720Y012118D01*
X018660Y012058D01*
X018540Y012058D01*
X018420Y012178D01*
X018360Y012298D01*
X020875Y012246D02*
X020875Y012606D01*
X021055Y012606D01*
X021115Y012546D01*
X021115Y012426D01*
X021055Y012366D01*
X020875Y012366D01*
X020995Y012366D02*
X021115Y012246D01*
X021243Y012246D02*
X021484Y012246D01*
X021363Y012246D02*
X021363Y012606D01*
X021243Y012486D01*
X021612Y012426D02*
X021732Y012486D01*
X021792Y012486D01*
X021852Y012426D01*
X021852Y012306D01*
X021792Y012246D01*
X021672Y012246D01*
X021612Y012306D01*
X021612Y012426D02*
X021612Y012606D01*
X021852Y012606D01*
X024400Y012621D02*
X024520Y012621D01*
X024460Y012621D02*
X024460Y012981D01*
X024400Y012981D02*
X024520Y012981D01*
X024646Y012921D02*
X024646Y012681D01*
X024706Y012621D01*
X024826Y012621D01*
X024886Y012681D01*
X025014Y012681D02*
X025074Y012621D01*
X025194Y012621D01*
X025254Y012681D01*
X025254Y012741D01*
X025194Y012801D01*
X025014Y012801D01*
X025014Y012681D01*
X025014Y012801D02*
X025134Y012921D01*
X025254Y012981D01*
X024886Y012921D02*
X024826Y012981D01*
X024706Y012981D01*
X024646Y012921D01*
X026450Y010734D02*
X026450Y010494D01*
X026810Y010494D01*
X026810Y010734D01*
X026630Y010614D02*
X026630Y010494D01*
X026690Y010366D02*
X026750Y010366D01*
X026810Y010306D01*
X026810Y010186D01*
X026750Y010126D01*
X026630Y010186D02*
X026630Y010306D01*
X026690Y010366D01*
X026510Y010366D02*
X026450Y010306D01*
X026450Y010186D01*
X026510Y010126D01*
X026570Y010126D01*
X026630Y010186D01*
X026630Y009998D02*
X026630Y009757D01*
X026570Y009757D02*
X026450Y009878D01*
X026570Y009998D01*
X026810Y009998D01*
X026810Y009757D02*
X026570Y009757D01*
X026630Y009629D02*
X026630Y009389D01*
X026630Y009261D02*
X026690Y009201D01*
X026690Y009021D01*
X026810Y009021D02*
X026450Y009021D01*
X026450Y009201D01*
X026510Y009261D01*
X026630Y009261D01*
X026810Y009389D02*
X026450Y009389D01*
X026450Y009629D02*
X026810Y009629D01*
X029445Y008821D02*
X029445Y008581D01*
X029505Y008521D01*
X029625Y008521D01*
X029685Y008581D01*
X029813Y008701D02*
X030054Y008701D01*
X030182Y008701D02*
X030362Y008701D01*
X030422Y008641D01*
X030422Y008581D01*
X030362Y008521D01*
X030182Y008521D01*
X030182Y008881D01*
X030362Y008881D01*
X030422Y008821D01*
X030422Y008761D01*
X030362Y008701D01*
X029994Y008521D02*
X029994Y008881D01*
X029813Y008701D01*
X029685Y008821D02*
X029625Y008881D01*
X029505Y008881D01*
X029445Y008821D01*
X031200Y007563D02*
X031200Y007443D01*
X031260Y007382D01*
X031320Y007382D01*
X031380Y007443D01*
X031380Y007623D01*
X031500Y007623D02*
X031260Y007623D01*
X031200Y007563D01*
X031500Y007623D02*
X031560Y007563D01*
X031560Y007443D01*
X031500Y007382D01*
X031560Y007254D02*
X031560Y007014D01*
X031560Y007134D02*
X031200Y007134D01*
X031320Y007014D01*
X031260Y006886D02*
X031200Y006826D01*
X031200Y006706D01*
X031260Y006646D01*
X031500Y006646D01*
X031560Y006706D01*
X031560Y006826D01*
X031500Y006886D01*
X032035Y007536D02*
X032275Y007536D01*
X032335Y007596D01*
X032335Y007716D01*
X032275Y007776D01*
X032335Y007904D02*
X032095Y008144D01*
X032035Y008144D01*
X031975Y008084D01*
X031975Y007964D01*
X032035Y007904D01*
X032035Y007776D02*
X031975Y007716D01*
X031975Y007596D01*
X032035Y007536D01*
X032335Y007904D02*
X032335Y008144D01*
X032275Y008273D02*
X032335Y008333D01*
X032335Y008453D01*
X032275Y008513D01*
X032215Y008513D01*
X032155Y008453D01*
X032155Y008273D01*
X032275Y008273D01*
X032155Y008273D02*
X032035Y008393D01*
X031975Y008513D01*
X033306Y008380D02*
X033306Y008259D01*
X033366Y008199D01*
X033606Y008199D01*
X033366Y008440D01*
X033606Y008440D01*
X033666Y008380D01*
X033666Y008259D01*
X033606Y008199D01*
X033666Y008071D02*
X033666Y007831D01*
X033666Y007951D02*
X033306Y007951D01*
X033426Y007831D01*
X033366Y007703D02*
X033306Y007643D01*
X033306Y007463D01*
X033666Y007463D01*
X033666Y007643D01*
X033606Y007703D01*
X033366Y007703D01*
X033306Y008380D02*
X033366Y008440D01*
X033398Y006631D02*
X033278Y006631D01*
X033218Y006571D01*
X033090Y006571D02*
X033090Y006451D01*
X033030Y006391D01*
X032850Y006391D01*
X032970Y006391D02*
X033090Y006271D01*
X033218Y006271D02*
X033459Y006511D01*
X033459Y006571D01*
X033398Y006631D01*
X033587Y006571D02*
X033647Y006631D01*
X033767Y006631D01*
X033827Y006571D01*
X033827Y006511D01*
X033767Y006451D01*
X033827Y006391D01*
X033827Y006331D01*
X033767Y006271D01*
X033647Y006271D01*
X033587Y006331D01*
X033459Y006271D02*
X033218Y006271D01*
X032850Y006271D02*
X032850Y006631D01*
X033030Y006631D01*
X033090Y006571D01*
X033707Y006451D02*
X033767Y006451D01*
X032660Y005757D02*
X032600Y005757D01*
X032360Y005998D01*
X032300Y005998D01*
X032300Y005757D01*
X032360Y005629D02*
X032300Y005569D01*
X032300Y005449D01*
X032360Y005389D01*
X032360Y005261D02*
X032300Y005201D01*
X032300Y005081D01*
X032360Y005021D01*
X032600Y005021D01*
X032660Y005081D01*
X032660Y005201D01*
X032600Y005261D01*
X032660Y005389D02*
X032420Y005629D01*
X032360Y005629D01*
X032660Y005629D02*
X032660Y005389D01*
X033181Y004320D02*
X033541Y004320D01*
X033541Y004440D02*
X033541Y004199D01*
X033541Y004071D02*
X033541Y003831D01*
X033541Y003951D02*
X033181Y003951D01*
X033301Y003831D01*
X033241Y003703D02*
X033181Y003643D01*
X033181Y003463D01*
X033541Y003463D01*
X033541Y003643D01*
X033481Y003703D01*
X033241Y003703D01*
X033301Y004199D02*
X033181Y004320D01*
X030137Y006018D02*
X030137Y006111D01*
X030090Y006158D01*
X029997Y006158D01*
X029950Y006111D01*
X029950Y006018D01*
X029997Y005971D01*
X030090Y005971D01*
X030137Y006018D01*
X028485Y005190D02*
X028425Y005250D01*
X028185Y005250D01*
X028125Y005190D01*
X028125Y005070D01*
X028185Y005010D01*
X028245Y005010D01*
X028305Y005070D01*
X028305Y005250D01*
X028485Y005190D02*
X028485Y005070D01*
X028425Y005010D01*
X028425Y004882D02*
X028485Y004822D01*
X028485Y004701D01*
X028425Y004641D01*
X028185Y004641D01*
X028125Y004701D01*
X028125Y004822D01*
X028185Y004882D01*
X028125Y004516D02*
X028125Y004396D01*
X028125Y004456D02*
X028485Y004456D01*
X028485Y004396D02*
X028485Y004516D01*
X027210Y005571D02*
X027210Y005691D01*
X027210Y005631D02*
X026850Y005631D01*
X026850Y005571D02*
X026850Y005691D01*
X026910Y005816D02*
X027150Y005816D01*
X027210Y005876D01*
X027210Y005997D01*
X027150Y006057D01*
X027150Y006185D02*
X027210Y006245D01*
X027210Y006365D01*
X027150Y006425D01*
X027030Y006425D01*
X026970Y006365D01*
X026970Y006305D01*
X027030Y006185D01*
X026850Y006185D01*
X026850Y006425D01*
X026910Y006057D02*
X026850Y005997D01*
X026850Y005876D01*
X026910Y005816D01*
X022099Y007876D02*
X021858Y007636D01*
X021858Y007576D01*
X021730Y007636D02*
X021670Y007576D01*
X021550Y007576D01*
X021490Y007636D01*
X021490Y007876D01*
X021550Y007936D01*
X021670Y007936D01*
X021730Y007876D01*
X021858Y007936D02*
X022099Y007936D01*
X022099Y007876D01*
X022075Y008646D02*
X022015Y008706D01*
X022015Y008826D01*
X022075Y008886D01*
X022135Y009014D02*
X022015Y009134D01*
X022375Y009134D01*
X022375Y009014D02*
X022375Y009254D01*
X022375Y009382D02*
X022135Y009623D01*
X022075Y009623D01*
X022015Y009563D01*
X022015Y009443D01*
X022075Y009382D01*
X022375Y009382D02*
X022375Y009623D01*
X022315Y008886D02*
X022375Y008826D01*
X022375Y008706D01*
X022315Y008646D01*
X022075Y008646D01*
X015597Y012431D02*
X015597Y012491D01*
X015537Y012551D01*
X015357Y012551D01*
X015357Y012431D01*
X015417Y012371D01*
X015537Y012371D01*
X015597Y012431D01*
X015477Y012671D02*
X015357Y012551D01*
X015477Y012671D02*
X015597Y012731D01*
X015229Y012371D02*
X014988Y012371D01*
X015108Y012371D02*
X015108Y012731D01*
X014988Y012611D01*
X014860Y012671D02*
X014800Y012731D01*
X014680Y012731D01*
X014620Y012671D01*
X014620Y012431D01*
X014680Y012371D01*
X014800Y012371D01*
X014860Y012431D01*
X013395Y012821D02*
X013395Y012941D01*
X013335Y013001D01*
X013395Y013129D02*
X013395Y013369D01*
X013395Y013249D02*
X013035Y013249D01*
X013155Y013129D01*
X013095Y013001D02*
X013035Y012941D01*
X013035Y012821D01*
X013095Y012761D01*
X013335Y012761D01*
X013395Y012821D01*
X013335Y013497D02*
X013395Y013558D01*
X013395Y013678D01*
X013335Y013738D01*
X013215Y013738D01*
X013155Y013678D01*
X013155Y013618D01*
X013215Y013497D01*
X013035Y013497D01*
X013035Y013738D01*
X012452Y013921D02*
X012452Y014281D01*
X012272Y014101D01*
X012512Y014101D01*
X012144Y013921D02*
X011903Y013921D01*
X012023Y013921D02*
X012023Y014281D01*
X011903Y014161D01*
X011775Y014221D02*
X011715Y014281D01*
X011595Y014281D01*
X011535Y014221D01*
X011535Y013981D01*
X011595Y013921D01*
X011715Y013921D01*
X011775Y013981D01*
X010452Y013891D02*
X010212Y013891D01*
X010332Y013891D02*
X010332Y014251D01*
X010212Y014131D01*
X010084Y013891D02*
X009843Y013891D01*
X009963Y013891D02*
X009963Y014251D01*
X009843Y014131D01*
X009715Y014191D02*
X009715Y014071D01*
X009655Y014011D01*
X009475Y014011D01*
X009475Y013891D02*
X009475Y014251D01*
X009655Y014251D01*
X009715Y014191D01*
X009595Y014011D02*
X009715Y013891D01*
X006984Y014751D02*
X006743Y014751D01*
X006923Y014931D01*
X006923Y014571D01*
X006615Y014631D02*
X006555Y014571D01*
X006435Y014571D01*
X006375Y014631D01*
X006375Y014871D01*
X006435Y014931D01*
X006555Y014931D01*
X006615Y014871D01*
X009625Y015771D02*
X009625Y016131D01*
X009805Y016131D01*
X009865Y016071D01*
X009865Y015951D01*
X009805Y015891D01*
X009625Y015891D01*
X009745Y015891D02*
X009865Y015771D01*
X009993Y015771D02*
X010234Y016131D01*
X010362Y016011D02*
X010482Y016131D01*
X010482Y015771D01*
X010362Y015771D02*
X010602Y015771D01*
X010234Y015771D02*
X009993Y016131D01*
X012050Y016101D02*
X012050Y015981D01*
X012110Y015921D01*
X012350Y015921D01*
X012410Y015981D01*
X012410Y016101D01*
X012350Y016161D01*
X012350Y016289D02*
X012290Y016289D01*
X012230Y016349D01*
X012230Y016469D01*
X012290Y016529D01*
X012350Y016529D01*
X012410Y016469D01*
X012410Y016349D01*
X012350Y016289D01*
X012230Y016349D02*
X012170Y016289D01*
X012110Y016289D01*
X012050Y016349D01*
X012050Y016469D01*
X012110Y016529D01*
X012170Y016529D01*
X012230Y016469D01*
X012110Y016161D02*
X012050Y016101D01*
X012945Y015981D02*
X012945Y015621D01*
X012945Y015741D02*
X013125Y015741D01*
X013185Y015801D01*
X013185Y015921D01*
X013125Y015981D01*
X012945Y015981D01*
X013065Y015741D02*
X013185Y015621D01*
X013313Y015621D02*
X013554Y015861D01*
X013554Y015921D01*
X013494Y015981D01*
X013373Y015981D01*
X013313Y015921D01*
X013313Y015621D02*
X013554Y015621D01*
X013682Y015621D02*
X013922Y015621D01*
X013802Y015621D02*
X013802Y015981D01*
X013682Y015861D01*
X016150Y015731D02*
X016270Y015731D01*
X016210Y015731D02*
X016210Y015371D01*
X016150Y015371D02*
X016270Y015371D01*
X016396Y015431D02*
X016456Y015371D01*
X016576Y015371D01*
X016636Y015431D01*
X016764Y015551D02*
X017004Y015551D01*
X016944Y015371D02*
X016944Y015731D01*
X016764Y015551D01*
X016636Y015671D02*
X016576Y015731D01*
X016456Y015731D01*
X016396Y015671D01*
X016396Y015431D01*
X018018Y015086D02*
X018078Y015146D01*
X018318Y014906D01*
X018378Y014966D01*
X018378Y015086D01*
X018318Y015146D01*
X018078Y015146D01*
X018018Y015086D02*
X018018Y014966D01*
X018078Y014906D01*
X018318Y014906D01*
X018378Y014778D02*
X018378Y014538D01*
X018138Y014778D01*
X018078Y014778D01*
X018018Y014718D01*
X018018Y014598D01*
X018078Y014538D01*
X018078Y014409D02*
X018198Y014409D01*
X018258Y014349D01*
X018258Y014169D01*
X018378Y014169D02*
X018018Y014169D01*
X018018Y014349D01*
X018078Y014409D01*
X018258Y014289D02*
X018378Y014409D01*
X020975Y016216D02*
X021035Y016156D01*
X021155Y016156D01*
X021215Y016216D01*
X021343Y016156D02*
X021584Y016156D01*
X021463Y016156D02*
X021463Y016516D01*
X021343Y016396D01*
X021215Y016456D02*
X021155Y016516D01*
X021035Y016516D01*
X020975Y016456D01*
X020975Y016216D01*
X021712Y016216D02*
X021952Y016456D01*
X021952Y016216D01*
X021892Y016156D01*
X021772Y016156D01*
X021712Y016216D01*
X021712Y016456D01*
X021772Y016516D01*
X021892Y016516D01*
X021952Y016456D01*
X022007Y017051D02*
X022247Y017291D01*
X022247Y017351D01*
X022187Y017411D01*
X022067Y017411D01*
X022007Y017351D01*
X021879Y017351D02*
X021819Y017411D01*
X021698Y017411D01*
X021638Y017351D01*
X021638Y017111D01*
X021698Y017051D01*
X021819Y017051D01*
X021879Y017111D01*
X022007Y017051D02*
X022247Y017051D01*
X021513Y017051D02*
X021393Y017051D01*
X021453Y017051D02*
X021453Y017411D01*
X021393Y017411D02*
X021513Y017411D01*
X020710Y018471D02*
X020350Y018471D01*
X020350Y018651D01*
X020410Y018711D01*
X020530Y018711D01*
X020590Y018651D01*
X020590Y018471D01*
X020590Y018591D02*
X020710Y018711D01*
X020710Y018839D02*
X020710Y019079D01*
X020710Y018959D02*
X020350Y018959D01*
X020470Y018839D01*
X020410Y019207D02*
X020350Y019268D01*
X020350Y019388D01*
X020410Y019448D01*
X020470Y019448D01*
X020530Y019388D01*
X020590Y019448D01*
X020650Y019448D01*
X020710Y019388D01*
X020710Y019268D01*
X020650Y019207D01*
X020530Y019328D02*
X020530Y019388D01*
X019577Y020121D02*
X019337Y020121D01*
X019457Y020121D02*
X019457Y020481D01*
X019337Y020361D01*
X019209Y020121D02*
X018968Y020121D01*
X019088Y020121D02*
X019088Y020481D01*
X018968Y020361D01*
X018840Y020421D02*
X018780Y020481D01*
X018660Y020481D01*
X018600Y020421D01*
X018600Y020181D01*
X018660Y020121D01*
X018780Y020121D01*
X018840Y020181D01*
X018550Y020771D02*
X018430Y020891D01*
X018490Y020891D02*
X018310Y020891D01*
X018310Y020771D02*
X018310Y021131D01*
X018490Y021131D01*
X018550Y021071D01*
X018550Y020951D01*
X018490Y020891D01*
X018182Y020771D02*
X018182Y021131D01*
X017942Y021131D02*
X017942Y020771D01*
X018062Y020891D01*
X018182Y020771D01*
X017813Y020951D02*
X017753Y020891D01*
X017573Y020891D01*
X017573Y020771D02*
X017573Y021131D01*
X017753Y021131D01*
X017813Y021071D01*
X017813Y020951D01*
X017445Y020951D02*
X017205Y020951D01*
X017077Y020831D02*
X017077Y021071D01*
X017017Y021131D01*
X016837Y021131D01*
X016837Y020771D01*
X017017Y020771D01*
X017077Y020831D01*
X016709Y020771D02*
X016468Y020771D01*
X016468Y021131D01*
X016709Y021131D01*
X016588Y020951D02*
X016468Y020951D01*
X016340Y020771D02*
X016100Y020771D01*
X016100Y021131D01*
X016180Y020256D02*
X016000Y020256D01*
X016000Y019896D01*
X016000Y020016D02*
X016180Y020016D01*
X016240Y020076D01*
X016240Y020196D01*
X016180Y020256D01*
X016368Y020196D02*
X016368Y020136D01*
X016428Y020076D01*
X016548Y020076D01*
X016609Y020016D01*
X016609Y019956D01*
X016548Y019896D01*
X016428Y019896D01*
X016368Y019956D01*
X016368Y020016D01*
X016428Y020076D01*
X016548Y020076D02*
X016609Y020136D01*
X016609Y020196D01*
X016548Y020256D01*
X016428Y020256D01*
X016368Y020196D01*
X016120Y020016D02*
X016240Y019896D01*
X014652Y020381D02*
X014412Y020381D01*
X014592Y020561D01*
X014592Y020201D01*
X014284Y020201D02*
X014043Y020201D01*
X014163Y020201D02*
X014163Y020561D01*
X014043Y020441D01*
X013915Y020501D02*
X013915Y020381D01*
X013855Y020321D01*
X013675Y020321D01*
X013675Y020201D02*
X013675Y020561D01*
X013855Y020561D01*
X013915Y020501D01*
X013795Y020321D02*
X013915Y020201D01*
X012452Y020291D02*
X012452Y020531D01*
X012392Y020591D01*
X012272Y020591D01*
X012212Y020531D01*
X012212Y020471D01*
X012272Y020411D01*
X012452Y020411D01*
X012452Y020291D02*
X012392Y020231D01*
X012272Y020231D01*
X012212Y020291D01*
X012084Y020231D02*
X011963Y020351D01*
X012024Y020351D02*
X011843Y020351D01*
X011843Y020231D02*
X011843Y020591D01*
X012024Y020591D01*
X012084Y020531D01*
X012084Y020411D01*
X012024Y020351D01*
X011625Y019993D02*
X011685Y019933D01*
X011685Y019813D01*
X011625Y019753D01*
X011385Y019993D01*
X011625Y019993D01*
X011385Y019993D02*
X011325Y019933D01*
X011325Y019813D01*
X011385Y019753D01*
X011625Y019753D01*
X011685Y019624D02*
X011685Y019384D01*
X011685Y019504D02*
X011325Y019504D01*
X011445Y019384D01*
X011505Y019256D02*
X011565Y019196D01*
X011565Y019016D01*
X011685Y019016D02*
X011325Y019016D01*
X011325Y019196D01*
X011385Y019256D01*
X011505Y019256D01*
X011565Y019136D02*
X011685Y019256D01*
X012306Y018880D02*
X012366Y018940D01*
X012426Y018940D01*
X012486Y018880D01*
X012546Y018940D01*
X012606Y018940D01*
X012666Y018880D01*
X012666Y018759D01*
X012606Y018699D01*
X012666Y018571D02*
X012666Y018331D01*
X012666Y018451D02*
X012306Y018451D01*
X012426Y018331D01*
X012366Y018203D02*
X012306Y018143D01*
X012306Y017963D01*
X012666Y017963D01*
X012666Y018143D01*
X012606Y018203D01*
X012366Y018203D01*
X012366Y018699D02*
X012306Y018759D01*
X012306Y018880D01*
X012486Y018880D02*
X012486Y018820D01*
X014306Y018884D02*
X014366Y018824D01*
X014306Y018884D02*
X014306Y019005D01*
X014366Y019065D01*
X014426Y019065D01*
X014666Y018824D01*
X014666Y019065D01*
X014666Y018696D02*
X014666Y018456D01*
X014666Y018576D02*
X014306Y018576D01*
X014426Y018456D01*
X014366Y018328D02*
X014306Y018268D01*
X014306Y018088D01*
X014666Y018088D01*
X014666Y018268D01*
X014606Y018328D01*
X014366Y018328D01*
X018583Y018136D02*
X018583Y018016D01*
X018643Y017956D01*
X018643Y017827D02*
X018583Y017767D01*
X018583Y017587D01*
X018944Y017587D01*
X018944Y017767D01*
X018884Y017827D01*
X018643Y017827D01*
X018884Y017956D02*
X018944Y018016D01*
X018944Y018136D01*
X018884Y018196D01*
X018824Y018196D01*
X018764Y018136D01*
X018764Y018076D01*
X018764Y018136D02*
X018703Y018196D01*
X018643Y018196D01*
X018583Y018136D01*
X018585Y022166D02*
X018225Y022166D01*
X018225Y022346D01*
X018285Y022406D01*
X018405Y022406D01*
X018465Y022346D01*
X018465Y022166D01*
X018465Y022286D02*
X018585Y022406D01*
X018585Y022534D02*
X018345Y022774D01*
X018285Y022774D01*
X018225Y022714D01*
X018225Y022594D01*
X018285Y022534D01*
X018585Y022534D02*
X018585Y022774D01*
X018525Y022903D02*
X018585Y022963D01*
X018585Y023083D01*
X018525Y023143D01*
X018405Y023143D01*
X018345Y023083D01*
X018345Y023023D01*
X018405Y022903D01*
X018225Y022903D01*
X018225Y023143D01*
X018598Y023521D02*
X018719Y023521D01*
X018779Y023581D01*
X018907Y023521D02*
X019147Y023761D01*
X019147Y023821D01*
X019087Y023881D01*
X018967Y023881D01*
X018907Y023821D01*
X018779Y023821D02*
X018719Y023881D01*
X018598Y023881D01*
X018538Y023821D01*
X018538Y023581D01*
X018598Y023521D01*
X018907Y023521D02*
X019147Y023521D01*
X022163Y023556D02*
X022223Y023496D01*
X022344Y023496D01*
X022404Y023556D01*
X022532Y023556D02*
X022592Y023496D01*
X022712Y023496D01*
X022772Y023556D01*
X022772Y023616D01*
X022712Y023676D01*
X022652Y023676D01*
X022712Y023676D02*
X022772Y023736D01*
X022772Y023796D01*
X022712Y023856D01*
X022592Y023856D01*
X022532Y023796D01*
X022404Y023796D02*
X022344Y023856D01*
X022223Y023856D01*
X022163Y023796D01*
X022163Y023556D01*
X025688Y023581D02*
X025748Y023521D01*
X025869Y023521D01*
X025929Y023581D01*
X026057Y023521D02*
X026297Y023521D01*
X026177Y023521D02*
X026177Y023881D01*
X026057Y023761D01*
X025929Y023821D02*
X025869Y023881D01*
X025748Y023881D01*
X025688Y023821D01*
X025688Y023581D01*
X029243Y021546D02*
X029423Y021546D01*
X029483Y021485D01*
X029483Y021365D01*
X029423Y021305D01*
X029243Y021305D01*
X029363Y021305D02*
X029483Y021185D01*
X029611Y021245D02*
X029671Y021185D01*
X029791Y021185D01*
X029851Y021245D01*
X029851Y021305D01*
X029791Y021365D01*
X029731Y021365D01*
X029791Y021365D02*
X029851Y021425D01*
X029851Y021485D01*
X029791Y021546D01*
X029671Y021546D01*
X029611Y021485D01*
X029979Y021485D02*
X029979Y021245D01*
X030219Y021485D01*
X030219Y021245D01*
X030159Y021185D01*
X030039Y021185D01*
X029979Y021245D01*
X029979Y021485D02*
X030039Y021546D01*
X030159Y021546D01*
X030219Y021485D01*
X029243Y021546D02*
X029243Y021185D01*
X029275Y019243D02*
X029335Y019183D01*
X029335Y019063D01*
X029275Y019003D01*
X029155Y019003D02*
X029095Y019123D01*
X029095Y019183D01*
X029155Y019243D01*
X029275Y019243D01*
X029155Y019003D02*
X028975Y019003D01*
X028975Y019243D01*
X029035Y018874D02*
X028975Y018814D01*
X028975Y018694D01*
X029035Y018634D01*
X029035Y018506D02*
X028975Y018446D01*
X028975Y018326D01*
X029035Y018266D01*
X029275Y018266D01*
X029335Y018326D01*
X029335Y018446D01*
X029275Y018506D01*
X029335Y018634D02*
X029095Y018874D01*
X029035Y018874D01*
X029335Y018874D02*
X029335Y018634D01*
X029285Y018081D02*
X029225Y018021D01*
X029225Y017781D01*
X029285Y017721D01*
X029405Y017721D01*
X029465Y017781D01*
X029593Y017901D02*
X029834Y017901D01*
X029962Y017901D02*
X030202Y017901D01*
X030202Y017961D02*
X030202Y017721D01*
X030202Y017961D02*
X030082Y018081D01*
X029962Y017961D01*
X029962Y017721D01*
X029773Y017721D02*
X029773Y018081D01*
X029593Y017901D01*
X029465Y018021D02*
X029405Y018081D01*
X029285Y018081D01*
X029017Y017481D02*
X028837Y017301D01*
X029077Y017301D01*
X029017Y017121D02*
X029017Y017481D01*
X028709Y017421D02*
X028709Y017361D01*
X028648Y017301D01*
X028709Y017241D01*
X028709Y017181D01*
X028648Y017121D01*
X028528Y017121D01*
X028468Y017181D01*
X028340Y017181D02*
X028280Y017121D01*
X028160Y017121D01*
X028100Y017181D01*
X028100Y017421D01*
X028160Y017481D01*
X028280Y017481D01*
X028340Y017421D01*
X028468Y017421D02*
X028528Y017481D01*
X028648Y017481D01*
X028709Y017421D01*
X028648Y017301D02*
X028588Y017301D01*
X028613Y016306D02*
X028493Y016186D01*
X028365Y016246D02*
X028305Y016306D01*
X028185Y016306D01*
X028125Y016246D01*
X028125Y016006D01*
X028185Y015946D01*
X028305Y015946D01*
X028365Y016006D01*
X028493Y015946D02*
X028734Y015946D01*
X028613Y015946D02*
X028613Y016306D01*
X028862Y016246D02*
X028922Y016306D01*
X029042Y016306D01*
X029102Y016246D01*
X029102Y016186D01*
X029042Y016126D01*
X029102Y016066D01*
X029102Y016006D01*
X029042Y015946D01*
X028922Y015946D01*
X028862Y016006D01*
X028982Y016126D02*
X029042Y016126D01*
X028475Y014893D02*
X028535Y014833D01*
X028535Y014713D01*
X028475Y014653D01*
X028235Y014893D01*
X028475Y014893D01*
X028475Y014653D02*
X028235Y014653D01*
X028175Y014713D01*
X028175Y014833D01*
X028235Y014893D01*
X028535Y014525D02*
X028535Y014285D01*
X028535Y014405D02*
X028175Y014405D01*
X028295Y014285D01*
X028235Y014157D02*
X028175Y014097D01*
X028175Y013976D01*
X028235Y013916D01*
X028475Y013916D01*
X028535Y013976D01*
X028535Y014097D01*
X028475Y014157D01*
X028535Y013791D02*
X028535Y013671D01*
X028535Y013731D02*
X028175Y013731D01*
X028175Y013671D02*
X028175Y013791D01*
X029950Y014718D02*
X029997Y014671D01*
X030090Y014671D01*
X030137Y014718D01*
X030137Y014811D01*
X030090Y014858D01*
X029997Y014858D01*
X029950Y014811D01*
X029950Y014718D01*
X031175Y015556D02*
X031235Y015496D01*
X031475Y015496D01*
X031535Y015556D01*
X031535Y015676D01*
X031475Y015736D01*
X031475Y015864D02*
X031535Y015924D01*
X031535Y016044D01*
X031475Y016104D01*
X031235Y016104D01*
X031175Y016044D01*
X031175Y015924D01*
X031235Y015864D01*
X031295Y015864D01*
X031355Y015924D01*
X031355Y016104D01*
X031235Y015736D02*
X031175Y015676D01*
X031175Y015556D01*
X032035Y016371D02*
X031975Y016431D01*
X031975Y016551D01*
X032035Y016611D01*
X032095Y016739D02*
X031975Y016859D01*
X032335Y016859D01*
X032335Y016739D02*
X032335Y016979D01*
X032275Y017107D02*
X032215Y017107D01*
X032155Y017168D01*
X032155Y017288D01*
X032215Y017348D01*
X032275Y017348D01*
X032335Y017288D01*
X032335Y017168D01*
X032275Y017107D01*
X032155Y017168D02*
X032095Y017107D01*
X032035Y017107D01*
X031975Y017168D01*
X031975Y017288D01*
X032035Y017348D01*
X032095Y017348D01*
X032155Y017288D01*
X033306Y016761D02*
X033366Y016821D01*
X033426Y016821D01*
X033486Y016761D01*
X033486Y016641D01*
X033426Y016581D01*
X033366Y016581D01*
X033306Y016641D01*
X033306Y016761D01*
X033486Y016761D02*
X033546Y016821D01*
X033606Y016821D01*
X033666Y016761D01*
X033666Y016641D01*
X033606Y016581D01*
X033546Y016581D01*
X033486Y016641D01*
X033366Y016453D02*
X033306Y016393D01*
X033306Y016213D01*
X033666Y016213D01*
X033666Y016393D01*
X033606Y016453D01*
X033366Y016453D01*
X032335Y016431D02*
X032335Y016551D01*
X032275Y016611D01*
X032335Y016431D02*
X032275Y016371D01*
X032035Y016371D01*
X032950Y015381D02*
X033130Y015381D01*
X033190Y015321D01*
X033190Y015201D01*
X033130Y015141D01*
X032950Y015141D01*
X033070Y015141D02*
X033190Y015021D01*
X033318Y015021D02*
X033559Y015021D01*
X033438Y015021D02*
X033438Y015381D01*
X033318Y015261D01*
X033687Y015261D02*
X033687Y015321D01*
X033747Y015381D01*
X033867Y015381D01*
X033927Y015321D01*
X033927Y015261D01*
X033867Y015201D01*
X033747Y015201D01*
X033687Y015261D01*
X033747Y015201D02*
X033687Y015141D01*
X033687Y015081D01*
X033747Y015021D01*
X033867Y015021D01*
X033927Y015081D01*
X033927Y015141D01*
X033867Y015201D01*
X032950Y015021D02*
X032950Y015381D01*
X036670Y015406D02*
X036730Y015346D01*
X036850Y015346D01*
X036910Y015406D01*
X037038Y015346D02*
X037279Y015586D01*
X037279Y015646D01*
X037218Y015706D01*
X037098Y015706D01*
X037038Y015646D01*
X036910Y015646D02*
X036850Y015706D01*
X036730Y015706D01*
X036670Y015646D01*
X036670Y015406D01*
X037038Y015346D02*
X037279Y015346D01*
X037407Y015406D02*
X037467Y015346D01*
X037587Y015346D01*
X037647Y015406D01*
X037647Y015466D01*
X037587Y015526D01*
X037527Y015526D01*
X037587Y015526D02*
X037647Y015586D01*
X037647Y015646D01*
X037587Y015706D01*
X037467Y015706D01*
X037407Y015646D01*
X038325Y015356D02*
X038325Y015056D01*
X038385Y014996D01*
X038505Y014996D01*
X038565Y015056D01*
X038565Y015356D01*
X038693Y015176D02*
X038934Y015176D01*
X038873Y014996D02*
X038873Y015356D01*
X038693Y015176D01*
X039725Y015656D02*
X039785Y015596D01*
X039905Y015596D01*
X039965Y015656D01*
X040093Y015596D02*
X040334Y015836D01*
X040334Y015896D01*
X040273Y015956D01*
X040153Y015956D01*
X040093Y015896D01*
X039965Y015896D02*
X039905Y015956D01*
X039785Y015956D01*
X039725Y015896D01*
X039725Y015656D01*
X040093Y015596D02*
X040334Y015596D01*
X040462Y015596D02*
X040702Y015596D01*
X040582Y015596D02*
X040582Y015956D01*
X040462Y015836D01*
X041350Y015896D02*
X041350Y015656D01*
X041410Y015596D01*
X041530Y015596D01*
X041590Y015656D01*
X041718Y015596D02*
X041959Y015836D01*
X041959Y015896D01*
X041898Y015956D01*
X041778Y015956D01*
X041718Y015896D01*
X041590Y015896D02*
X041530Y015956D01*
X041410Y015956D01*
X041350Y015896D01*
X041718Y015596D02*
X041959Y015596D01*
X042087Y015776D02*
X042327Y015776D01*
X042267Y015596D02*
X042267Y015956D01*
X042087Y015776D01*
X040867Y018546D02*
X040927Y018606D01*
X040927Y018846D01*
X040867Y018906D01*
X040747Y018906D01*
X040687Y018846D01*
X040687Y018786D01*
X040747Y018726D01*
X040927Y018726D01*
X040867Y018546D02*
X040747Y018546D01*
X040687Y018606D01*
X040559Y018546D02*
X040318Y018546D01*
X040438Y018546D02*
X040438Y018906D01*
X040318Y018786D01*
X040190Y018726D02*
X040130Y018666D01*
X039950Y018666D01*
X040070Y018666D02*
X040190Y018546D01*
X040190Y018726D02*
X040190Y018846D01*
X040130Y018906D01*
X039950Y018906D01*
X039950Y018546D01*
X038934Y019056D02*
X038873Y018996D01*
X038753Y018996D01*
X038693Y019056D01*
X038565Y019056D02*
X038565Y019356D01*
X038693Y019296D02*
X038753Y019356D01*
X038873Y019356D01*
X038934Y019296D01*
X038934Y019236D01*
X038873Y019176D01*
X038934Y019116D01*
X038934Y019056D01*
X038873Y019176D02*
X038813Y019176D01*
X038565Y019056D02*
X038505Y018996D01*
X038385Y018996D01*
X038325Y019056D01*
X038325Y019356D01*
X037712Y019471D02*
X037472Y019471D01*
X037712Y019711D01*
X037712Y019771D01*
X037652Y019831D01*
X037532Y019831D01*
X037472Y019771D01*
X037344Y019771D02*
X037283Y019831D01*
X037163Y019831D01*
X037103Y019771D01*
X036975Y019771D02*
X036915Y019831D01*
X036795Y019831D01*
X036735Y019771D01*
X036735Y019531D01*
X036795Y019471D01*
X036915Y019471D01*
X036975Y019531D01*
X037103Y019471D02*
X037344Y019711D01*
X037344Y019771D01*
X037344Y019471D02*
X037103Y019471D01*
X039275Y019476D02*
X039275Y019356D01*
X039335Y019296D01*
X039275Y019476D02*
X039335Y019536D01*
X039395Y019536D01*
X039635Y019296D01*
X039635Y019536D01*
X039575Y019664D02*
X039335Y019664D01*
X039275Y019724D01*
X039275Y019844D01*
X039335Y019904D01*
X039575Y019664D01*
X039635Y019724D01*
X039635Y019844D01*
X039575Y019904D01*
X039335Y019904D01*
X039275Y020032D02*
X039515Y020032D01*
X039635Y020153D01*
X039515Y020273D01*
X039275Y020273D01*
X039395Y020401D02*
X039275Y020521D01*
X039395Y020641D01*
X039635Y020641D01*
X039575Y020769D02*
X039335Y020769D01*
X039275Y020829D01*
X039275Y020949D01*
X039335Y021009D01*
X039575Y021009D02*
X039635Y020949D01*
X039635Y020829D01*
X039575Y020769D01*
X039455Y020641D02*
X039455Y020401D01*
X039395Y020401D02*
X039635Y020401D01*
X039630Y022046D02*
X039570Y022106D01*
X039570Y022226D01*
X039630Y022286D01*
X039690Y022286D01*
X039930Y022046D01*
X039930Y022286D01*
X039750Y022414D02*
X039750Y022654D01*
X039810Y022782D02*
X039570Y022782D01*
X039570Y022594D02*
X039750Y022414D01*
X039930Y022594D02*
X039570Y022594D01*
X039810Y022782D02*
X039930Y022903D01*
X039810Y023023D01*
X039570Y023023D01*
X039570Y023151D02*
X039570Y023331D01*
X039630Y023391D01*
X039870Y023391D01*
X039930Y023331D01*
X039930Y023151D01*
X039570Y023151D01*
X039630Y023519D02*
X039870Y023519D01*
X039930Y023579D01*
X039930Y023699D01*
X039870Y023759D01*
X039630Y023759D02*
X039570Y023699D01*
X039570Y023579D01*
X039630Y023519D01*
X034352Y020481D02*
X034352Y020121D01*
X034232Y020121D02*
X034472Y020121D01*
X034232Y020361D02*
X034352Y020481D01*
X034104Y020421D02*
X034104Y020361D01*
X034044Y020301D01*
X033863Y020301D01*
X033863Y020121D02*
X034044Y020121D01*
X034104Y020181D01*
X034104Y020241D01*
X034044Y020301D01*
X034104Y020421D02*
X034044Y020481D01*
X033863Y020481D01*
X033863Y020121D01*
X033867Y019381D02*
X033747Y019381D01*
X033687Y019321D01*
X033867Y019381D02*
X033927Y019321D01*
X033927Y019261D01*
X033687Y019021D01*
X033927Y019021D01*
X033559Y019021D02*
X033318Y019021D01*
X033438Y019021D02*
X033438Y019381D01*
X033318Y019261D01*
X033190Y019201D02*
X033130Y019141D01*
X032950Y019141D01*
X033070Y019141D02*
X033190Y019021D01*
X033190Y019201D02*
X033190Y019321D01*
X033130Y019381D01*
X032950Y019381D01*
X032950Y019021D01*
X026360Y019023D02*
X026000Y019023D01*
X026120Y018903D01*
X026360Y018903D02*
X026360Y019143D01*
X026360Y018775D02*
X026360Y018535D01*
X026360Y018655D02*
X026000Y018655D01*
X026120Y018535D01*
X026060Y018407D02*
X026000Y018347D01*
X026000Y018226D01*
X026060Y018166D01*
X026300Y018166D01*
X026360Y018226D01*
X026360Y018347D01*
X026300Y018407D01*
X026360Y018041D02*
X026360Y017921D01*
X026360Y017981D02*
X026000Y017981D01*
X026000Y017921D02*
X026000Y018041D01*
X033075Y013188D02*
X033135Y013248D01*
X033375Y013007D01*
X033435Y013068D01*
X033435Y013188D01*
X033375Y013248D01*
X033135Y013248D01*
X033075Y013188D02*
X033075Y013068D01*
X033135Y013007D01*
X033375Y013007D01*
X033435Y012879D02*
X033435Y012639D01*
X033195Y012879D01*
X033135Y012879D01*
X033075Y012819D01*
X033075Y012699D01*
X033135Y012639D01*
X033135Y012511D02*
X033075Y012451D01*
X033075Y012331D01*
X033135Y012271D01*
X033375Y012271D01*
X033435Y012331D01*
X033435Y012451D01*
X033375Y012511D01*
X033792Y011900D02*
X033972Y011900D01*
X034032Y011840D01*
X034032Y011600D01*
X033972Y011540D01*
X033792Y011540D01*
X033792Y011900D01*
X034160Y011840D02*
X034160Y011780D01*
X034220Y011720D01*
X034400Y011720D01*
X034400Y011600D02*
X034400Y011840D01*
X034340Y011900D01*
X034220Y011900D01*
X034160Y011840D01*
X034160Y011600D02*
X034220Y011540D01*
X034340Y011540D01*
X034400Y011600D01*
X033842Y010656D02*
X033722Y010656D01*
X033662Y010596D01*
X033534Y010596D02*
X033473Y010656D01*
X033353Y010656D01*
X033293Y010596D01*
X033165Y010596D02*
X033165Y010476D01*
X033105Y010416D01*
X032925Y010416D01*
X033045Y010416D02*
X033165Y010296D01*
X033293Y010296D02*
X033534Y010536D01*
X033534Y010596D01*
X033842Y010656D02*
X033902Y010596D01*
X033902Y010536D01*
X033662Y010296D01*
X033902Y010296D01*
X033534Y010296D02*
X033293Y010296D01*
X032925Y010296D02*
X032925Y010656D01*
X033105Y010656D01*
X033165Y010596D01*
X036710Y010656D02*
X036770Y010596D01*
X036890Y010596D01*
X036950Y010656D01*
X037078Y010596D02*
X037319Y010836D01*
X037319Y010896D01*
X037258Y010956D01*
X037138Y010956D01*
X037078Y010896D01*
X036950Y010896D02*
X036890Y010956D01*
X036770Y010956D01*
X036710Y010896D01*
X036710Y010656D01*
X037078Y010596D02*
X037319Y010596D01*
X037447Y010656D02*
X037447Y010716D01*
X037507Y010776D01*
X037627Y010776D01*
X037687Y010716D01*
X037687Y010656D01*
X037627Y010596D01*
X037507Y010596D01*
X037447Y010656D01*
X037507Y010776D02*
X037447Y010836D01*
X037447Y010896D01*
X037507Y010956D01*
X037627Y010956D01*
X037687Y010896D01*
X037687Y010836D01*
X037627Y010776D01*
X038300Y010606D02*
X038300Y010306D01*
X038360Y010246D01*
X038480Y010246D01*
X038540Y010306D01*
X038540Y010606D01*
X038668Y010486D02*
X038788Y010606D01*
X038788Y010246D01*
X038668Y010246D02*
X038909Y010246D01*
X039950Y010421D02*
X039950Y010781D01*
X040130Y010781D01*
X040190Y010721D01*
X040190Y010601D01*
X040130Y010541D01*
X039950Y010541D01*
X040070Y010541D02*
X040190Y010421D01*
X040318Y010421D02*
X040559Y010661D01*
X040559Y010721D01*
X040498Y010781D01*
X040378Y010781D01*
X040318Y010721D01*
X040318Y010421D02*
X040559Y010421D01*
X040687Y010601D02*
X040927Y010601D01*
X040867Y010421D02*
X040867Y010781D01*
X040687Y010601D01*
X040648Y012396D02*
X040709Y012456D01*
X040709Y012696D01*
X040648Y012756D01*
X040468Y012756D01*
X040468Y012396D01*
X040648Y012396D01*
X040957Y012396D02*
X040957Y012756D01*
X040837Y012756D02*
X041077Y012756D01*
X041205Y012696D02*
X041265Y012756D01*
X041385Y012756D01*
X041445Y012696D01*
X041445Y012636D01*
X041205Y012396D01*
X041445Y012396D01*
X040340Y012456D02*
X040340Y012576D01*
X040220Y012576D01*
X040100Y012456D02*
X040160Y012396D01*
X040280Y012396D01*
X040340Y012456D01*
X040100Y012456D02*
X040100Y012696D01*
X040160Y012756D01*
X040280Y012756D01*
X040340Y012696D01*
X040398Y007706D02*
X040459Y007646D01*
X040459Y007586D01*
X040398Y007526D01*
X040459Y007466D01*
X040459Y007406D01*
X040398Y007346D01*
X040278Y007346D01*
X040218Y007406D01*
X040090Y007406D02*
X040030Y007346D01*
X039910Y007346D01*
X039850Y007406D01*
X039850Y007646D01*
X039910Y007706D01*
X040030Y007706D01*
X040090Y007646D01*
X040218Y007646D02*
X040278Y007706D01*
X040398Y007706D01*
X040398Y007526D02*
X040338Y007526D01*
X040587Y007406D02*
X040827Y007646D01*
X040827Y007406D01*
X040767Y007346D01*
X040647Y007346D01*
X040587Y007406D01*
X040587Y007646D01*
X040647Y007706D01*
X040767Y007706D01*
X040827Y007646D01*
X041350Y007646D02*
X041350Y007406D01*
X041410Y007346D01*
X041530Y007346D01*
X041590Y007406D01*
X041718Y007406D02*
X041778Y007346D01*
X041898Y007346D01*
X041959Y007406D01*
X041959Y007466D01*
X041898Y007526D01*
X041838Y007526D01*
X041898Y007526D02*
X041959Y007586D01*
X041959Y007646D01*
X041898Y007706D01*
X041778Y007706D01*
X041718Y007646D01*
X041590Y007646D02*
X041530Y007706D01*
X041410Y007706D01*
X041350Y007646D01*
X042087Y007586D02*
X042207Y007706D01*
X042207Y007346D01*
X042087Y007346D02*
X042327Y007346D01*
X041325Y006756D02*
X041325Y006396D01*
X041205Y006396D02*
X041445Y006396D01*
X041205Y006636D02*
X041325Y006756D01*
X041077Y006756D02*
X040837Y006756D01*
X040957Y006756D02*
X040957Y006396D01*
X040709Y006456D02*
X040709Y006696D01*
X040648Y006756D01*
X040468Y006756D01*
X040468Y006396D01*
X040648Y006396D01*
X040709Y006456D01*
X040340Y006456D02*
X040340Y006576D01*
X040220Y006576D01*
X040100Y006696D02*
X040100Y006456D01*
X040160Y006396D01*
X040280Y006396D01*
X040340Y006456D01*
X040340Y006696D02*
X040280Y006756D01*
X040160Y006756D01*
X040100Y006696D01*
X038909Y006546D02*
X038909Y006486D01*
X038668Y006246D01*
X038909Y006246D01*
X038540Y006306D02*
X038540Y006606D01*
X038668Y006546D02*
X038728Y006606D01*
X038848Y006606D01*
X038909Y006546D01*
X038540Y006306D02*
X038480Y006246D01*
X038360Y006246D01*
X038300Y006306D01*
X038300Y006606D01*
X037812Y006636D02*
X037812Y006876D01*
X037752Y006936D01*
X037632Y006936D01*
X037572Y006876D01*
X037572Y006816D01*
X037632Y006756D01*
X037812Y006756D01*
X037812Y006636D02*
X037752Y006576D01*
X037632Y006576D01*
X037572Y006636D01*
X037444Y006576D02*
X037203Y006576D01*
X037444Y006816D01*
X037444Y006876D01*
X037383Y006936D01*
X037263Y006936D01*
X037203Y006876D01*
X037075Y006876D02*
X037015Y006936D01*
X036895Y006936D01*
X036835Y006876D01*
X036835Y006636D01*
X036895Y006576D01*
X037015Y006576D01*
X037075Y006636D01*
X018160Y003494D02*
X018160Y003374D01*
X018100Y003314D01*
X018160Y003186D02*
X018040Y003066D01*
X018040Y003126D02*
X018040Y002946D01*
X018160Y002946D02*
X017800Y002946D01*
X017800Y003126D01*
X017860Y003186D01*
X017980Y003186D01*
X018040Y003126D01*
X017860Y003314D02*
X017800Y003374D01*
X017800Y003494D01*
X017860Y003554D01*
X017920Y003554D01*
X017980Y003494D01*
X018040Y003554D01*
X018100Y003554D01*
X018160Y003494D01*
X017980Y003494D02*
X017980Y003434D01*
X015900Y002959D02*
X015540Y002959D01*
X015720Y002779D01*
X015720Y003019D01*
X015720Y002651D02*
X015780Y002591D01*
X015780Y002411D01*
X015780Y002531D02*
X015900Y002651D01*
X015720Y002651D02*
X015600Y002651D01*
X015540Y002591D01*
X015540Y002411D01*
X015900Y002411D01*
X014761Y002101D02*
X014520Y002101D01*
X014640Y002101D02*
X014640Y002461D01*
X014520Y002341D01*
X014392Y002101D02*
X014152Y002101D01*
X014152Y002461D01*
X011460Y002421D02*
X011460Y002661D01*
X011460Y002789D02*
X011100Y002789D01*
X011100Y002969D01*
X011160Y003029D01*
X011280Y003029D01*
X011340Y002969D01*
X011340Y002789D01*
X011340Y002909D02*
X011460Y003029D01*
X011460Y002421D02*
X011100Y002421D01*
X010392Y001661D02*
X010272Y001541D01*
X010392Y001661D02*
X010392Y001301D01*
X010272Y001301D02*
X010512Y001301D01*
X010144Y001421D02*
X010144Y001661D01*
X010144Y001421D02*
X010023Y001301D01*
X009903Y001421D01*
X009903Y001661D01*
X009775Y001601D02*
X009715Y001661D01*
X009595Y001661D01*
X009535Y001601D01*
X009535Y001541D01*
X009595Y001481D01*
X009715Y001481D01*
X009775Y001421D01*
X009775Y001361D01*
X009715Y001301D01*
X009595Y001301D01*
X009535Y001361D01*
X008028Y003896D02*
X008028Y004256D01*
X007908Y004256D02*
X008148Y004256D01*
X007780Y004196D02*
X007720Y004256D01*
X007600Y004256D01*
X007540Y004196D01*
X007540Y003956D01*
X007600Y003896D01*
X007720Y003896D01*
X007780Y003956D01*
X007412Y004076D02*
X007172Y004076D01*
X007044Y004016D02*
X006983Y004076D01*
X006803Y004076D01*
X006803Y003896D02*
X006803Y004256D01*
X006983Y004256D01*
X007044Y004196D01*
X007044Y004136D01*
X006983Y004076D01*
X007044Y004016D02*
X007044Y003956D01*
X006983Y003896D01*
X006803Y003896D01*
X006555Y004076D02*
X006435Y004076D01*
X006435Y003896D02*
X006435Y004256D01*
X006675Y004256D01*
X011075Y004546D02*
X011075Y004726D01*
X011135Y004786D01*
X011255Y004786D01*
X011315Y004726D01*
X011315Y004546D01*
X011315Y004666D02*
X011435Y004786D01*
X011435Y004546D02*
X011075Y004546D01*
X014550Y004351D02*
X014550Y004231D01*
X014610Y004171D01*
X014850Y004171D01*
X014910Y004231D01*
X014910Y004351D01*
X014850Y004411D01*
X014850Y004539D02*
X014910Y004599D01*
X014910Y004719D01*
X014850Y004779D01*
X014790Y004779D01*
X014730Y004719D01*
X014730Y004539D01*
X014850Y004539D01*
X014730Y004539D02*
X014610Y004659D01*
X014550Y004779D01*
X014610Y004411D02*
X014550Y004351D01*
X014110Y010903D02*
X014110Y011143D01*
X014110Y011023D02*
X013750Y011023D01*
X013870Y010903D01*
X009285Y022041D02*
X008925Y022041D01*
X009285Y022041D02*
X009285Y022281D01*
X009285Y022409D02*
X008925Y022409D01*
X008925Y022649D01*
X008925Y022778D02*
X008925Y022958D01*
X008985Y023018D01*
X009225Y023018D01*
X009285Y022958D01*
X009285Y022778D01*
X008925Y022778D01*
X009105Y022529D02*
X009105Y022409D01*
X009285Y022409D02*
X009285Y022649D01*
X030643Y023839D02*
X030643Y024199D01*
X030823Y024199D01*
X030883Y024139D01*
X030883Y024019D01*
X030823Y023959D01*
X030643Y023959D01*
X030763Y023959D02*
X030883Y023839D01*
X031011Y023839D02*
X031252Y024079D01*
X031252Y024139D01*
X031192Y024199D01*
X031071Y024199D01*
X031011Y024139D01*
X031011Y023839D02*
X031252Y023839D01*
X031380Y023899D02*
X031440Y023839D01*
X031560Y023839D01*
X031620Y023899D01*
X031620Y024139D01*
X031560Y024199D01*
X031440Y024199D01*
X031380Y024139D01*
X031380Y024079D01*
X031440Y024019D01*
X031620Y024019D01*
D14*
X032650Y023451D02*
X032650Y023111D01*
X032480Y023281D02*
X032820Y023281D01*
X032675Y021366D02*
X032675Y021026D01*
X036855Y024131D02*
X037195Y024131D01*
X039755Y024201D02*
X040055Y024201D01*
X039905Y024351D02*
X039905Y024051D01*
X042230Y019001D02*
X042380Y018851D01*
X042455Y018926D01*
X042230Y019001D02*
X042155Y018926D01*
X025860Y017550D02*
X025860Y020523D01*
X021340Y020523D01*
X021340Y017550D01*
X025860Y017550D01*
X016320Y023906D02*
X015980Y023906D01*
X016150Y024076D02*
X016150Y023736D01*
X009180Y023721D02*
X008839Y023721D01*
X008039Y013708D02*
X005952Y013708D01*
X005952Y010873D01*
X008117Y010873D01*
X010322Y011345D01*
X010322Y013196D01*
X008039Y013708D01*
X010180Y005241D02*
X010180Y004940D01*
X010180Y005091D02*
X009730Y005091D01*
X009880Y004940D01*
D15*
X009165Y004530D02*
X008875Y004530D01*
X008875Y004626D02*
X008875Y004433D01*
X008875Y004332D02*
X009117Y004332D01*
X009165Y004283D01*
X009165Y004187D01*
X009117Y004138D01*
X008875Y004138D01*
X008923Y004037D02*
X008875Y003989D01*
X008875Y003892D01*
X008923Y003844D01*
X009117Y003844D01*
X009165Y003892D01*
X009165Y003989D01*
X009117Y004037D01*
X008923Y004037D01*
X008972Y003450D02*
X009020Y003450D01*
X009020Y003402D01*
X008972Y003402D01*
X008972Y003450D01*
X009117Y003450D02*
X009165Y003450D01*
X009165Y003402D01*
X009117Y003402D01*
X009117Y003450D01*
X009165Y003006D02*
X008875Y003006D01*
X008875Y002812D02*
X009165Y003006D01*
X009165Y002812D02*
X008875Y002812D01*
X008875Y002713D02*
X008875Y002616D01*
X008875Y002664D02*
X009165Y002664D01*
X009165Y002616D02*
X009165Y002713D01*
X012220Y003314D02*
X012268Y003266D01*
X012365Y003266D01*
X012413Y003314D01*
X012413Y003363D01*
X012365Y003411D01*
X012268Y003411D01*
X012220Y003459D01*
X012220Y003508D01*
X012268Y003556D01*
X012365Y003556D01*
X012413Y003508D01*
X012515Y003556D02*
X012563Y003556D01*
X012563Y003266D01*
X012515Y003266D02*
X012611Y003266D01*
X012711Y003314D02*
X012759Y003266D01*
X012856Y003266D01*
X012905Y003314D01*
X012905Y003411D01*
X012856Y003459D01*
X012759Y003459D01*
X012711Y003411D01*
X012711Y003314D01*
X013006Y003459D02*
X013102Y003459D01*
X013054Y003508D02*
X013054Y003314D01*
X013102Y003266D01*
X013202Y003411D02*
X013396Y003411D01*
X013497Y003314D02*
X013497Y003266D01*
X013497Y003314D02*
X013690Y003508D01*
X013690Y003556D01*
X013497Y003556D01*
X012878Y005891D02*
X012781Y005988D01*
X012829Y005988D02*
X012684Y005988D01*
X012684Y005891D02*
X012684Y006181D01*
X012829Y006181D01*
X012878Y006133D01*
X012878Y006036D01*
X012829Y005988D01*
X012583Y005891D02*
X012390Y005891D01*
X012486Y005891D02*
X012486Y006181D01*
X012390Y006084D01*
X012288Y006036D02*
X012240Y006084D01*
X012192Y006084D01*
X012095Y006036D01*
X012095Y006181D01*
X012288Y006181D01*
X012288Y006036D02*
X012288Y005939D01*
X012240Y005891D01*
X012143Y005891D01*
X012095Y005939D01*
X018470Y005556D02*
X018663Y005556D01*
X018567Y005556D02*
X018567Y005266D01*
X018765Y005266D02*
X018958Y005266D01*
X019059Y005314D02*
X019108Y005266D01*
X019204Y005266D01*
X019253Y005314D01*
X019253Y005363D01*
X019204Y005411D01*
X019156Y005411D01*
X019204Y005411D02*
X019253Y005459D01*
X019253Y005508D01*
X019204Y005556D01*
X019108Y005556D01*
X019059Y005508D01*
X018765Y005556D02*
X018765Y005266D01*
X019354Y005266D02*
X019547Y005266D01*
X019451Y005266D02*
X019451Y005556D01*
X019354Y005459D01*
X019649Y005459D02*
X019745Y005556D01*
X019745Y005266D01*
X019649Y005266D02*
X019842Y005266D01*
X019943Y005314D02*
X019992Y005266D01*
X020088Y005266D01*
X020137Y005314D01*
X020137Y005363D01*
X020088Y005411D01*
X019943Y005411D01*
X019943Y005314D01*
X019943Y005411D02*
X020040Y005508D01*
X020137Y005556D01*
X024095Y005891D02*
X024095Y005939D01*
X024288Y006133D01*
X024288Y006181D01*
X024095Y006181D01*
X024390Y006036D02*
X024583Y006036D01*
X024684Y006036D02*
X024878Y006036D01*
X024979Y006133D02*
X024979Y005939D01*
X025027Y005891D01*
X025124Y005891D01*
X025172Y005939D01*
X025274Y005939D02*
X025467Y006133D01*
X025467Y005939D01*
X025419Y005891D01*
X025322Y005891D01*
X025274Y005939D01*
X025274Y006133D01*
X025322Y006181D01*
X025419Y006181D01*
X025467Y006133D01*
X025568Y006133D02*
X025568Y006084D01*
X025617Y006036D01*
X025713Y006036D01*
X025762Y005988D01*
X025762Y005939D01*
X025713Y005891D01*
X025617Y005891D01*
X025568Y005939D01*
X025568Y005988D01*
X025617Y006036D01*
X025713Y006036D02*
X025762Y006084D01*
X025762Y006133D01*
X025713Y006181D01*
X025617Y006181D01*
X025568Y006133D01*
X025172Y006133D02*
X025124Y006181D01*
X025027Y006181D01*
X024979Y006133D01*
X024878Y006181D02*
X024878Y005891D01*
X024684Y005891D02*
X024684Y006181D01*
X024535Y006181D02*
X024390Y006036D01*
X024535Y005891D02*
X024535Y006181D01*
X020374Y003078D02*
X020199Y002903D01*
X020112Y002990D02*
X020461Y002990D01*
X020374Y002903D02*
X020199Y003078D01*
X020286Y003165D02*
X020286Y002816D01*
X030400Y004689D02*
X030448Y004641D01*
X030400Y004689D02*
X030400Y004786D01*
X030448Y004834D01*
X030497Y004834D01*
X030690Y004641D01*
X030690Y004834D01*
X030690Y004935D02*
X030642Y004935D01*
X030448Y005129D01*
X030400Y005129D01*
X030400Y004935D01*
X030545Y005230D02*
X030545Y005424D01*
X030448Y005525D02*
X030400Y005573D01*
X030400Y005670D01*
X030448Y005718D01*
X030497Y005718D01*
X030690Y005525D01*
X030690Y005718D01*
X030642Y005819D02*
X030690Y005868D01*
X030690Y005965D01*
X030642Y006013D01*
X030593Y006013D01*
X030545Y005965D01*
X030545Y005916D01*
X030545Y005965D02*
X030497Y006013D01*
X030448Y006013D01*
X030400Y005965D01*
X030400Y005868D01*
X030448Y005819D01*
X030400Y005375D02*
X030545Y005230D01*
X030690Y005375D02*
X030400Y005375D01*
X033576Y002556D02*
X033625Y002556D01*
X033625Y002266D01*
X033673Y002266D02*
X033576Y002266D01*
X033477Y002266D02*
X033429Y002266D01*
X033429Y002314D01*
X033477Y002314D01*
X033477Y002266D01*
X033328Y002314D02*
X033328Y002459D01*
X033328Y002314D02*
X033279Y002266D01*
X033231Y002314D01*
X033183Y002266D01*
X033134Y002314D01*
X033134Y002459D01*
X033033Y002459D02*
X033033Y002314D01*
X032985Y002266D01*
X032936Y002314D01*
X032888Y002266D01*
X032840Y002314D01*
X032840Y002459D01*
X032738Y002459D02*
X032738Y002314D01*
X032690Y002266D01*
X032642Y002314D01*
X032593Y002266D01*
X032545Y002314D01*
X032545Y002459D01*
X033773Y002411D02*
X033773Y002314D01*
X033821Y002266D01*
X033918Y002266D01*
X033966Y002314D01*
X033966Y002411D01*
X033918Y002459D01*
X033821Y002459D01*
X033773Y002411D01*
X034067Y002459D02*
X034212Y002459D01*
X034261Y002411D01*
X034261Y002266D01*
X034362Y002314D02*
X034362Y002411D01*
X034410Y002459D01*
X034507Y002459D01*
X034556Y002411D01*
X034556Y002363D01*
X034362Y002363D01*
X034362Y002314D02*
X034410Y002266D01*
X034507Y002266D01*
X034657Y002314D02*
X034705Y002266D01*
X034802Y002266D01*
X034850Y002314D01*
X034850Y002411D01*
X034802Y002459D01*
X034705Y002459D01*
X034657Y002411D01*
X034657Y002314D01*
X034951Y002314D02*
X035000Y002266D01*
X035145Y002266D01*
X035246Y002314D02*
X035246Y002411D01*
X035294Y002459D01*
X035391Y002459D01*
X035439Y002411D01*
X035439Y002363D01*
X035246Y002363D01*
X035246Y002314D02*
X035294Y002266D01*
X035391Y002266D01*
X035541Y002314D02*
X035589Y002363D01*
X035734Y002363D01*
X035734Y002411D02*
X035734Y002266D01*
X035589Y002266D01*
X035541Y002314D01*
X035589Y002459D02*
X035686Y002459D01*
X035734Y002411D01*
X035835Y002459D02*
X035980Y002459D01*
X036029Y002411D01*
X036029Y002266D01*
X036130Y002266D02*
X036275Y002266D01*
X036323Y002314D01*
X036275Y002363D01*
X036178Y002363D01*
X036130Y002411D01*
X036178Y002459D01*
X036323Y002459D01*
X036425Y002314D02*
X036473Y002314D01*
X036473Y002266D01*
X036425Y002266D01*
X036425Y002314D01*
X036572Y002314D02*
X036620Y002266D01*
X036765Y002266D01*
X036867Y002314D02*
X036915Y002266D01*
X037012Y002266D01*
X037060Y002314D01*
X037060Y002411D01*
X037012Y002459D01*
X036915Y002459D01*
X036867Y002411D01*
X036867Y002314D01*
X036765Y002459D02*
X036620Y002459D01*
X036572Y002411D01*
X036572Y002314D01*
X037161Y002266D02*
X037161Y002459D01*
X037210Y002459D01*
X037258Y002411D01*
X037306Y002459D01*
X037355Y002411D01*
X037355Y002266D01*
X037258Y002266D02*
X037258Y002411D01*
X037456Y002266D02*
X037649Y002556D01*
X037751Y002556D02*
X037799Y002556D01*
X037799Y002266D01*
X037751Y002266D02*
X037847Y002266D01*
X037947Y002314D02*
X037995Y002363D01*
X038140Y002363D01*
X038140Y002411D02*
X038140Y002266D01*
X037995Y002266D01*
X037947Y002314D01*
X037995Y002459D02*
X038092Y002459D01*
X038140Y002411D01*
X038242Y002459D02*
X038387Y002459D01*
X038435Y002411D01*
X038435Y002314D01*
X038387Y002266D01*
X038242Y002266D01*
X038242Y002556D01*
X038536Y002411D02*
X038585Y002459D01*
X038730Y002459D01*
X038681Y002363D02*
X038585Y002363D01*
X038536Y002411D01*
X038536Y002266D02*
X038681Y002266D01*
X038730Y002314D01*
X038681Y002363D01*
X038831Y002266D02*
X039024Y002556D01*
X035835Y002459D02*
X035835Y002266D01*
X035145Y002459D02*
X035000Y002459D01*
X034951Y002411D01*
X034951Y002314D01*
X034067Y002266D02*
X034067Y002459D01*
X031281Y009141D02*
X031378Y009238D01*
X031378Y009431D01*
X031184Y009431D02*
X031184Y009238D01*
X031281Y009141D01*
X031083Y009189D02*
X031035Y009141D01*
X030938Y009141D01*
X030890Y009189D01*
X030890Y009286D02*
X030986Y009334D01*
X031035Y009334D01*
X031083Y009286D01*
X031083Y009189D01*
X030890Y009286D02*
X030890Y009431D01*
X031083Y009431D01*
X031083Y009621D02*
X030890Y009621D01*
X031083Y009814D01*
X031083Y009863D01*
X031035Y009911D01*
X030938Y009911D01*
X030890Y009863D01*
X030788Y009863D02*
X030740Y009911D01*
X030643Y009911D01*
X030595Y009863D01*
X030788Y009863D02*
X030788Y009814D01*
X030595Y009621D01*
X030788Y009621D01*
X030740Y009431D02*
X030643Y009431D01*
X030595Y009383D01*
X030692Y009286D02*
X030740Y009286D01*
X030788Y009238D01*
X030788Y009189D01*
X030740Y009141D01*
X030643Y009141D01*
X030595Y009189D01*
X030740Y009286D02*
X030788Y009334D01*
X030788Y009383D01*
X030740Y009431D01*
X031184Y009669D02*
X031378Y009863D01*
X031378Y009669D01*
X031329Y009621D01*
X031233Y009621D01*
X031184Y009669D01*
X031184Y009863D01*
X031233Y009911D01*
X031329Y009911D01*
X031378Y009863D01*
X031479Y009814D02*
X031479Y009669D01*
X031527Y009621D01*
X031672Y009621D01*
X031672Y009814D01*
X030690Y013391D02*
X030497Y013584D01*
X030448Y013584D01*
X030400Y013536D01*
X030400Y013439D01*
X030448Y013391D01*
X030690Y013391D02*
X030690Y013584D01*
X030690Y013685D02*
X030642Y013685D01*
X030448Y013879D01*
X030400Y013879D01*
X030400Y013685D01*
X030545Y013980D02*
X030545Y014174D01*
X030448Y014275D02*
X030400Y014323D01*
X030400Y014420D01*
X030448Y014468D01*
X030497Y014468D01*
X030690Y014275D01*
X030690Y014468D01*
X030642Y014569D02*
X030690Y014618D01*
X030690Y014715D01*
X030642Y014763D01*
X030593Y014763D01*
X030545Y014715D01*
X030545Y014666D01*
X030545Y014715D02*
X030497Y014763D01*
X030448Y014763D01*
X030400Y014715D01*
X030400Y014618D01*
X030448Y014569D01*
X030400Y014125D02*
X030545Y013980D01*
X030690Y014125D02*
X030400Y014125D01*
X024940Y014016D02*
X024892Y014016D01*
X024698Y014209D01*
X024650Y014209D01*
X024650Y014016D01*
X024795Y014310D02*
X024795Y014504D01*
X024795Y014605D02*
X024795Y014799D01*
X024892Y014900D02*
X024940Y014948D01*
X024940Y015045D01*
X024892Y015093D01*
X024892Y015194D02*
X024940Y015194D01*
X024892Y015194D02*
X024698Y015388D01*
X024650Y015388D01*
X024650Y015194D01*
X024698Y015093D02*
X024650Y015045D01*
X024650Y014948D01*
X024698Y014900D01*
X024892Y014900D01*
X024940Y014799D02*
X024650Y014799D01*
X024650Y014605D02*
X024940Y014605D01*
X024940Y014456D02*
X024650Y014456D01*
X024795Y014310D01*
X024795Y015489D02*
X024795Y015683D01*
X024940Y015634D02*
X024650Y015634D01*
X024795Y015489D01*
X024294Y018391D02*
X024197Y018391D01*
X024149Y018439D01*
X024047Y018439D02*
X023999Y018391D01*
X023902Y018391D01*
X023854Y018439D01*
X024047Y018633D01*
X024047Y018439D01*
X024149Y018584D02*
X024197Y018536D01*
X024342Y018536D01*
X024342Y018439D02*
X024342Y018633D01*
X024294Y018681D01*
X024197Y018681D01*
X024149Y018633D01*
X024149Y018584D01*
X024047Y018633D02*
X023999Y018681D01*
X023902Y018681D01*
X023854Y018633D01*
X023854Y018439D01*
X023753Y018439D02*
X023704Y018391D01*
X023608Y018391D01*
X023559Y018439D01*
X023559Y018488D01*
X023608Y018536D01*
X023704Y018536D01*
X023753Y018488D01*
X023753Y018439D01*
X023704Y018536D02*
X023753Y018584D01*
X023753Y018633D01*
X023704Y018681D01*
X023608Y018681D01*
X023559Y018633D01*
X023559Y018584D01*
X023608Y018536D01*
X023458Y018633D02*
X023265Y018439D01*
X023265Y018391D01*
X023163Y018391D02*
X023067Y018488D01*
X023115Y018488D02*
X022970Y018488D01*
X022970Y018391D02*
X022970Y018681D01*
X023115Y018681D01*
X023163Y018633D01*
X023163Y018536D01*
X023115Y018488D01*
X023265Y018681D02*
X023458Y018681D01*
X023458Y018633D01*
X024294Y018391D02*
X024342Y018439D01*
X028295Y019879D02*
X028295Y019975D01*
X028295Y019927D02*
X028537Y019927D01*
X028585Y019879D01*
X028585Y019830D01*
X028537Y019782D01*
X028585Y020077D02*
X028295Y020077D01*
X028295Y020222D01*
X028343Y020270D01*
X028440Y020270D01*
X028488Y020222D01*
X028488Y020077D01*
X028392Y020371D02*
X028295Y020468D01*
X028585Y020468D01*
X028585Y020371D02*
X028585Y020565D01*
X028845Y020466D02*
X028845Y020370D01*
X028893Y020321D01*
X028893Y020220D02*
X028990Y020220D01*
X029038Y020172D01*
X029038Y020027D01*
X029135Y020027D02*
X028845Y020027D01*
X028845Y020172D01*
X028893Y020220D01*
X028845Y020466D02*
X028893Y020515D01*
X028942Y020515D01*
X029135Y020321D01*
X029135Y020515D01*
X028845Y019925D02*
X028845Y019732D01*
X028845Y019829D02*
X029135Y019829D01*
X030595Y018863D02*
X030643Y018911D01*
X030740Y018911D01*
X030788Y018863D01*
X030788Y018814D01*
X030595Y018621D01*
X030788Y018621D01*
X030890Y018621D02*
X031083Y018814D01*
X031083Y018863D01*
X031035Y018911D01*
X030938Y018911D01*
X030890Y018863D01*
X030890Y018621D02*
X031083Y018621D01*
X031184Y018669D02*
X031378Y018863D01*
X031378Y018669D01*
X031329Y018621D01*
X031233Y018621D01*
X031184Y018669D01*
X031184Y018863D01*
X031233Y018911D01*
X031329Y018911D01*
X031378Y018863D01*
X031479Y018814D02*
X031479Y018669D01*
X031527Y018621D01*
X031672Y018621D01*
X031672Y018814D01*
X031378Y018431D02*
X031378Y018238D01*
X031281Y018141D01*
X031184Y018238D01*
X031184Y018431D01*
X031083Y018431D02*
X030890Y018431D01*
X030890Y018286D01*
X030986Y018334D01*
X031035Y018334D01*
X031083Y018286D01*
X031083Y018189D01*
X031035Y018141D01*
X030938Y018141D01*
X030890Y018189D01*
X030788Y018189D02*
X030740Y018141D01*
X030643Y018141D01*
X030595Y018189D01*
X030692Y018286D02*
X030740Y018286D01*
X030788Y018238D01*
X030788Y018189D01*
X030740Y018286D02*
X030788Y018334D01*
X030788Y018383D01*
X030740Y018431D01*
X030643Y018431D01*
X030595Y018383D01*
X025440Y021891D02*
X025247Y022084D01*
X025198Y022084D01*
X025150Y022036D01*
X025150Y021939D01*
X025198Y021891D01*
X025440Y021891D02*
X025440Y022084D01*
X025392Y022185D02*
X025440Y022234D01*
X025440Y022331D01*
X025392Y022379D01*
X025295Y022379D01*
X025247Y022331D01*
X025247Y022282D01*
X025295Y022185D01*
X025150Y022185D01*
X025150Y022379D01*
X025150Y022480D02*
X025343Y022480D01*
X025440Y022577D01*
X025343Y022674D01*
X025150Y022674D01*
X024960Y022625D02*
X024960Y022529D01*
X024912Y022480D01*
X024718Y022674D01*
X024912Y022674D01*
X024960Y022625D01*
X024912Y022480D02*
X024718Y022480D01*
X024670Y022529D01*
X024670Y022625D01*
X024718Y022674D01*
X024767Y022775D02*
X024912Y022775D01*
X024960Y022823D01*
X024960Y022968D01*
X024767Y022968D01*
X024767Y022379D02*
X024815Y022331D01*
X024863Y022379D01*
X024912Y022379D01*
X024960Y022331D01*
X024960Y022234D01*
X024912Y022185D01*
X024912Y022084D02*
X024960Y022036D01*
X024960Y021939D01*
X024912Y021891D01*
X024815Y021988D02*
X024815Y022036D01*
X024863Y022084D01*
X024912Y022084D01*
X024815Y022036D02*
X024767Y022084D01*
X024718Y022084D01*
X024670Y022036D01*
X024670Y021939D01*
X024718Y021891D01*
X024718Y022185D02*
X024670Y022234D01*
X024670Y022331D01*
X024718Y022379D01*
X024767Y022379D01*
X024815Y022331D02*
X024815Y022282D01*
X028170Y022359D02*
X028218Y022310D01*
X028170Y022359D02*
X028170Y022456D01*
X028218Y022504D01*
X028267Y022504D01*
X028460Y022310D01*
X028460Y022504D01*
X028412Y022605D02*
X028218Y022799D01*
X028412Y022799D01*
X028460Y022750D01*
X028460Y022654D01*
X028412Y022605D01*
X028218Y022605D01*
X028170Y022654D01*
X028170Y022750D01*
X028218Y022799D01*
X028267Y022900D02*
X028412Y022900D01*
X028460Y022948D01*
X028460Y023093D01*
X028267Y023093D01*
X028650Y022799D02*
X028843Y022799D01*
X028940Y022702D01*
X028843Y022605D01*
X028650Y022605D01*
X028650Y022504D02*
X028650Y022310D01*
X028795Y022310D01*
X028747Y022407D01*
X028747Y022456D01*
X028795Y022504D01*
X028892Y022504D01*
X028940Y022456D01*
X028940Y022359D01*
X028892Y022310D01*
X028892Y022209D02*
X028940Y022161D01*
X028940Y022064D01*
X028892Y022016D01*
X028795Y022113D02*
X028795Y022161D01*
X028843Y022209D01*
X028892Y022209D01*
X028795Y022161D02*
X028747Y022209D01*
X028698Y022209D01*
X028650Y022161D01*
X028650Y022064D01*
X028698Y022016D01*
X028460Y022016D02*
X028267Y022209D01*
X028218Y022209D01*
X028170Y022161D01*
X028170Y022064D01*
X028218Y022016D01*
X028460Y022016D02*
X028460Y022209D01*
X030645Y022214D02*
X030693Y022166D01*
X030790Y022166D01*
X030838Y022214D01*
X030838Y022311D01*
X030790Y022359D01*
X030742Y022359D01*
X030645Y022311D01*
X030645Y022456D01*
X030838Y022456D01*
X030940Y022408D02*
X030988Y022456D01*
X031085Y022456D01*
X031133Y022408D01*
X030940Y022214D01*
X030988Y022166D01*
X031085Y022166D01*
X031133Y022214D01*
X031133Y022408D01*
X031234Y022456D02*
X031234Y022166D01*
X031234Y022263D02*
X031379Y022359D01*
X031234Y022263D02*
X031379Y022166D01*
X030940Y022214D02*
X030940Y022408D01*
X039846Y021539D02*
X039943Y021636D01*
X039943Y021346D01*
X040039Y021346D02*
X039846Y021346D01*
X040140Y021394D02*
X040189Y021346D01*
X040286Y021346D01*
X040334Y021394D01*
X040334Y021588D01*
X040286Y021636D01*
X040189Y021636D01*
X040140Y021588D01*
X040140Y021539D01*
X040189Y021491D01*
X040334Y021491D01*
X040435Y021491D02*
X040629Y021491D01*
X040730Y021588D02*
X040778Y021636D01*
X040875Y021636D01*
X040923Y021588D01*
X040923Y021539D01*
X040730Y021346D01*
X040923Y021346D01*
X041024Y021394D02*
X041073Y021346D01*
X041170Y021346D01*
X041218Y021394D01*
X041218Y021443D01*
X041170Y021491D01*
X041024Y021491D01*
X041024Y021394D01*
X041024Y021491D02*
X041121Y021588D01*
X041218Y021636D01*
X041466Y021636D02*
X041466Y021491D01*
X041563Y021539D01*
X041612Y021539D01*
X041660Y021491D01*
X041660Y021394D01*
X041612Y021346D01*
X041515Y021346D01*
X041466Y021394D01*
X041367Y021394D02*
X041367Y021346D01*
X041319Y021346D01*
X041319Y021394D01*
X041367Y021394D01*
X041466Y021636D02*
X041660Y021636D01*
X041761Y021636D02*
X041761Y021443D01*
X041858Y021346D01*
X041955Y021443D01*
X041955Y021636D01*
X042056Y021539D02*
X042056Y021346D01*
X042056Y021491D02*
X042249Y021491D01*
X042249Y021539D02*
X042249Y021346D01*
X042350Y021394D02*
X042399Y021346D01*
X042495Y021346D01*
X042544Y021394D01*
X042350Y021394D02*
X042350Y021588D01*
X042399Y021636D01*
X042495Y021636D01*
X042544Y021588D01*
X042249Y021539D02*
X042152Y021636D01*
X042056Y021539D01*
X021047Y021496D02*
X021047Y021689D01*
X020854Y021689D02*
X020854Y021544D01*
X020902Y021496D01*
X021047Y021496D01*
X020753Y021544D02*
X020753Y021738D01*
X020559Y021544D01*
X020608Y021496D01*
X020704Y021496D01*
X020753Y021544D01*
X020559Y021544D02*
X020559Y021738D01*
X020608Y021786D01*
X020704Y021786D01*
X020753Y021738D01*
X020458Y021738D02*
X020458Y021689D01*
X020410Y021641D01*
X020458Y021593D01*
X020458Y021544D01*
X020410Y021496D01*
X020313Y021496D01*
X020265Y021544D01*
X020163Y021544D02*
X020115Y021496D01*
X020018Y021496D01*
X019970Y021544D01*
X020067Y021641D02*
X020115Y021641D01*
X020163Y021593D01*
X020163Y021544D01*
X020115Y021641D02*
X020163Y021689D01*
X020163Y021738D01*
X020115Y021786D01*
X020018Y021786D01*
X019970Y021738D01*
X020265Y021738D02*
X020313Y021786D01*
X020410Y021786D01*
X020458Y021738D01*
X020410Y021641D02*
X020361Y021641D01*
X020265Y021306D02*
X020265Y021161D01*
X020361Y021209D01*
X020410Y021209D01*
X020458Y021161D01*
X020458Y021064D01*
X020410Y021016D01*
X020313Y021016D01*
X020265Y021064D01*
X020163Y021016D02*
X019970Y021016D01*
X020163Y021209D01*
X020163Y021258D01*
X020115Y021306D01*
X020018Y021306D01*
X019970Y021258D01*
X020265Y021306D02*
X020458Y021306D01*
X020559Y021306D02*
X020559Y021113D01*
X020656Y021016D01*
X020753Y021113D01*
X020753Y021306D01*
X016690Y018384D02*
X016400Y018384D01*
X016545Y018239D01*
X016545Y018433D01*
X016690Y018138D02*
X016690Y017944D01*
X016690Y018041D02*
X016400Y018041D01*
X016497Y017944D01*
X016448Y017843D02*
X016400Y017795D01*
X016400Y017698D01*
X016448Y017650D01*
X016642Y017650D01*
X016690Y017698D01*
X016690Y017795D01*
X016642Y017843D01*
X016690Y017549D02*
X016400Y017549D01*
X016545Y017549D02*
X016545Y017355D01*
X016545Y017254D02*
X016545Y017060D01*
X016400Y017206D01*
X016690Y017206D01*
X016690Y017355D02*
X016400Y017355D01*
X016400Y016959D02*
X016448Y016959D01*
X016642Y016766D01*
X016690Y016766D01*
X016400Y016766D02*
X016400Y016959D01*
X012565Y017689D02*
X012275Y017689D01*
X012275Y017786D02*
X012565Y017786D01*
X012468Y017834D02*
X012468Y017641D01*
X012372Y017641D02*
X012372Y017786D01*
X012372Y017834D01*
X012372Y019071D02*
X012372Y019216D01*
X012372Y019264D01*
X012468Y019264D02*
X012468Y019071D01*
X012565Y019119D02*
X012275Y019119D01*
X012275Y019216D02*
X012565Y019216D01*
X009556Y021391D02*
X009460Y021488D01*
X009508Y021488D02*
X009363Y021488D01*
X009363Y021391D02*
X009363Y021681D01*
X009508Y021681D01*
X009556Y021633D01*
X009556Y021536D01*
X009508Y021488D01*
X009658Y021536D02*
X009851Y021536D01*
X009754Y021633D02*
X009754Y021439D01*
X009262Y021391D02*
X009262Y021681D01*
X009068Y021681D02*
X009068Y021391D01*
X009165Y021488D01*
X009262Y021391D01*
X008967Y021536D02*
X008919Y021488D01*
X008774Y021488D01*
X008774Y021391D02*
X008774Y021681D01*
X008919Y021681D01*
X008967Y021633D01*
X008967Y021536D01*
X008378Y021633D02*
X008329Y021681D01*
X008184Y021681D01*
X008184Y021391D01*
X008329Y021391D01*
X008378Y021439D01*
X008378Y021633D01*
X008083Y021633D02*
X008035Y021681D01*
X007938Y021681D01*
X007890Y021633D01*
X007890Y021439D01*
X007938Y021391D01*
X008035Y021391D01*
X008083Y021439D01*
X007789Y021439D02*
X007789Y021633D01*
X007740Y021681D01*
X007643Y021681D01*
X007595Y021633D01*
X007595Y021439D01*
X007643Y021391D01*
X007740Y021391D01*
X007789Y021439D01*
X007199Y021439D02*
X007151Y021391D01*
X007054Y021391D01*
X007006Y021439D01*
X007006Y021633D01*
X007054Y021681D01*
X007151Y021681D01*
X007199Y021633D01*
X007199Y021536D02*
X007102Y021536D01*
X007199Y021536D02*
X007199Y021439D01*
X006906Y021391D02*
X006809Y021391D01*
X006858Y021391D02*
X006858Y021681D01*
X006906Y021681D02*
X006809Y021681D01*
X006708Y021633D02*
X006660Y021681D01*
X006563Y021681D01*
X006515Y021633D01*
X006515Y021584D01*
X006563Y021536D01*
X006660Y021536D01*
X006708Y021488D01*
X006708Y021439D01*
X006660Y021391D01*
X006563Y021391D01*
X006515Y021439D01*
X006413Y021536D02*
X006220Y021536D01*
X007093Y016081D02*
X007045Y016033D01*
X007045Y015839D01*
X007093Y015791D01*
X007190Y015791D01*
X007238Y015839D01*
X007238Y016033D01*
X007190Y016081D01*
X007093Y016081D01*
X007340Y016081D02*
X007485Y016081D01*
X007533Y016033D01*
X007533Y015936D01*
X007485Y015888D01*
X007340Y015888D01*
X007340Y015791D02*
X007340Y016081D01*
X007634Y016081D02*
X007634Y015791D01*
X007634Y015936D02*
X007731Y015936D01*
X007634Y016081D02*
X007828Y016081D01*
X007929Y016033D02*
X007977Y016081D01*
X008074Y016081D01*
X008122Y016033D01*
X008122Y015984D01*
X007929Y015791D01*
X008122Y015791D01*
X008224Y015936D02*
X008417Y015936D01*
X008518Y015984D02*
X008615Y016081D01*
X008615Y015791D01*
X008518Y015791D02*
X008712Y015791D01*
X008813Y015791D02*
X009006Y015984D01*
X009006Y016033D01*
X008958Y016081D01*
X008861Y016081D01*
X008813Y016033D01*
X008813Y015791D02*
X009006Y015791D01*
X009204Y015791D02*
X009204Y016081D01*
X009108Y016081D02*
X009301Y016081D01*
X008369Y016081D02*
X008369Y015791D01*
X008224Y015936D02*
X008369Y016081D01*
X016400Y011541D02*
X016690Y011541D01*
X016690Y011444D02*
X016690Y011638D01*
X016497Y011444D02*
X016400Y011541D01*
X016400Y011247D02*
X016690Y011247D01*
X016690Y011343D02*
X016690Y011150D01*
X016642Y011049D02*
X016690Y011000D01*
X016690Y010904D01*
X016642Y010855D01*
X016690Y010754D02*
X016400Y010754D01*
X016497Y010657D01*
X016400Y010560D01*
X016690Y010560D01*
X016690Y010459D02*
X016690Y010266D01*
X016400Y010266D01*
X016448Y010855D02*
X016400Y010904D01*
X016400Y011000D01*
X016448Y011049D01*
X016497Y011049D01*
X016545Y011000D01*
X016593Y011049D01*
X016642Y011049D01*
X016545Y011000D02*
X016545Y010952D01*
X016497Y011150D02*
X016400Y011247D01*
X010690Y011161D02*
X010400Y011161D01*
X010497Y011161D02*
X010497Y011209D01*
X010497Y011161D02*
X010497Y011016D01*
X010593Y011016D02*
X010593Y011209D01*
X010690Y011064D02*
X010400Y011064D01*
X008628Y010658D02*
X008579Y010706D01*
X008483Y010706D01*
X008434Y010658D01*
X008434Y010464D01*
X008483Y010416D01*
X008579Y010416D01*
X008628Y010464D01*
X008333Y010706D02*
X008140Y010416D01*
X007942Y010416D02*
X007942Y010706D01*
X007845Y010706D02*
X008039Y010706D01*
X007744Y010706D02*
X007550Y010706D01*
X007550Y010561D01*
X007647Y010609D01*
X007696Y010609D01*
X007744Y010561D01*
X007744Y010464D01*
X007696Y010416D01*
X007599Y010416D01*
X007550Y010464D01*
X007449Y010464D02*
X007449Y010658D01*
X007401Y010706D01*
X007304Y010706D01*
X007256Y010658D01*
X007256Y010609D01*
X007304Y010561D01*
X007449Y010561D01*
X007449Y010464D02*
X007401Y010416D01*
X007304Y010416D01*
X007256Y010464D01*
X007155Y010464D02*
X007155Y010658D01*
X007106Y010706D01*
X006961Y010706D01*
X006961Y010416D01*
X007106Y010416D01*
X007155Y010464D01*
X006860Y010706D02*
X006666Y010706D01*
X006666Y010416D01*
X006567Y010416D02*
X006470Y010416D01*
X006518Y010416D02*
X006518Y010706D01*
X006470Y010706D02*
X006567Y010706D01*
X006666Y010561D02*
X006763Y010561D01*
D16*
X010605Y006801D02*
X010855Y006801D01*
X010905Y006751D01*
X014005Y006751D01*
X014055Y006801D01*
X014305Y006801D01*
X014328Y006799D01*
X014351Y006794D01*
X014373Y006785D01*
X014393Y006772D01*
X014411Y006757D01*
X014426Y006739D01*
X014439Y006719D01*
X014448Y006697D01*
X014453Y006674D01*
X014455Y006651D01*
X014455Y005351D01*
X014453Y005328D01*
X014448Y005305D01*
X014439Y005283D01*
X014426Y005263D01*
X014411Y005245D01*
X014393Y005230D01*
X014373Y005217D01*
X014351Y005208D01*
X014328Y005203D01*
X014305Y005201D01*
X014055Y005201D01*
X014005Y005251D01*
X010905Y005251D01*
X010855Y005201D01*
X010605Y005201D01*
X010582Y005203D01*
X010559Y005208D01*
X010537Y005217D01*
X010517Y005230D01*
X010499Y005245D01*
X010484Y005263D01*
X010471Y005283D01*
X010462Y005305D01*
X010457Y005328D01*
X010455Y005351D01*
X010455Y006651D01*
X010457Y006674D01*
X010462Y006697D01*
X010471Y006719D01*
X010484Y006739D01*
X010499Y006757D01*
X010517Y006772D01*
X010537Y006785D01*
X010559Y006794D01*
X010582Y006799D01*
X010605Y006801D01*
X010205Y004876D02*
X009705Y004876D01*
X009455Y004626D01*
X009455Y004126D01*
X009705Y003876D01*
X009455Y003626D01*
X009455Y003126D01*
X009705Y002876D01*
X009455Y002626D01*
X009455Y002126D01*
X009705Y001876D01*
X010205Y001876D01*
X010455Y002126D01*
X010455Y002626D01*
X010205Y002876D01*
X010455Y003126D01*
X010455Y003626D01*
X010205Y003876D01*
X010455Y004126D01*
X010455Y004626D01*
X010205Y004876D01*
X006536Y002126D02*
X006538Y002177D01*
X006544Y002228D01*
X006554Y002278D01*
X006567Y002328D01*
X006585Y002376D01*
X006605Y002423D01*
X006630Y002468D01*
X006658Y002511D01*
X006689Y002552D01*
X006723Y002590D01*
X006760Y002625D01*
X006799Y002658D01*
X006841Y002688D01*
X006885Y002714D01*
X006931Y002736D01*
X006979Y002756D01*
X007028Y002771D01*
X007078Y002783D01*
X007128Y002791D01*
X007179Y002795D01*
X007231Y002795D01*
X007282Y002791D01*
X007332Y002783D01*
X007382Y002771D01*
X007431Y002756D01*
X007479Y002736D01*
X007525Y002714D01*
X007569Y002688D01*
X007611Y002658D01*
X007650Y002625D01*
X007687Y002590D01*
X007721Y002552D01*
X007752Y002511D01*
X007780Y002468D01*
X007805Y002423D01*
X007825Y002376D01*
X007843Y002328D01*
X007856Y002278D01*
X007866Y002228D01*
X007872Y002177D01*
X007874Y002126D01*
X007872Y002075D01*
X007866Y002024D01*
X007856Y001974D01*
X007843Y001924D01*
X007825Y001876D01*
X007805Y001829D01*
X007780Y001784D01*
X007752Y001741D01*
X007721Y001700D01*
X007687Y001662D01*
X007650Y001627D01*
X007611Y001594D01*
X007569Y001564D01*
X007525Y001538D01*
X007479Y001516D01*
X007431Y001496D01*
X007382Y001481D01*
X007332Y001469D01*
X007282Y001461D01*
X007231Y001457D01*
X007179Y001457D01*
X007128Y001461D01*
X007078Y001469D01*
X007028Y001481D01*
X006979Y001496D01*
X006931Y001516D01*
X006885Y001538D01*
X006841Y001564D01*
X006799Y001594D01*
X006760Y001627D01*
X006723Y001662D01*
X006689Y001700D01*
X006658Y001741D01*
X006630Y001784D01*
X006605Y001829D01*
X006585Y001876D01*
X006567Y001924D01*
X006554Y001974D01*
X006544Y002024D01*
X006538Y002075D01*
X006536Y002126D01*
X005855Y002126D02*
X005857Y002199D01*
X005863Y002272D01*
X005873Y002344D01*
X005887Y002416D01*
X005904Y002487D01*
X005926Y002557D01*
X005951Y002626D01*
X005980Y002693D01*
X006012Y002758D01*
X006048Y002822D01*
X006088Y002884D01*
X006130Y002943D01*
X006176Y003000D01*
X006225Y003054D01*
X006277Y003106D01*
X006331Y003155D01*
X006388Y003201D01*
X006447Y003243D01*
X006509Y003283D01*
X006573Y003319D01*
X006638Y003351D01*
X006705Y003380D01*
X006774Y003405D01*
X006844Y003427D01*
X006915Y003444D01*
X006987Y003458D01*
X007059Y003468D01*
X007132Y003474D01*
X007205Y003476D01*
X007278Y003474D01*
X007351Y003468D01*
X007423Y003458D01*
X007495Y003444D01*
X007566Y003427D01*
X007636Y003405D01*
X007705Y003380D01*
X007772Y003351D01*
X007837Y003319D01*
X007901Y003283D01*
X007963Y003243D01*
X008022Y003201D01*
X008079Y003155D01*
X008133Y003106D01*
X008185Y003054D01*
X008234Y003000D01*
X008280Y002943D01*
X008322Y002884D01*
X008362Y002822D01*
X008398Y002758D01*
X008430Y002693D01*
X008459Y002626D01*
X008484Y002557D01*
X008506Y002487D01*
X008523Y002416D01*
X008537Y002344D01*
X008547Y002272D01*
X008553Y002199D01*
X008555Y002126D01*
X008553Y002053D01*
X008547Y001980D01*
X008537Y001908D01*
X008523Y001836D01*
X008506Y001765D01*
X008484Y001695D01*
X008459Y001626D01*
X008430Y001559D01*
X008398Y001494D01*
X008362Y001430D01*
X008322Y001368D01*
X008280Y001309D01*
X008234Y001252D01*
X008185Y001198D01*
X008133Y001146D01*
X008079Y001097D01*
X008022Y001051D01*
X007963Y001009D01*
X007901Y000969D01*
X007837Y000933D01*
X007772Y000901D01*
X007705Y000872D01*
X007636Y000847D01*
X007566Y000825D01*
X007495Y000808D01*
X007423Y000794D01*
X007351Y000784D01*
X007278Y000778D01*
X007205Y000776D01*
X007132Y000778D01*
X007059Y000784D01*
X006987Y000794D01*
X006915Y000808D01*
X006844Y000825D01*
X006774Y000847D01*
X006705Y000872D01*
X006638Y000901D01*
X006573Y000933D01*
X006509Y000969D01*
X006447Y001009D01*
X006388Y001051D01*
X006331Y001097D01*
X006277Y001146D01*
X006225Y001198D01*
X006176Y001252D01*
X006130Y001309D01*
X006088Y001368D01*
X006048Y001430D01*
X006012Y001494D01*
X005980Y001559D01*
X005951Y001626D01*
X005926Y001695D01*
X005904Y001765D01*
X005887Y001836D01*
X005873Y001908D01*
X005863Y001980D01*
X005857Y002053D01*
X005855Y002126D01*
X017560Y001881D02*
X017560Y001464D01*
X017643Y001381D01*
X017810Y001381D01*
X017894Y001464D01*
X017894Y001881D01*
X018076Y001881D02*
X018409Y001381D01*
X018409Y001881D01*
X018591Y001881D02*
X018758Y001881D01*
X018675Y001881D02*
X018675Y001381D01*
X018758Y001381D02*
X018591Y001381D01*
X018935Y001548D02*
X019102Y001381D01*
X019269Y001548D01*
X019269Y001881D01*
X019451Y001881D02*
X019451Y001381D01*
X019784Y001381D01*
X019966Y001381D02*
X019966Y001881D01*
X020217Y001881D01*
X020300Y001798D01*
X020300Y001631D01*
X020217Y001548D01*
X019966Y001548D01*
X020133Y001548D02*
X020300Y001381D01*
X020482Y001464D02*
X020565Y001381D01*
X020732Y001381D01*
X020816Y001464D01*
X020816Y001548D01*
X020732Y001631D01*
X020565Y001631D01*
X020482Y001714D01*
X020482Y001798D01*
X020565Y001881D01*
X020732Y001881D01*
X020816Y001798D01*
X020998Y001714D02*
X021164Y001881D01*
X021331Y001714D01*
X021331Y001381D01*
X021513Y001381D02*
X021847Y001381D01*
X021513Y001381D02*
X021513Y001881D01*
X021331Y001631D02*
X020998Y001631D01*
X020998Y001714D02*
X020998Y001381D01*
X019784Y001881D02*
X019451Y001881D01*
X019451Y001631D02*
X019617Y001631D01*
X018935Y001548D02*
X018935Y001881D01*
X018076Y001881D02*
X018076Y001381D01*
X022545Y001381D02*
X022795Y001381D01*
X022878Y001464D01*
X022878Y001798D01*
X022795Y001881D01*
X022545Y001881D01*
X022545Y001381D01*
X023060Y001381D02*
X023060Y001881D01*
X023310Y001881D01*
X023394Y001798D01*
X023394Y001631D01*
X023310Y001548D01*
X023060Y001548D01*
X023227Y001548D02*
X023394Y001381D01*
X023576Y001464D02*
X023659Y001381D01*
X023826Y001381D01*
X023909Y001464D01*
X023909Y001548D01*
X023826Y001631D01*
X023659Y001631D01*
X023576Y001714D01*
X023576Y001798D01*
X023659Y001881D01*
X023826Y001881D01*
X023909Y001798D01*
X024091Y001798D02*
X024091Y001714D01*
X024175Y001631D01*
X024342Y001631D01*
X024425Y001548D01*
X024425Y001464D01*
X024342Y001381D01*
X024175Y001381D01*
X024091Y001464D01*
X024091Y001798D02*
X024175Y001881D01*
X024342Y001881D01*
X024425Y001798D01*
X024607Y001881D02*
X024941Y001881D01*
X024774Y001881D02*
X024774Y001381D01*
X025123Y001464D02*
X025206Y001381D01*
X025373Y001381D01*
X025456Y001464D01*
X025123Y001464D02*
X025123Y001798D01*
X025206Y001881D01*
X025373Y001881D01*
X025456Y001798D01*
X026154Y001881D02*
X026154Y001381D01*
X026404Y001381D01*
X026488Y001464D01*
X026488Y001798D01*
X026404Y001881D01*
X026154Y001881D01*
X026670Y001881D02*
X026920Y001881D01*
X027003Y001798D01*
X027003Y001631D01*
X026920Y001548D01*
X026670Y001548D01*
X026836Y001548D02*
X027003Y001381D01*
X027185Y001381D02*
X027352Y001381D01*
X027269Y001381D02*
X027269Y001881D01*
X027352Y001881D02*
X027185Y001881D01*
X027529Y001881D02*
X027529Y001548D01*
X027696Y001381D01*
X027863Y001548D01*
X027863Y001881D01*
X028045Y001881D02*
X028045Y001381D01*
X028378Y001381D01*
X028560Y001381D02*
X028560Y001881D01*
X028811Y001881D01*
X028894Y001798D01*
X028894Y001631D01*
X028811Y001548D01*
X028560Y001548D01*
X028727Y001548D02*
X028894Y001381D01*
X028211Y001631D02*
X028045Y001631D01*
X028045Y001881D02*
X028378Y001881D01*
X026670Y001881D02*
X026670Y001381D01*
X031760Y001548D02*
X031927Y001381D01*
X032094Y001548D01*
X032094Y001881D01*
X032276Y001798D02*
X032359Y001881D01*
X032526Y001881D01*
X032609Y001798D01*
X032609Y001714D01*
X032276Y001381D01*
X032609Y001381D01*
X032791Y001381D02*
X032875Y001381D01*
X032875Y001464D01*
X032791Y001464D01*
X032791Y001381D01*
X033049Y001381D02*
X033049Y001464D01*
X033383Y001798D01*
X033383Y001881D01*
X033049Y001881D01*
X034080Y001881D02*
X034080Y001381D01*
X034080Y001548D02*
X034331Y001548D01*
X034414Y001631D01*
X034414Y001798D01*
X034331Y001881D01*
X034080Y001881D01*
X034247Y001548D02*
X034414Y001381D01*
X034596Y001381D02*
X034930Y001381D01*
X035112Y001548D02*
X035278Y001381D01*
X035445Y001548D01*
X035445Y001881D01*
X035112Y001881D02*
X035112Y001548D01*
X034763Y001631D02*
X034596Y001631D01*
X034596Y001881D02*
X034596Y001381D01*
X034596Y001881D02*
X034930Y001881D01*
X036143Y001798D02*
X036143Y001464D01*
X036226Y001381D01*
X036393Y001381D01*
X036477Y001464D01*
X037174Y001381D02*
X037508Y001714D01*
X037508Y001798D01*
X037424Y001881D01*
X037258Y001881D01*
X037174Y001798D01*
X036477Y001798D02*
X036393Y001881D01*
X036226Y001881D01*
X036143Y001798D01*
X037174Y001381D02*
X037508Y001381D01*
X037690Y001464D02*
X038023Y001798D01*
X038023Y001464D01*
X037940Y001381D01*
X037773Y001381D01*
X037690Y001464D01*
X037690Y001798D01*
X037773Y001881D01*
X037940Y001881D01*
X038023Y001798D01*
X038205Y001714D02*
X038372Y001881D01*
X038372Y001381D01*
X038205Y001381D02*
X038539Y001381D01*
X038721Y001631D02*
X039055Y001631D01*
X038971Y001381D02*
X038971Y001881D01*
X038721Y001631D01*
X040786Y002126D02*
X040788Y002177D01*
X040794Y002228D01*
X040804Y002278D01*
X040817Y002328D01*
X040835Y002376D01*
X040855Y002423D01*
X040880Y002468D01*
X040908Y002511D01*
X040939Y002552D01*
X040973Y002590D01*
X041010Y002625D01*
X041049Y002658D01*
X041091Y002688D01*
X041135Y002714D01*
X041181Y002736D01*
X041229Y002756D01*
X041278Y002771D01*
X041328Y002783D01*
X041378Y002791D01*
X041429Y002795D01*
X041481Y002795D01*
X041532Y002791D01*
X041582Y002783D01*
X041632Y002771D01*
X041681Y002756D01*
X041729Y002736D01*
X041775Y002714D01*
X041819Y002688D01*
X041861Y002658D01*
X041900Y002625D01*
X041937Y002590D01*
X041971Y002552D01*
X042002Y002511D01*
X042030Y002468D01*
X042055Y002423D01*
X042075Y002376D01*
X042093Y002328D01*
X042106Y002278D01*
X042116Y002228D01*
X042122Y002177D01*
X042124Y002126D01*
X042122Y002075D01*
X042116Y002024D01*
X042106Y001974D01*
X042093Y001924D01*
X042075Y001876D01*
X042055Y001829D01*
X042030Y001784D01*
X042002Y001741D01*
X041971Y001700D01*
X041937Y001662D01*
X041900Y001627D01*
X041861Y001594D01*
X041819Y001564D01*
X041775Y001538D01*
X041729Y001516D01*
X041681Y001496D01*
X041632Y001481D01*
X041582Y001469D01*
X041532Y001461D01*
X041481Y001457D01*
X041429Y001457D01*
X041378Y001461D01*
X041328Y001469D01*
X041278Y001481D01*
X041229Y001496D01*
X041181Y001516D01*
X041135Y001538D01*
X041091Y001564D01*
X041049Y001594D01*
X041010Y001627D01*
X040973Y001662D01*
X040939Y001700D01*
X040908Y001741D01*
X040880Y001784D01*
X040855Y001829D01*
X040835Y001876D01*
X040817Y001924D01*
X040804Y001974D01*
X040794Y002024D01*
X040788Y002075D01*
X040786Y002126D01*
X040105Y002126D02*
X040107Y002199D01*
X040113Y002272D01*
X040123Y002344D01*
X040137Y002416D01*
X040154Y002487D01*
X040176Y002557D01*
X040201Y002626D01*
X040230Y002693D01*
X040262Y002758D01*
X040298Y002822D01*
X040338Y002884D01*
X040380Y002943D01*
X040426Y003000D01*
X040475Y003054D01*
X040527Y003106D01*
X040581Y003155D01*
X040638Y003201D01*
X040697Y003243D01*
X040759Y003283D01*
X040823Y003319D01*
X040888Y003351D01*
X040955Y003380D01*
X041024Y003405D01*
X041094Y003427D01*
X041165Y003444D01*
X041237Y003458D01*
X041309Y003468D01*
X041382Y003474D01*
X041455Y003476D01*
X041528Y003474D01*
X041601Y003468D01*
X041673Y003458D01*
X041745Y003444D01*
X041816Y003427D01*
X041886Y003405D01*
X041955Y003380D01*
X042022Y003351D01*
X042087Y003319D01*
X042151Y003283D01*
X042213Y003243D01*
X042272Y003201D01*
X042329Y003155D01*
X042383Y003106D01*
X042435Y003054D01*
X042484Y003000D01*
X042530Y002943D01*
X042572Y002884D01*
X042612Y002822D01*
X042648Y002758D01*
X042680Y002693D01*
X042709Y002626D01*
X042734Y002557D01*
X042756Y002487D01*
X042773Y002416D01*
X042787Y002344D01*
X042797Y002272D01*
X042803Y002199D01*
X042805Y002126D01*
X042803Y002053D01*
X042797Y001980D01*
X042787Y001908D01*
X042773Y001836D01*
X042756Y001765D01*
X042734Y001695D01*
X042709Y001626D01*
X042680Y001559D01*
X042648Y001494D01*
X042612Y001430D01*
X042572Y001368D01*
X042530Y001309D01*
X042484Y001252D01*
X042435Y001198D01*
X042383Y001146D01*
X042329Y001097D01*
X042272Y001051D01*
X042213Y001009D01*
X042151Y000969D01*
X042087Y000933D01*
X042022Y000901D01*
X041955Y000872D01*
X041886Y000847D01*
X041816Y000825D01*
X041745Y000808D01*
X041673Y000794D01*
X041601Y000784D01*
X041528Y000778D01*
X041455Y000776D01*
X041382Y000778D01*
X041309Y000784D01*
X041237Y000794D01*
X041165Y000808D01*
X041094Y000825D01*
X041024Y000847D01*
X040955Y000872D01*
X040888Y000901D01*
X040823Y000933D01*
X040759Y000969D01*
X040697Y001009D01*
X040638Y001051D01*
X040581Y001097D01*
X040527Y001146D01*
X040475Y001198D01*
X040426Y001252D01*
X040380Y001309D01*
X040338Y001368D01*
X040298Y001430D01*
X040262Y001494D01*
X040230Y001559D01*
X040201Y001626D01*
X040176Y001695D01*
X040154Y001765D01*
X040137Y001836D01*
X040123Y001908D01*
X040113Y001980D01*
X040107Y002053D01*
X040105Y002126D01*
X031760Y001881D02*
X031760Y001548D01*
X026430Y005231D02*
X023230Y005231D01*
X023207Y005233D01*
X023184Y005238D01*
X023162Y005247D01*
X023142Y005260D01*
X023124Y005275D01*
X023109Y005293D01*
X023096Y005313D01*
X023087Y005335D01*
X023082Y005358D01*
X023080Y005381D01*
X023080Y005801D01*
X023080Y006201D01*
X023080Y006621D01*
X023082Y006644D01*
X023087Y006667D01*
X023096Y006689D01*
X023109Y006709D01*
X023124Y006727D01*
X023142Y006742D01*
X023162Y006755D01*
X023184Y006764D01*
X023207Y006769D01*
X023230Y006771D01*
X026430Y006771D01*
X026453Y006769D01*
X026476Y006764D01*
X026498Y006755D01*
X026518Y006742D01*
X026536Y006727D01*
X026551Y006709D01*
X026564Y006689D01*
X026573Y006667D01*
X026578Y006644D01*
X026580Y006621D01*
X026580Y005381D01*
X026578Y005358D01*
X026573Y005335D01*
X026564Y005313D01*
X026551Y005293D01*
X026536Y005275D01*
X026518Y005260D01*
X026498Y005247D01*
X026476Y005238D01*
X026453Y005233D01*
X026430Y005231D01*
X023080Y005801D02*
X023107Y005803D01*
X023134Y005808D01*
X023160Y005818D01*
X023184Y005830D01*
X023206Y005846D01*
X023226Y005864D01*
X023243Y005886D01*
X023258Y005909D01*
X023268Y005934D01*
X023276Y005960D01*
X023280Y005987D01*
X023280Y006015D01*
X023276Y006042D01*
X023268Y006068D01*
X023258Y006093D01*
X023243Y006116D01*
X023226Y006138D01*
X023206Y006156D01*
X023184Y006172D01*
X023160Y006184D01*
X023134Y006194D01*
X023107Y006199D01*
X023080Y006201D01*
X027080Y009251D02*
X027330Y009001D01*
X028830Y009001D01*
X029080Y009251D01*
X029080Y009751D01*
X028830Y010001D01*
X027330Y010001D01*
X027080Y010251D01*
X027080Y010751D01*
X027330Y011001D01*
X027080Y011251D01*
X027080Y011751D01*
X027330Y012001D01*
X028830Y012001D01*
X029080Y011751D01*
X029080Y011251D01*
X028830Y011001D01*
X027330Y011001D01*
X028830Y011001D02*
X029080Y010751D01*
X029080Y010251D01*
X028830Y010001D01*
X027330Y010001D02*
X027080Y009751D01*
X027080Y009251D01*
X029480Y010501D02*
X029482Y010581D01*
X029488Y010660D01*
X029498Y010739D01*
X029512Y010818D01*
X029529Y010896D01*
X029551Y010973D01*
X029576Y011048D01*
X029606Y011122D01*
X029638Y011195D01*
X029675Y011266D01*
X029715Y011335D01*
X029758Y011402D01*
X029805Y011467D01*
X029854Y011529D01*
X029907Y011589D01*
X029963Y011646D01*
X030021Y011701D01*
X030082Y011752D01*
X030146Y011800D01*
X030212Y011845D01*
X030280Y011887D01*
X030350Y011925D01*
X030422Y011959D01*
X030495Y011990D01*
X030570Y012018D01*
X030647Y012041D01*
X030724Y012061D01*
X030802Y012077D01*
X030881Y012089D01*
X030960Y012097D01*
X031040Y012101D01*
X031120Y012101D01*
X031200Y012097D01*
X031279Y012089D01*
X031358Y012077D01*
X031436Y012061D01*
X031513Y012041D01*
X031590Y012018D01*
X031665Y011990D01*
X031738Y011959D01*
X031810Y011925D01*
X031880Y011887D01*
X031948Y011845D01*
X032014Y011800D01*
X032078Y011752D01*
X032139Y011701D01*
X032197Y011646D01*
X032253Y011589D01*
X032306Y011529D01*
X032355Y011467D01*
X032402Y011402D01*
X032445Y011335D01*
X032485Y011266D01*
X032522Y011195D01*
X032554Y011122D01*
X032584Y011048D01*
X032609Y010973D01*
X032631Y010896D01*
X032648Y010818D01*
X032662Y010739D01*
X032672Y010660D01*
X032678Y010581D01*
X032680Y010501D01*
X032678Y010421D01*
X032672Y010342D01*
X032662Y010263D01*
X032648Y010184D01*
X032631Y010106D01*
X032609Y010029D01*
X032584Y009954D01*
X032554Y009880D01*
X032522Y009807D01*
X032485Y009736D01*
X032445Y009667D01*
X032402Y009600D01*
X032355Y009535D01*
X032306Y009473D01*
X032253Y009413D01*
X032197Y009356D01*
X032139Y009301D01*
X032078Y009250D01*
X032014Y009202D01*
X031948Y009157D01*
X031880Y009115D01*
X031810Y009077D01*
X031738Y009043D01*
X031665Y009012D01*
X031590Y008984D01*
X031513Y008961D01*
X031436Y008941D01*
X031358Y008925D01*
X031279Y008913D01*
X031200Y008905D01*
X031120Y008901D01*
X031040Y008901D01*
X030960Y008905D01*
X030881Y008913D01*
X030802Y008925D01*
X030724Y008941D01*
X030647Y008961D01*
X030570Y008984D01*
X030495Y009012D01*
X030422Y009043D01*
X030350Y009077D01*
X030280Y009115D01*
X030212Y009157D01*
X030146Y009202D01*
X030082Y009250D01*
X030021Y009301D01*
X029963Y009356D01*
X029907Y009413D01*
X029854Y009473D01*
X029805Y009535D01*
X029758Y009600D01*
X029715Y009667D01*
X029675Y009736D01*
X029638Y009807D01*
X029606Y009880D01*
X029576Y009954D01*
X029551Y010029D01*
X029529Y010106D01*
X029512Y010184D01*
X029498Y010263D01*
X029488Y010342D01*
X029482Y010421D01*
X029480Y010501D01*
X032130Y010051D02*
X032430Y010051D01*
X032280Y010201D02*
X032280Y009901D01*
X025600Y013401D02*
X025600Y016601D01*
X025598Y016624D01*
X025593Y016647D01*
X025584Y016669D01*
X025571Y016689D01*
X025556Y016707D01*
X025538Y016722D01*
X025518Y016735D01*
X025496Y016744D01*
X025473Y016749D01*
X025450Y016751D01*
X025030Y016751D01*
X024630Y016751D01*
X024210Y016751D01*
X024187Y016749D01*
X024164Y016744D01*
X024142Y016735D01*
X024122Y016722D01*
X024104Y016707D01*
X024089Y016689D01*
X024076Y016669D01*
X024067Y016647D01*
X024062Y016624D01*
X024060Y016601D01*
X024060Y013401D01*
X024062Y013378D01*
X024067Y013355D01*
X024076Y013333D01*
X024089Y013313D01*
X024104Y013295D01*
X024122Y013280D01*
X024142Y013267D01*
X024164Y013258D01*
X024187Y013253D01*
X024210Y013251D01*
X025450Y013251D01*
X025473Y013253D01*
X025496Y013258D01*
X025518Y013267D01*
X025538Y013280D01*
X025556Y013295D01*
X025571Y013313D01*
X025584Y013333D01*
X025593Y013355D01*
X025598Y013378D01*
X025600Y013401D01*
X025030Y016751D02*
X025028Y016724D01*
X025023Y016697D01*
X025013Y016671D01*
X025001Y016647D01*
X024985Y016625D01*
X024967Y016605D01*
X024945Y016588D01*
X024922Y016573D01*
X024897Y016563D01*
X024871Y016555D01*
X024844Y016551D01*
X024816Y016551D01*
X024789Y016555D01*
X024763Y016563D01*
X024738Y016573D01*
X024715Y016588D01*
X024693Y016605D01*
X024675Y016625D01*
X024659Y016647D01*
X024647Y016671D01*
X024637Y016697D01*
X024632Y016724D01*
X024630Y016751D01*
X026871Y017991D02*
X026871Y018028D01*
X026871Y017991D02*
X027489Y017991D01*
X027489Y018028D01*
X027489Y018345D02*
X027489Y018756D01*
X027489Y019074D02*
X027489Y019111D01*
X026871Y019111D01*
X026871Y019074D01*
X026871Y018756D02*
X026871Y018719D01*
X026871Y018382D02*
X026871Y018345D01*
X027130Y019551D02*
X026330Y019551D01*
X026230Y019651D01*
X026230Y020451D01*
X026330Y020551D01*
X027130Y020551D01*
X027230Y020451D01*
X027330Y020551D01*
X028130Y020551D01*
X028230Y020451D01*
X028230Y019651D01*
X028130Y019551D01*
X027330Y019551D01*
X027230Y019651D01*
X027130Y019551D01*
X029730Y019951D02*
X030030Y019951D01*
X029880Y019801D02*
X029880Y020101D01*
X029480Y019501D02*
X029482Y019581D01*
X029488Y019660D01*
X029498Y019739D01*
X029512Y019818D01*
X029529Y019896D01*
X029551Y019973D01*
X029576Y020048D01*
X029606Y020122D01*
X029638Y020195D01*
X029675Y020266D01*
X029715Y020335D01*
X029758Y020402D01*
X029805Y020467D01*
X029854Y020529D01*
X029907Y020589D01*
X029963Y020646D01*
X030021Y020701D01*
X030082Y020752D01*
X030146Y020800D01*
X030212Y020845D01*
X030280Y020887D01*
X030350Y020925D01*
X030422Y020959D01*
X030495Y020990D01*
X030570Y021018D01*
X030647Y021041D01*
X030724Y021061D01*
X030802Y021077D01*
X030881Y021089D01*
X030960Y021097D01*
X031040Y021101D01*
X031120Y021101D01*
X031200Y021097D01*
X031279Y021089D01*
X031358Y021077D01*
X031436Y021061D01*
X031513Y021041D01*
X031590Y021018D01*
X031665Y020990D01*
X031738Y020959D01*
X031810Y020925D01*
X031880Y020887D01*
X031948Y020845D01*
X032014Y020800D01*
X032078Y020752D01*
X032139Y020701D01*
X032197Y020646D01*
X032253Y020589D01*
X032306Y020529D01*
X032355Y020467D01*
X032402Y020402D01*
X032445Y020335D01*
X032485Y020266D01*
X032522Y020195D01*
X032554Y020122D01*
X032584Y020048D01*
X032609Y019973D01*
X032631Y019896D01*
X032648Y019818D01*
X032662Y019739D01*
X032672Y019660D01*
X032678Y019581D01*
X032680Y019501D01*
X032678Y019421D01*
X032672Y019342D01*
X032662Y019263D01*
X032648Y019184D01*
X032631Y019106D01*
X032609Y019029D01*
X032584Y018954D01*
X032554Y018880D01*
X032522Y018807D01*
X032485Y018736D01*
X032445Y018667D01*
X032402Y018600D01*
X032355Y018535D01*
X032306Y018473D01*
X032253Y018413D01*
X032197Y018356D01*
X032139Y018301D01*
X032078Y018250D01*
X032014Y018202D01*
X031948Y018157D01*
X031880Y018115D01*
X031810Y018077D01*
X031738Y018043D01*
X031665Y018012D01*
X031590Y017984D01*
X031513Y017961D01*
X031436Y017941D01*
X031358Y017925D01*
X031279Y017913D01*
X031200Y017905D01*
X031120Y017901D01*
X031040Y017901D01*
X030960Y017905D01*
X030881Y017913D01*
X030802Y017925D01*
X030724Y017941D01*
X030647Y017961D01*
X030570Y017984D01*
X030495Y018012D01*
X030422Y018043D01*
X030350Y018077D01*
X030280Y018115D01*
X030212Y018157D01*
X030146Y018202D01*
X030082Y018250D01*
X030021Y018301D01*
X029963Y018356D01*
X029907Y018413D01*
X029854Y018473D01*
X029805Y018535D01*
X029758Y018600D01*
X029715Y018667D01*
X029675Y018736D01*
X029638Y018807D01*
X029606Y018880D01*
X029576Y018954D01*
X029551Y019029D01*
X029529Y019106D01*
X029512Y019184D01*
X029498Y019263D01*
X029488Y019342D01*
X029482Y019421D01*
X029480Y019501D01*
X027280Y021301D02*
X026980Y021301D01*
X027130Y021151D02*
X027130Y021451D01*
X025980Y022501D02*
X025982Y022581D01*
X025988Y022660D01*
X025998Y022739D01*
X026012Y022818D01*
X026029Y022896D01*
X026051Y022973D01*
X026076Y023048D01*
X026106Y023122D01*
X026138Y023195D01*
X026175Y023266D01*
X026215Y023335D01*
X026258Y023402D01*
X026305Y023467D01*
X026354Y023529D01*
X026407Y023589D01*
X026463Y023646D01*
X026521Y023701D01*
X026582Y023752D01*
X026646Y023800D01*
X026712Y023845D01*
X026780Y023887D01*
X026850Y023925D01*
X026922Y023959D01*
X026995Y023990D01*
X027070Y024018D01*
X027147Y024041D01*
X027224Y024061D01*
X027302Y024077D01*
X027381Y024089D01*
X027460Y024097D01*
X027540Y024101D01*
X027620Y024101D01*
X027700Y024097D01*
X027779Y024089D01*
X027858Y024077D01*
X027936Y024061D01*
X028013Y024041D01*
X028090Y024018D01*
X028165Y023990D01*
X028238Y023959D01*
X028310Y023925D01*
X028380Y023887D01*
X028448Y023845D01*
X028514Y023800D01*
X028578Y023752D01*
X028639Y023701D01*
X028697Y023646D01*
X028753Y023589D01*
X028806Y023529D01*
X028855Y023467D01*
X028902Y023402D01*
X028945Y023335D01*
X028985Y023266D01*
X029022Y023195D01*
X029054Y023122D01*
X029084Y023048D01*
X029109Y022973D01*
X029131Y022896D01*
X029148Y022818D01*
X029162Y022739D01*
X029172Y022660D01*
X029178Y022581D01*
X029180Y022501D01*
X029178Y022421D01*
X029172Y022342D01*
X029162Y022263D01*
X029148Y022184D01*
X029131Y022106D01*
X029109Y022029D01*
X029084Y021954D01*
X029054Y021880D01*
X029022Y021807D01*
X028985Y021736D01*
X028945Y021667D01*
X028902Y021600D01*
X028855Y021535D01*
X028806Y021473D01*
X028753Y021413D01*
X028697Y021356D01*
X028639Y021301D01*
X028578Y021250D01*
X028514Y021202D01*
X028448Y021157D01*
X028380Y021115D01*
X028310Y021077D01*
X028238Y021043D01*
X028165Y021012D01*
X028090Y020984D01*
X028013Y020961D01*
X027936Y020941D01*
X027858Y020925D01*
X027779Y020913D01*
X027700Y020905D01*
X027620Y020901D01*
X027540Y020901D01*
X027460Y020905D01*
X027381Y020913D01*
X027302Y020925D01*
X027224Y020941D01*
X027147Y020961D01*
X027070Y020984D01*
X026995Y021012D01*
X026922Y021043D01*
X026850Y021077D01*
X026780Y021115D01*
X026712Y021157D01*
X026646Y021202D01*
X026582Y021250D01*
X026521Y021301D01*
X026463Y021356D01*
X026407Y021413D01*
X026354Y021473D01*
X026305Y021535D01*
X026258Y021600D01*
X026215Y021667D01*
X026175Y021736D01*
X026138Y021807D01*
X026106Y021880D01*
X026076Y021954D01*
X026051Y022029D01*
X026029Y022106D01*
X026012Y022184D01*
X025998Y022263D01*
X025988Y022342D01*
X025982Y022421D01*
X025980Y022501D01*
X022480Y022451D02*
X022482Y022531D01*
X022488Y022610D01*
X022498Y022689D01*
X022512Y022768D01*
X022529Y022846D01*
X022551Y022923D01*
X022576Y022998D01*
X022606Y023072D01*
X022638Y023145D01*
X022675Y023216D01*
X022715Y023285D01*
X022758Y023352D01*
X022805Y023417D01*
X022854Y023479D01*
X022907Y023539D01*
X022963Y023596D01*
X023021Y023651D01*
X023082Y023702D01*
X023146Y023750D01*
X023212Y023795D01*
X023280Y023837D01*
X023350Y023875D01*
X023422Y023909D01*
X023495Y023940D01*
X023570Y023968D01*
X023647Y023991D01*
X023724Y024011D01*
X023802Y024027D01*
X023881Y024039D01*
X023960Y024047D01*
X024040Y024051D01*
X024120Y024051D01*
X024200Y024047D01*
X024279Y024039D01*
X024358Y024027D01*
X024436Y024011D01*
X024513Y023991D01*
X024590Y023968D01*
X024665Y023940D01*
X024738Y023909D01*
X024810Y023875D01*
X024880Y023837D01*
X024948Y023795D01*
X025014Y023750D01*
X025078Y023702D01*
X025139Y023651D01*
X025197Y023596D01*
X025253Y023539D01*
X025306Y023479D01*
X025355Y023417D01*
X025402Y023352D01*
X025445Y023285D01*
X025485Y023216D01*
X025522Y023145D01*
X025554Y023072D01*
X025584Y022998D01*
X025609Y022923D01*
X025631Y022846D01*
X025648Y022768D01*
X025662Y022689D01*
X025672Y022610D01*
X025678Y022531D01*
X025680Y022451D01*
X025678Y022371D01*
X025672Y022292D01*
X025662Y022213D01*
X025648Y022134D01*
X025631Y022056D01*
X025609Y021979D01*
X025584Y021904D01*
X025554Y021830D01*
X025522Y021757D01*
X025485Y021686D01*
X025445Y021617D01*
X025402Y021550D01*
X025355Y021485D01*
X025306Y021423D01*
X025253Y021363D01*
X025197Y021306D01*
X025139Y021251D01*
X025078Y021200D01*
X025014Y021152D01*
X024948Y021107D01*
X024880Y021065D01*
X024810Y021027D01*
X024738Y020993D01*
X024665Y020962D01*
X024590Y020934D01*
X024513Y020911D01*
X024436Y020891D01*
X024358Y020875D01*
X024279Y020863D01*
X024200Y020855D01*
X024120Y020851D01*
X024040Y020851D01*
X023960Y020855D01*
X023881Y020863D01*
X023802Y020875D01*
X023724Y020891D01*
X023647Y020911D01*
X023570Y020934D01*
X023495Y020962D01*
X023422Y020993D01*
X023350Y021027D01*
X023280Y021065D01*
X023212Y021107D01*
X023146Y021152D01*
X023082Y021200D01*
X023021Y021251D01*
X022963Y021306D01*
X022907Y021363D01*
X022854Y021423D01*
X022805Y021485D01*
X022758Y021550D01*
X022715Y021617D01*
X022675Y021686D01*
X022638Y021757D01*
X022606Y021830D01*
X022576Y021904D01*
X022551Y021979D01*
X022529Y022056D01*
X022512Y022134D01*
X022498Y022213D01*
X022488Y022292D01*
X022482Y022371D01*
X022480Y022451D01*
X023630Y021401D02*
X023630Y021101D01*
X023780Y021251D02*
X023480Y021251D01*
X018880Y022426D02*
X018882Y022506D01*
X018888Y022585D01*
X018898Y022664D01*
X018912Y022743D01*
X018929Y022821D01*
X018951Y022898D01*
X018976Y022973D01*
X019006Y023047D01*
X019038Y023120D01*
X019075Y023191D01*
X019115Y023260D01*
X019158Y023327D01*
X019205Y023392D01*
X019254Y023454D01*
X019307Y023514D01*
X019363Y023571D01*
X019421Y023626D01*
X019482Y023677D01*
X019546Y023725D01*
X019612Y023770D01*
X019680Y023812D01*
X019750Y023850D01*
X019822Y023884D01*
X019895Y023915D01*
X019970Y023943D01*
X020047Y023966D01*
X020124Y023986D01*
X020202Y024002D01*
X020281Y024014D01*
X020360Y024022D01*
X020440Y024026D01*
X020520Y024026D01*
X020600Y024022D01*
X020679Y024014D01*
X020758Y024002D01*
X020836Y023986D01*
X020913Y023966D01*
X020990Y023943D01*
X021065Y023915D01*
X021138Y023884D01*
X021210Y023850D01*
X021280Y023812D01*
X021348Y023770D01*
X021414Y023725D01*
X021478Y023677D01*
X021539Y023626D01*
X021597Y023571D01*
X021653Y023514D01*
X021706Y023454D01*
X021755Y023392D01*
X021802Y023327D01*
X021845Y023260D01*
X021885Y023191D01*
X021922Y023120D01*
X021954Y023047D01*
X021984Y022973D01*
X022009Y022898D01*
X022031Y022821D01*
X022048Y022743D01*
X022062Y022664D01*
X022072Y022585D01*
X022078Y022506D01*
X022080Y022426D01*
X022078Y022346D01*
X022072Y022267D01*
X022062Y022188D01*
X022048Y022109D01*
X022031Y022031D01*
X022009Y021954D01*
X021984Y021879D01*
X021954Y021805D01*
X021922Y021732D01*
X021885Y021661D01*
X021845Y021592D01*
X021802Y021525D01*
X021755Y021460D01*
X021706Y021398D01*
X021653Y021338D01*
X021597Y021281D01*
X021539Y021226D01*
X021478Y021175D01*
X021414Y021127D01*
X021348Y021082D01*
X021280Y021040D01*
X021210Y021002D01*
X021138Y020968D01*
X021065Y020937D01*
X020990Y020909D01*
X020913Y020886D01*
X020836Y020866D01*
X020758Y020850D01*
X020679Y020838D01*
X020600Y020830D01*
X020520Y020826D01*
X020440Y020826D01*
X020360Y020830D01*
X020281Y020838D01*
X020202Y020850D01*
X020124Y020866D01*
X020047Y020886D01*
X019970Y020909D01*
X019895Y020937D01*
X019822Y020968D01*
X019750Y021002D01*
X019680Y021040D01*
X019612Y021082D01*
X019546Y021127D01*
X019482Y021175D01*
X019421Y021226D01*
X019363Y021281D01*
X019307Y021338D01*
X019254Y021398D01*
X019205Y021460D01*
X019158Y021525D01*
X019115Y021592D01*
X019075Y021661D01*
X019038Y021732D01*
X019006Y021805D01*
X018976Y021879D01*
X018951Y021954D01*
X018929Y022031D01*
X018912Y022109D01*
X018898Y022188D01*
X018888Y022267D01*
X018882Y022346D01*
X018880Y022426D01*
X019280Y022726D02*
X019280Y023026D01*
X019130Y022876D02*
X019430Y022876D01*
X017200Y019501D02*
X016780Y019501D01*
X016380Y019501D01*
X015960Y019501D01*
X015937Y019499D01*
X015914Y019494D01*
X015892Y019485D01*
X015872Y019472D01*
X015854Y019457D01*
X015839Y019439D01*
X015826Y019419D01*
X015817Y019397D01*
X015812Y019374D01*
X015810Y019351D01*
X015810Y016151D01*
X015812Y016128D01*
X015817Y016105D01*
X015826Y016083D01*
X015839Y016063D01*
X015854Y016045D01*
X015872Y016030D01*
X015892Y016017D01*
X015914Y016008D01*
X015937Y016003D01*
X015960Y016001D01*
X017200Y016001D01*
X017223Y016003D01*
X017246Y016008D01*
X017268Y016017D01*
X017288Y016030D01*
X017306Y016045D01*
X017321Y016063D01*
X017334Y016083D01*
X017343Y016105D01*
X017348Y016128D01*
X017350Y016151D01*
X017350Y019351D01*
X017348Y019374D01*
X017343Y019397D01*
X017334Y019419D01*
X017321Y019439D01*
X017306Y019457D01*
X017288Y019472D01*
X017268Y019485D01*
X017246Y019494D01*
X017223Y019499D01*
X017200Y019501D01*
X016780Y019501D02*
X016778Y019474D01*
X016773Y019447D01*
X016763Y019421D01*
X016751Y019397D01*
X016735Y019375D01*
X016717Y019355D01*
X016695Y019338D01*
X016672Y019323D01*
X016647Y019313D01*
X016621Y019305D01*
X016594Y019301D01*
X016566Y019301D01*
X016539Y019305D01*
X016513Y019313D01*
X016488Y019323D01*
X016465Y019338D01*
X016443Y019355D01*
X016425Y019375D01*
X016409Y019397D01*
X016397Y019421D01*
X016387Y019447D01*
X016382Y019474D01*
X016380Y019501D01*
X010830Y021001D02*
X010830Y016501D01*
X010828Y016471D01*
X010823Y016441D01*
X010814Y016412D01*
X010801Y016385D01*
X010786Y016359D01*
X010767Y016335D01*
X010746Y016314D01*
X010722Y016295D01*
X010696Y016280D01*
X010669Y016267D01*
X010640Y016258D01*
X010610Y016253D01*
X010580Y016251D01*
X006080Y016251D01*
X006050Y016253D01*
X006020Y016258D01*
X005991Y016267D01*
X005964Y016280D01*
X005938Y016295D01*
X005914Y016314D01*
X005893Y016335D01*
X005874Y016359D01*
X005859Y016385D01*
X005846Y016412D01*
X005837Y016441D01*
X005832Y016471D01*
X005830Y016501D01*
X005830Y017001D01*
X005830Y020501D01*
X005830Y021001D01*
X005832Y021031D01*
X005837Y021061D01*
X005846Y021090D01*
X005859Y021117D01*
X005874Y021143D01*
X005893Y021167D01*
X005914Y021188D01*
X005938Y021207D01*
X005964Y021222D01*
X005991Y021235D01*
X006020Y021244D01*
X006050Y021249D01*
X006080Y021251D01*
X010580Y021251D01*
X010610Y021249D01*
X010640Y021244D01*
X010669Y021235D01*
X010696Y021222D01*
X010722Y021207D01*
X010746Y021188D01*
X010767Y021167D01*
X010786Y021143D01*
X010801Y021117D01*
X010814Y021090D01*
X010823Y021061D01*
X010828Y021031D01*
X010830Y021001D01*
X006536Y023376D02*
X006538Y023427D01*
X006544Y023478D01*
X006554Y023528D01*
X006567Y023578D01*
X006585Y023626D01*
X006605Y023673D01*
X006630Y023718D01*
X006658Y023761D01*
X006689Y023802D01*
X006723Y023840D01*
X006760Y023875D01*
X006799Y023908D01*
X006841Y023938D01*
X006885Y023964D01*
X006931Y023986D01*
X006979Y024006D01*
X007028Y024021D01*
X007078Y024033D01*
X007128Y024041D01*
X007179Y024045D01*
X007231Y024045D01*
X007282Y024041D01*
X007332Y024033D01*
X007382Y024021D01*
X007431Y024006D01*
X007479Y023986D01*
X007525Y023964D01*
X007569Y023938D01*
X007611Y023908D01*
X007650Y023875D01*
X007687Y023840D01*
X007721Y023802D01*
X007752Y023761D01*
X007780Y023718D01*
X007805Y023673D01*
X007825Y023626D01*
X007843Y023578D01*
X007856Y023528D01*
X007866Y023478D01*
X007872Y023427D01*
X007874Y023376D01*
X007872Y023325D01*
X007866Y023274D01*
X007856Y023224D01*
X007843Y023174D01*
X007825Y023126D01*
X007805Y023079D01*
X007780Y023034D01*
X007752Y022991D01*
X007721Y022950D01*
X007687Y022912D01*
X007650Y022877D01*
X007611Y022844D01*
X007569Y022814D01*
X007525Y022788D01*
X007479Y022766D01*
X007431Y022746D01*
X007382Y022731D01*
X007332Y022719D01*
X007282Y022711D01*
X007231Y022707D01*
X007179Y022707D01*
X007128Y022711D01*
X007078Y022719D01*
X007028Y022731D01*
X006979Y022746D01*
X006931Y022766D01*
X006885Y022788D01*
X006841Y022814D01*
X006799Y022844D01*
X006760Y022877D01*
X006723Y022912D01*
X006689Y022950D01*
X006658Y022991D01*
X006630Y023034D01*
X006605Y023079D01*
X006585Y023126D01*
X006567Y023174D01*
X006554Y023224D01*
X006544Y023274D01*
X006538Y023325D01*
X006536Y023376D01*
X005855Y023376D02*
X005857Y023449D01*
X005863Y023522D01*
X005873Y023594D01*
X005887Y023666D01*
X005904Y023737D01*
X005926Y023807D01*
X005951Y023876D01*
X005980Y023943D01*
X006012Y024008D01*
X006048Y024072D01*
X006088Y024134D01*
X006130Y024193D01*
X006176Y024250D01*
X006225Y024304D01*
X006277Y024356D01*
X006331Y024405D01*
X006388Y024451D01*
X006447Y024493D01*
X006509Y024533D01*
X006573Y024569D01*
X006638Y024601D01*
X006705Y024630D01*
X006774Y024655D01*
X006844Y024677D01*
X006915Y024694D01*
X006987Y024708D01*
X007059Y024718D01*
X007132Y024724D01*
X007205Y024726D01*
X007278Y024724D01*
X007351Y024718D01*
X007423Y024708D01*
X007495Y024694D01*
X007566Y024677D01*
X007636Y024655D01*
X007705Y024630D01*
X007772Y024601D01*
X007837Y024569D01*
X007901Y024533D01*
X007963Y024493D01*
X008022Y024451D01*
X008079Y024405D01*
X008133Y024356D01*
X008185Y024304D01*
X008234Y024250D01*
X008280Y024193D01*
X008322Y024134D01*
X008362Y024072D01*
X008398Y024008D01*
X008430Y023943D01*
X008459Y023876D01*
X008484Y023807D01*
X008506Y023737D01*
X008523Y023666D01*
X008537Y023594D01*
X008547Y023522D01*
X008553Y023449D01*
X008555Y023376D01*
X008553Y023303D01*
X008547Y023230D01*
X008537Y023158D01*
X008523Y023086D01*
X008506Y023015D01*
X008484Y022945D01*
X008459Y022876D01*
X008430Y022809D01*
X008398Y022744D01*
X008362Y022680D01*
X008322Y022618D01*
X008280Y022559D01*
X008234Y022502D01*
X008185Y022448D01*
X008133Y022396D01*
X008079Y022347D01*
X008022Y022301D01*
X007963Y022259D01*
X007901Y022219D01*
X007837Y022183D01*
X007772Y022151D01*
X007705Y022122D01*
X007636Y022097D01*
X007566Y022075D01*
X007495Y022058D01*
X007423Y022044D01*
X007351Y022034D01*
X007278Y022028D01*
X007205Y022026D01*
X007132Y022028D01*
X007059Y022034D01*
X006987Y022044D01*
X006915Y022058D01*
X006844Y022075D01*
X006774Y022097D01*
X006705Y022122D01*
X006638Y022151D01*
X006573Y022183D01*
X006509Y022219D01*
X006447Y022259D01*
X006388Y022301D01*
X006331Y022347D01*
X006277Y022396D01*
X006225Y022448D01*
X006176Y022502D01*
X006130Y022559D01*
X006088Y022618D01*
X006048Y022680D01*
X006012Y022744D01*
X005980Y022809D01*
X005951Y022876D01*
X005926Y022945D01*
X005904Y023015D01*
X005887Y023086D01*
X005873Y023158D01*
X005863Y023230D01*
X005857Y023303D01*
X005855Y023376D01*
X005830Y020501D02*
X005730Y020501D01*
X005730Y020401D01*
X005480Y020401D01*
X005280Y020401D01*
X005080Y020401D01*
X004880Y020401D01*
X004680Y020401D01*
X004480Y020401D01*
X004280Y020401D01*
X004080Y020401D01*
X003880Y020401D01*
X003830Y020401D01*
X003830Y020151D01*
X003830Y017351D01*
X003830Y017101D01*
X003930Y017101D01*
X004130Y017101D01*
X004330Y017101D01*
X004530Y017101D01*
X004730Y017101D01*
X004930Y017101D01*
X004880Y020401D01*
X005080Y020401D02*
X005130Y017101D01*
X005330Y017101D01*
X005530Y017101D01*
X005480Y020401D01*
X005280Y020401D02*
X005330Y017101D01*
X005530Y017101D02*
X005730Y017101D01*
X005730Y020401D01*
X004680Y020401D02*
X004730Y017101D01*
X004530Y017101D02*
X004480Y020401D01*
X004280Y020401D02*
X004330Y017101D01*
X004130Y017101D02*
X004080Y020401D01*
X003880Y020401D02*
X003930Y017101D01*
X003830Y017351D02*
X001580Y017351D01*
X001130Y017351D01*
X001130Y017151D01*
X001580Y017151D01*
X001580Y017351D01*
X001130Y017351D02*
X000130Y017351D01*
X000130Y018601D01*
X000130Y018901D01*
X000130Y020151D01*
X001130Y020151D01*
X001580Y020151D01*
X003830Y020151D01*
X002730Y018901D02*
X000130Y018901D01*
X000130Y018601D02*
X002730Y018601D01*
X002753Y018603D01*
X002776Y018608D01*
X002798Y018617D01*
X002818Y018630D01*
X002836Y018645D01*
X002851Y018663D01*
X002864Y018683D01*
X002873Y018705D01*
X002878Y018728D01*
X002880Y018751D01*
X002878Y018774D01*
X002873Y018797D01*
X002864Y018819D01*
X002851Y018839D01*
X002836Y018857D01*
X002818Y018872D01*
X002798Y018885D01*
X002776Y018894D01*
X002753Y018899D01*
X002730Y018901D01*
X001580Y020151D02*
X001580Y020351D01*
X001130Y020351D01*
X001130Y020151D01*
X004930Y017101D02*
X005130Y017101D01*
X005730Y017101D02*
X005730Y017001D01*
X005830Y017001D01*
X010130Y016751D02*
X010132Y016779D01*
X010138Y016806D01*
X010147Y016832D01*
X010160Y016857D01*
X010177Y016880D01*
X010196Y016900D01*
X010218Y016917D01*
X010242Y016931D01*
X010268Y016941D01*
X010295Y016948D01*
X010323Y016951D01*
X010351Y016950D01*
X010378Y016945D01*
X010405Y016936D01*
X010430Y016924D01*
X010453Y016909D01*
X010474Y016890D01*
X010492Y016869D01*
X010507Y016845D01*
X010518Y016819D01*
X010526Y016793D01*
X010530Y016765D01*
X010530Y016737D01*
X010526Y016709D01*
X010518Y016683D01*
X010507Y016657D01*
X010492Y016633D01*
X010474Y016612D01*
X010453Y016593D01*
X010430Y016578D01*
X010405Y016566D01*
X010378Y016557D01*
X010351Y016552D01*
X010323Y016551D01*
X010295Y016554D01*
X010268Y016561D01*
X010242Y016571D01*
X010218Y016585D01*
X010196Y016602D01*
X010177Y016622D01*
X010160Y016645D01*
X010147Y016670D01*
X010138Y016696D01*
X010132Y016723D01*
X010130Y016751D01*
X014642Y014251D02*
X014644Y014292D01*
X014650Y014333D01*
X014660Y014373D01*
X014673Y014412D01*
X014690Y014450D01*
X014711Y014486D01*
X014735Y014519D01*
X014762Y014550D01*
X014792Y014579D01*
X014824Y014605D01*
X014859Y014627D01*
X014896Y014646D01*
X014934Y014661D01*
X014974Y014673D01*
X015014Y014681D01*
X015055Y014685D01*
X015097Y014685D01*
X015138Y014681D01*
X015178Y014673D01*
X015218Y014661D01*
X015256Y014646D01*
X015293Y014627D01*
X015328Y014605D01*
X015360Y014579D01*
X015390Y014550D01*
X015417Y014519D01*
X015441Y014486D01*
X015462Y014450D01*
X015479Y014412D01*
X015492Y014373D01*
X015502Y014333D01*
X015508Y014292D01*
X015510Y014251D01*
X015508Y014210D01*
X015502Y014169D01*
X015492Y014129D01*
X015479Y014090D01*
X015462Y014052D01*
X015441Y014016D01*
X015417Y013983D01*
X015390Y013952D01*
X015360Y013923D01*
X015328Y013897D01*
X015293Y013875D01*
X015256Y013856D01*
X015218Y013841D01*
X015178Y013829D01*
X015138Y013821D01*
X015097Y013817D01*
X015055Y013817D01*
X015014Y013821D01*
X014974Y013829D01*
X014934Y013841D01*
X014896Y013856D01*
X014859Y013875D01*
X014824Y013897D01*
X014792Y013923D01*
X014762Y013952D01*
X014735Y013983D01*
X014711Y014016D01*
X014690Y014052D01*
X014673Y014090D01*
X014660Y014129D01*
X014650Y014169D01*
X014644Y014210D01*
X014642Y014251D01*
X040786Y023376D02*
X040788Y023427D01*
X040794Y023478D01*
X040804Y023528D01*
X040817Y023578D01*
X040835Y023626D01*
X040855Y023673D01*
X040880Y023718D01*
X040908Y023761D01*
X040939Y023802D01*
X040973Y023840D01*
X041010Y023875D01*
X041049Y023908D01*
X041091Y023938D01*
X041135Y023964D01*
X041181Y023986D01*
X041229Y024006D01*
X041278Y024021D01*
X041328Y024033D01*
X041378Y024041D01*
X041429Y024045D01*
X041481Y024045D01*
X041532Y024041D01*
X041582Y024033D01*
X041632Y024021D01*
X041681Y024006D01*
X041729Y023986D01*
X041775Y023964D01*
X041819Y023938D01*
X041861Y023908D01*
X041900Y023875D01*
X041937Y023840D01*
X041971Y023802D01*
X042002Y023761D01*
X042030Y023718D01*
X042055Y023673D01*
X042075Y023626D01*
X042093Y023578D01*
X042106Y023528D01*
X042116Y023478D01*
X042122Y023427D01*
X042124Y023376D01*
X042122Y023325D01*
X042116Y023274D01*
X042106Y023224D01*
X042093Y023174D01*
X042075Y023126D01*
X042055Y023079D01*
X042030Y023034D01*
X042002Y022991D01*
X041971Y022950D01*
X041937Y022912D01*
X041900Y022877D01*
X041861Y022844D01*
X041819Y022814D01*
X041775Y022788D01*
X041729Y022766D01*
X041681Y022746D01*
X041632Y022731D01*
X041582Y022719D01*
X041532Y022711D01*
X041481Y022707D01*
X041429Y022707D01*
X041378Y022711D01*
X041328Y022719D01*
X041278Y022731D01*
X041229Y022746D01*
X041181Y022766D01*
X041135Y022788D01*
X041091Y022814D01*
X041049Y022844D01*
X041010Y022877D01*
X040973Y022912D01*
X040939Y022950D01*
X040908Y022991D01*
X040880Y023034D01*
X040855Y023079D01*
X040835Y023126D01*
X040817Y023174D01*
X040804Y023224D01*
X040794Y023274D01*
X040788Y023325D01*
X040786Y023376D01*
X040105Y023376D02*
X040107Y023449D01*
X040113Y023522D01*
X040123Y023594D01*
X040137Y023666D01*
X040154Y023737D01*
X040176Y023807D01*
X040201Y023876D01*
X040230Y023943D01*
X040262Y024008D01*
X040298Y024072D01*
X040338Y024134D01*
X040380Y024193D01*
X040426Y024250D01*
X040475Y024304D01*
X040527Y024356D01*
X040581Y024405D01*
X040638Y024451D01*
X040697Y024493D01*
X040759Y024533D01*
X040823Y024569D01*
X040888Y024601D01*
X040955Y024630D01*
X041024Y024655D01*
X041094Y024677D01*
X041165Y024694D01*
X041237Y024708D01*
X041309Y024718D01*
X041382Y024724D01*
X041455Y024726D01*
X041528Y024724D01*
X041601Y024718D01*
X041673Y024708D01*
X041745Y024694D01*
X041816Y024677D01*
X041886Y024655D01*
X041955Y024630D01*
X042022Y024601D01*
X042087Y024569D01*
X042151Y024533D01*
X042213Y024493D01*
X042272Y024451D01*
X042329Y024405D01*
X042383Y024356D01*
X042435Y024304D01*
X042484Y024250D01*
X042530Y024193D01*
X042572Y024134D01*
X042612Y024072D01*
X042648Y024008D01*
X042680Y023943D01*
X042709Y023876D01*
X042734Y023807D01*
X042756Y023737D01*
X042773Y023666D01*
X042787Y023594D01*
X042797Y023522D01*
X042803Y023449D01*
X042805Y023376D01*
X042803Y023303D01*
X042797Y023230D01*
X042787Y023158D01*
X042773Y023086D01*
X042756Y023015D01*
X042734Y022945D01*
X042709Y022876D01*
X042680Y022809D01*
X042648Y022744D01*
X042612Y022680D01*
X042572Y022618D01*
X042530Y022559D01*
X042484Y022502D01*
X042435Y022448D01*
X042383Y022396D01*
X042329Y022347D01*
X042272Y022301D01*
X042213Y022259D01*
X042151Y022219D01*
X042087Y022183D01*
X042022Y022151D01*
X041955Y022122D01*
X041886Y022097D01*
X041816Y022075D01*
X041745Y022058D01*
X041673Y022044D01*
X041601Y022034D01*
X041528Y022028D01*
X041455Y022026D01*
X041382Y022028D01*
X041309Y022034D01*
X041237Y022044D01*
X041165Y022058D01*
X041094Y022075D01*
X041024Y022097D01*
X040955Y022122D01*
X040888Y022151D01*
X040823Y022183D01*
X040759Y022219D01*
X040697Y022259D01*
X040638Y022301D01*
X040581Y022347D01*
X040527Y022396D01*
X040475Y022448D01*
X040426Y022502D01*
X040380Y022559D01*
X040338Y022618D01*
X040298Y022680D01*
X040262Y022744D01*
X040230Y022809D01*
X040201Y022876D01*
X040176Y022945D01*
X040154Y023015D01*
X040137Y023086D01*
X040123Y023158D01*
X040113Y023230D01*
X040107Y023303D01*
X040105Y023376D01*
D17*
X038761Y018741D02*
X036399Y018741D01*
X036399Y016261D01*
X038761Y016261D01*
X038761Y014741D02*
X036399Y014741D01*
X036399Y012261D01*
X038761Y012261D01*
X038761Y009991D02*
X036399Y009991D01*
X036399Y007511D01*
X038761Y007511D01*
X038761Y005991D02*
X036399Y005991D01*
X036399Y003511D01*
X038761Y003511D01*
X034230Y004151D02*
X034080Y004401D01*
X033930Y004151D01*
X034230Y004151D01*
X034230Y008151D02*
X033930Y008151D01*
X034080Y008401D01*
X034230Y008151D01*
X034230Y012901D02*
X033930Y012901D01*
X034080Y013151D01*
X034230Y012901D01*
X034230Y016901D02*
X033930Y016901D01*
X034080Y017151D01*
X034230Y016901D01*
X031976Y021615D02*
X030895Y021615D01*
X030520Y022115D02*
X030520Y022572D01*
X030895Y023072D02*
X031976Y023072D01*
X031976Y022740D01*
X031976Y021947D02*
X031976Y021615D01*
X019480Y017701D02*
X019330Y017951D01*
X019180Y017701D01*
X019480Y017701D01*
X013980Y018651D02*
X013830Y018901D01*
X013680Y018651D01*
X013980Y018651D01*
X013230Y018651D02*
X013080Y018901D01*
X012930Y018651D01*
X013230Y018651D01*
X012530Y009901D02*
X012730Y009751D01*
X012530Y009601D01*
X012530Y009901D01*
X010730Y009751D02*
X010530Y009901D01*
X010530Y009601D01*
X010730Y009751D01*
X010530Y008651D02*
X010730Y008501D01*
X010530Y008351D01*
X010530Y008651D01*
X012530Y008651D02*
X012530Y008351D01*
X012730Y008501D01*
X012530Y008651D01*
X016280Y006151D02*
X016430Y005851D01*
X016480Y005851D01*
X016630Y006151D01*
X016280Y006151D01*
X017180Y005851D02*
X017480Y005851D01*
X017330Y006151D01*
X017180Y005851D01*
X013892Y004813D02*
X012947Y004813D01*
X011963Y004813D02*
X011018Y004813D01*
X011018Y001939D01*
X011963Y001939D01*
X012947Y001939D02*
X013892Y001939D01*
X013892Y004813D01*
D18*
X023080Y005371D02*
X026580Y005371D01*
X024200Y013251D02*
X024200Y016751D01*
X015950Y016001D02*
X015950Y019501D01*
D19*
X014730Y006001D03*
X010180Y006001D03*
D20*
X016469Y022442D03*
X016941Y022442D03*
D21*
X016705Y022442D03*
D22*
X025400Y020211D03*
D23*
X036222Y018398D03*
X036222Y017950D03*
X036222Y017501D03*
X036222Y017052D03*
X036222Y016603D03*
X036222Y014398D03*
X036222Y013950D03*
X036222Y013501D03*
X036222Y013052D03*
X036222Y012603D03*
X036222Y009648D03*
X036222Y009200D03*
X036222Y008751D03*
X036222Y008302D03*
X036222Y007853D03*
X036222Y005648D03*
X036222Y005200D03*
X036222Y004751D03*
X036222Y004302D03*
X036222Y003853D03*
D24*
X035995Y003853D03*
X035995Y004302D03*
X035995Y005200D03*
X035995Y005648D03*
X035995Y007853D03*
X035995Y008302D03*
X035995Y009200D03*
X035995Y009648D03*
X035995Y012603D03*
X035995Y013052D03*
X035995Y013950D03*
X035995Y014398D03*
X035995Y016603D03*
X035995Y017052D03*
X035995Y017950D03*
X035995Y018398D03*
D25*
X036113Y017501D03*
X036113Y013501D03*
X036113Y008751D03*
X036113Y004751D03*
M02*
