G75*
%MOIN*%
%OFA0B0*%
%FSLAX24Y24*%
%IPPOS*%
%LPD*%
%AMOC8*
5,1,8,0,0,1.08239X$1,22.5*
%
%ADD10C,0.0000*%
%ADD11C,0.0020*%
%ADD12C,0.0040*%
%ADD13C,0.0030*%
%ADD14C,0.0100*%
%ADD15C,0.0060*%
%ADD16R,0.0240X0.0340*%
%ADD17R,0.0980X0.0560*%
%ADD18C,0.0080*%
%ADD19R,0.0300X0.0340*%
D10*
X005830Y001251D02*
X006330Y000751D01*
X042330Y000751D01*
X042830Y001251D01*
X042830Y024251D01*
X042330Y024751D01*
X006330Y024751D01*
X005830Y024251D01*
X005830Y001251D01*
X006031Y011306D02*
X006033Y011341D01*
X006039Y011376D01*
X006049Y011410D01*
X006062Y011443D01*
X006079Y011474D01*
X006100Y011502D01*
X006123Y011529D01*
X006150Y011552D01*
X006178Y011573D01*
X006209Y011590D01*
X006242Y011603D01*
X006276Y011613D01*
X006311Y011619D01*
X006346Y011621D01*
X006381Y011619D01*
X006416Y011613D01*
X006450Y011603D01*
X006483Y011590D01*
X006514Y011573D01*
X006542Y011552D01*
X006569Y011529D01*
X006592Y011502D01*
X006613Y011474D01*
X006630Y011443D01*
X006643Y011410D01*
X006653Y011376D01*
X006659Y011341D01*
X006661Y011306D01*
X006659Y011271D01*
X006653Y011236D01*
X006643Y011202D01*
X006630Y011169D01*
X006613Y011138D01*
X006592Y011110D01*
X006569Y011083D01*
X006542Y011060D01*
X006514Y011039D01*
X006483Y011022D01*
X006450Y011009D01*
X006416Y010999D01*
X006381Y010993D01*
X006346Y010991D01*
X006311Y010993D01*
X006276Y010999D01*
X006242Y011009D01*
X006209Y011022D01*
X006178Y011039D01*
X006150Y011060D01*
X006123Y011083D01*
X006100Y011110D01*
X006079Y011138D01*
X006062Y011169D01*
X006049Y011202D01*
X006039Y011236D01*
X006033Y011271D01*
X006031Y011306D01*
X006031Y013274D02*
X006033Y013309D01*
X006039Y013344D01*
X006049Y013378D01*
X006062Y013411D01*
X006079Y013442D01*
X006100Y013470D01*
X006123Y013497D01*
X006150Y013520D01*
X006178Y013541D01*
X006209Y013558D01*
X006242Y013571D01*
X006276Y013581D01*
X006311Y013587D01*
X006346Y013589D01*
X006381Y013587D01*
X006416Y013581D01*
X006450Y013571D01*
X006483Y013558D01*
X006514Y013541D01*
X006542Y013520D01*
X006569Y013497D01*
X006592Y013470D01*
X006613Y013442D01*
X006630Y013411D01*
X006643Y013378D01*
X006653Y013344D01*
X006659Y013309D01*
X006661Y013274D01*
X006659Y013239D01*
X006653Y013204D01*
X006643Y013170D01*
X006630Y013137D01*
X006613Y013106D01*
X006592Y013078D01*
X006569Y013051D01*
X006542Y013028D01*
X006514Y013007D01*
X006483Y012990D01*
X006450Y012977D01*
X006416Y012967D01*
X006381Y012961D01*
X006346Y012959D01*
X006311Y012961D01*
X006276Y012967D01*
X006242Y012977D01*
X006209Y012990D01*
X006178Y013007D01*
X006150Y013028D01*
X006123Y013051D01*
X006100Y013078D01*
X006079Y013106D01*
X006062Y013137D01*
X006049Y013170D01*
X006039Y013204D01*
X006033Y013239D01*
X006031Y013274D01*
X008708Y012290D02*
X008710Y012340D01*
X008716Y012390D01*
X008726Y012439D01*
X008740Y012487D01*
X008757Y012534D01*
X008778Y012579D01*
X008803Y012623D01*
X008831Y012664D01*
X008863Y012703D01*
X008897Y012740D01*
X008934Y012774D01*
X008974Y012804D01*
X009016Y012831D01*
X009060Y012855D01*
X009106Y012876D01*
X009153Y012892D01*
X009201Y012905D01*
X009251Y012914D01*
X009300Y012919D01*
X009351Y012920D01*
X009401Y012917D01*
X009450Y012910D01*
X009499Y012899D01*
X009547Y012884D01*
X009593Y012866D01*
X009638Y012844D01*
X009681Y012818D01*
X009722Y012789D01*
X009761Y012757D01*
X009797Y012722D01*
X009829Y012684D01*
X009859Y012644D01*
X009886Y012601D01*
X009909Y012557D01*
X009928Y012511D01*
X009944Y012463D01*
X009956Y012414D01*
X009964Y012365D01*
X009968Y012315D01*
X009968Y012265D01*
X009964Y012215D01*
X009956Y012166D01*
X009944Y012117D01*
X009928Y012069D01*
X009909Y012023D01*
X009886Y011979D01*
X009859Y011936D01*
X009829Y011896D01*
X009797Y011858D01*
X009761Y011823D01*
X009722Y011791D01*
X009681Y011762D01*
X009638Y011736D01*
X009593Y011714D01*
X009547Y011696D01*
X009499Y011681D01*
X009450Y011670D01*
X009401Y011663D01*
X009351Y011660D01*
X009300Y011661D01*
X009251Y011666D01*
X009201Y011675D01*
X009153Y011688D01*
X009106Y011704D01*
X009060Y011725D01*
X009016Y011749D01*
X008974Y011776D01*
X008934Y011806D01*
X008897Y011840D01*
X008863Y011877D01*
X008831Y011916D01*
X008803Y011957D01*
X008778Y012001D01*
X008757Y012046D01*
X008740Y012093D01*
X008726Y012141D01*
X008716Y012190D01*
X008710Y012240D01*
X008708Y012290D01*
D11*
X010375Y023761D02*
X010338Y023798D01*
X010338Y023871D01*
X010411Y023871D01*
X010338Y023944D02*
X010375Y023981D01*
X010448Y023981D01*
X010485Y023944D01*
X010485Y023798D01*
X010448Y023761D01*
X010375Y023761D01*
X010559Y023761D02*
X010632Y023761D01*
X010595Y023761D02*
X010595Y023981D01*
X010559Y023981D02*
X010632Y023981D01*
X010706Y023944D02*
X010743Y023981D01*
X010816Y023981D01*
X010853Y023944D01*
X010853Y023908D01*
X010816Y023871D01*
X010743Y023871D01*
X010706Y023834D01*
X010706Y023798D01*
X010743Y023761D01*
X010816Y023761D01*
X010853Y023798D01*
X011148Y023871D02*
X011295Y023871D01*
X011222Y023944D02*
X011222Y023798D01*
X011797Y023871D02*
X011944Y023871D01*
X012239Y023944D02*
X012276Y023981D01*
X012386Y023981D01*
X012386Y023761D01*
X012276Y023761D01*
X012239Y023798D01*
X012239Y023944D01*
X012460Y023944D02*
X012497Y023981D01*
X012570Y023981D01*
X012607Y023944D01*
X012607Y023798D01*
X012570Y023761D01*
X012497Y023761D01*
X012460Y023798D01*
X012681Y023798D02*
X012681Y023944D01*
X012718Y023981D01*
X012791Y023981D01*
X012828Y023944D01*
X012828Y023798D01*
X012791Y023761D01*
X012718Y023761D01*
X012681Y023798D01*
X013123Y023871D02*
X013270Y023871D01*
X013197Y023944D02*
X013197Y023798D01*
X013772Y023871D02*
X013919Y023871D01*
X014214Y023871D02*
X014251Y023834D01*
X014361Y023834D01*
X014361Y023761D02*
X014361Y023981D01*
X014251Y023981D01*
X014214Y023944D01*
X014214Y023871D01*
X014288Y023834D02*
X014214Y023761D01*
X014435Y023761D02*
X014435Y023981D01*
X014582Y023981D02*
X014582Y023761D01*
X014509Y023834D01*
X014435Y023761D01*
X014656Y023871D02*
X014693Y023834D01*
X014803Y023834D01*
X014803Y023761D02*
X014803Y023981D01*
X014693Y023981D01*
X014656Y023944D01*
X014656Y023871D01*
X015098Y023871D02*
X015245Y023871D01*
X015172Y023944D02*
X015172Y023798D01*
X010043Y023871D02*
X009896Y023871D01*
D12*
X018126Y021031D02*
X018126Y020671D01*
X018246Y020671D02*
X018006Y020671D01*
X018246Y020911D02*
X018126Y021031D01*
X018374Y020971D02*
X018434Y021031D01*
X018554Y021031D01*
X018614Y020971D01*
X018614Y020731D01*
X018554Y020671D01*
X018434Y020671D01*
X018374Y020731D01*
X018740Y020671D02*
X018860Y020671D01*
X018800Y020671D02*
X018800Y021031D01*
X018860Y021031D02*
X018740Y021031D01*
X023188Y018714D02*
X023428Y018714D01*
X023428Y018534D01*
X023308Y018594D01*
X023248Y018594D01*
X023188Y018534D01*
X023188Y018414D01*
X023248Y018354D01*
X023368Y018354D01*
X023428Y018414D01*
X023556Y018414D02*
X023616Y018354D01*
X023737Y018354D01*
X023797Y018414D01*
X023925Y018414D02*
X023985Y018354D01*
X024105Y018354D01*
X024165Y018414D01*
X024165Y018654D01*
X024105Y018714D01*
X023985Y018714D01*
X023925Y018654D01*
X023797Y018654D02*
X023737Y018714D01*
X023616Y018714D01*
X023556Y018654D01*
X023556Y018594D01*
X023616Y018534D01*
X023556Y018474D01*
X023556Y018414D01*
X023616Y018534D02*
X023677Y018534D01*
X023518Y017256D02*
X023698Y017076D01*
X023458Y017076D01*
X023518Y016896D02*
X023518Y017256D01*
X023947Y017256D02*
X023947Y016896D01*
X024067Y016896D02*
X023826Y016896D01*
X024067Y017136D02*
X023947Y017256D01*
X024195Y017196D02*
X024255Y017256D01*
X024435Y017256D01*
X024435Y016896D01*
X024255Y016896D01*
X024195Y016956D01*
X024195Y017196D01*
X026483Y017496D02*
X026723Y017496D01*
X026603Y017496D02*
X026603Y017856D01*
X026723Y017736D01*
X026851Y017736D02*
X026912Y017676D01*
X026851Y017616D01*
X026851Y017556D01*
X026912Y017496D01*
X027032Y017496D01*
X027092Y017556D01*
X027220Y017496D02*
X027340Y017616D01*
X027280Y017616D02*
X027460Y017616D01*
X027460Y017496D02*
X027460Y017856D01*
X027280Y017856D01*
X027220Y017796D01*
X027220Y017676D01*
X027280Y017616D01*
X027092Y017796D02*
X027032Y017856D01*
X026912Y017856D01*
X026851Y017796D01*
X026851Y017736D01*
X026912Y017676D02*
X026972Y017676D01*
X029100Y021421D02*
X029100Y021601D01*
X029160Y021661D01*
X029400Y021661D01*
X029460Y021601D01*
X029460Y021421D01*
X029100Y021421D01*
X029100Y021789D02*
X029100Y022029D01*
X029100Y021909D02*
X029460Y021909D01*
X029340Y021789D01*
X029280Y022157D02*
X029340Y022278D01*
X029340Y022338D01*
X029280Y022398D01*
X029160Y022398D01*
X029100Y022338D01*
X029100Y022218D01*
X029160Y022157D01*
X029280Y022157D02*
X029460Y022157D01*
X029460Y022398D01*
X036406Y019446D02*
X036406Y019386D01*
X036466Y019326D01*
X036406Y019266D01*
X036406Y019206D01*
X036466Y019146D01*
X036586Y019146D01*
X036646Y019206D01*
X036774Y019206D02*
X036834Y019146D01*
X036954Y019146D01*
X037014Y019206D01*
X037014Y019446D01*
X036954Y019506D01*
X036834Y019506D01*
X036774Y019446D01*
X036646Y019446D02*
X036586Y019506D01*
X036466Y019506D01*
X036406Y019446D01*
X036466Y019326D02*
X036526Y019326D01*
X037140Y019146D02*
X037260Y019146D01*
X037200Y019146D02*
X037200Y019506D01*
X037260Y019506D02*
X037140Y019506D01*
X013970Y010973D02*
X013910Y011033D01*
X013850Y011033D01*
X013790Y010973D01*
X013790Y010853D01*
X013850Y010793D01*
X013910Y010793D01*
X013970Y010853D01*
X013970Y010973D01*
X013790Y010973D02*
X013730Y011033D01*
X013670Y011033D01*
X013610Y010973D01*
X013610Y010853D01*
X013670Y010793D01*
X013730Y010793D01*
X013790Y010853D01*
X013850Y010664D02*
X013910Y010664D01*
X013970Y010604D01*
X013970Y010484D01*
X013910Y010424D01*
X013910Y010296D02*
X013790Y010296D01*
X013730Y010236D01*
X013730Y010056D01*
X013610Y010056D02*
X013970Y010056D01*
X013970Y010236D01*
X013910Y010296D01*
X013730Y010176D02*
X013610Y010296D01*
X013610Y010424D02*
X013850Y010664D01*
X013610Y010664D02*
X013610Y010424D01*
X010435Y010529D02*
X010075Y010529D01*
X010075Y010409D02*
X010075Y010649D01*
X010075Y010778D02*
X010135Y010778D01*
X010375Y011018D01*
X010435Y011018D01*
X010435Y010778D01*
X010435Y010529D02*
X010315Y010409D01*
X010255Y010281D02*
X010195Y010221D01*
X010195Y010041D01*
X010075Y010041D02*
X010435Y010041D01*
X010435Y010221D01*
X010375Y010281D01*
X010255Y010281D01*
X010195Y010161D02*
X010075Y010281D01*
X027633Y003071D02*
X027693Y003131D01*
X027813Y003131D01*
X027873Y003071D01*
X027873Y002831D01*
X027813Y002771D01*
X027693Y002771D01*
X027633Y002831D01*
X028001Y002951D02*
X028242Y002951D01*
X028062Y003131D01*
X028062Y002771D01*
X028370Y002831D02*
X028430Y002771D01*
X028550Y002771D01*
X028610Y002831D01*
X028610Y003071D01*
X028550Y003131D01*
X028430Y003131D01*
X028370Y003071D01*
D13*
X028470Y002556D02*
X028422Y002508D01*
X028422Y002314D01*
X028470Y002266D01*
X028567Y002266D01*
X028615Y002314D01*
X028615Y002508D01*
X028567Y002556D01*
X028470Y002556D01*
X028320Y002459D02*
X028175Y002459D01*
X028127Y002411D01*
X028127Y002314D01*
X028175Y002266D01*
X028320Y002266D01*
X028320Y002169D02*
X028320Y002459D01*
X028026Y002459D02*
X027929Y002459D01*
X027977Y002508D02*
X027977Y002314D01*
X027929Y002266D01*
X027829Y002266D02*
X027733Y002266D01*
X027781Y002266D02*
X027781Y002459D01*
X027829Y002459D01*
X027781Y002556D02*
X027781Y002604D01*
X027633Y002411D02*
X027633Y002314D01*
X027584Y002266D01*
X027488Y002266D01*
X027439Y002314D01*
X027439Y002411D01*
X027488Y002459D01*
X027584Y002459D01*
X027633Y002411D01*
X027338Y002459D02*
X027193Y002459D01*
X027145Y002411D01*
X027145Y002266D01*
X027044Y002314D02*
X026995Y002363D01*
X026850Y002363D01*
X026850Y002411D02*
X026850Y002266D01*
X026995Y002266D01*
X027044Y002314D01*
X026995Y002459D02*
X026898Y002459D01*
X026850Y002411D01*
X026749Y002556D02*
X026700Y002556D01*
X026700Y002266D01*
X026652Y002266D02*
X026749Y002266D01*
X027243Y002008D02*
X027291Y002056D01*
X027388Y002056D01*
X027436Y002008D01*
X027436Y001814D01*
X027388Y001766D01*
X027291Y001766D01*
X027243Y001814D01*
X027538Y001814D02*
X027538Y002008D01*
X027586Y002056D01*
X027731Y002056D01*
X027731Y001766D01*
X027586Y001766D01*
X027538Y001814D01*
X027832Y001863D02*
X027832Y002056D01*
X027832Y001863D02*
X027929Y001766D01*
X028026Y001863D01*
X028026Y002056D01*
X028127Y002056D02*
X028320Y002056D01*
X028320Y001911D01*
X028224Y001959D01*
X028175Y001959D01*
X028127Y001911D01*
X028127Y001814D01*
X028175Y001766D01*
X028272Y001766D01*
X028320Y001814D01*
X028422Y001814D02*
X028470Y001766D01*
X028567Y001766D01*
X028615Y001814D01*
X028518Y001911D02*
X028470Y001911D01*
X028422Y001863D01*
X028422Y001814D01*
X028470Y001911D02*
X028422Y001959D01*
X028422Y002008D01*
X028470Y002056D01*
X028567Y002056D01*
X028615Y002008D01*
X027338Y002266D02*
X027338Y002459D01*
X013010Y008564D02*
X012962Y008516D01*
X012768Y008516D01*
X012720Y008564D01*
X012720Y008661D01*
X012768Y008709D01*
X012962Y008709D01*
X013010Y008661D01*
X013010Y008564D01*
X012962Y008810D02*
X013010Y008859D01*
X013010Y008956D01*
X012962Y009004D01*
X013010Y009105D02*
X012720Y009105D01*
X012720Y009250D01*
X012768Y009299D01*
X012962Y009299D01*
X013010Y009250D01*
X013010Y009105D01*
X012768Y009004D02*
X012720Y008956D01*
X012720Y008859D01*
X012768Y008810D01*
X012962Y008810D01*
X012913Y009694D02*
X013010Y009791D01*
X012913Y009694D02*
X012817Y009694D01*
X012720Y009791D01*
X012768Y009891D02*
X012865Y009891D01*
X012913Y009939D01*
X012913Y010036D01*
X012865Y010084D01*
X012817Y010084D01*
X012817Y009891D01*
X012768Y009891D02*
X012720Y009939D01*
X012720Y010036D01*
X012720Y010186D02*
X012913Y010379D01*
X012913Y010480D02*
X012913Y010577D01*
X012962Y010529D02*
X012768Y010529D01*
X012720Y010577D01*
X012720Y010677D02*
X012913Y010677D01*
X012817Y010677D02*
X012913Y010773D01*
X012913Y010822D01*
X012913Y010971D02*
X012913Y011067D01*
X012865Y011116D01*
X012720Y011116D01*
X012720Y010971D01*
X012768Y010922D01*
X012817Y010971D01*
X012817Y011116D01*
X012720Y011217D02*
X012817Y011314D01*
X012913Y011314D01*
X013010Y011217D01*
X012720Y010379D02*
X012913Y010186D01*
X020907Y019641D02*
X020845Y019703D01*
X020845Y019826D01*
X020907Y019888D01*
X020907Y020009D02*
X020845Y020071D01*
X020845Y020194D01*
X020907Y020256D01*
X020968Y020256D01*
X021030Y020194D01*
X021030Y020133D01*
X021030Y020194D02*
X021092Y020256D01*
X021154Y020256D01*
X021215Y020194D01*
X021215Y020071D01*
X021154Y020009D01*
X021154Y019888D02*
X021215Y019826D01*
X021215Y019703D01*
X021154Y019641D01*
X020907Y019641D01*
X020907Y020377D02*
X020845Y020439D01*
X020845Y020563D01*
X020907Y020624D01*
X020968Y020624D01*
X021030Y020563D01*
X021030Y020377D01*
X020907Y020377D01*
X021030Y020377D02*
X021154Y020501D01*
X021215Y020624D01*
D14*
X023830Y017801D02*
X024180Y017601D01*
X023830Y017401D01*
X023830Y017801D01*
X029930Y021701D02*
X029730Y022051D01*
X030130Y022051D01*
X029930Y021701D01*
X032970Y019981D02*
X033670Y019981D01*
X032970Y019981D02*
X032970Y024021D01*
X033670Y024021D01*
D15*
X013430Y011476D02*
X013430Y011226D01*
X013380Y011176D01*
X013380Y008576D01*
X013430Y008526D01*
X013430Y008276D01*
X013428Y008259D01*
X013424Y008242D01*
X013417Y008226D01*
X013407Y008212D01*
X013394Y008199D01*
X013380Y008189D01*
X013364Y008182D01*
X013347Y008178D01*
X013330Y008176D01*
X012330Y008176D01*
X012313Y008178D01*
X012296Y008182D01*
X012280Y008189D01*
X012266Y008199D01*
X012253Y008212D01*
X012243Y008226D01*
X012236Y008242D01*
X012232Y008259D01*
X012230Y008276D01*
X012230Y008526D01*
X012280Y008576D01*
X012280Y011176D01*
X012230Y011226D01*
X012230Y011476D01*
X012232Y011493D01*
X012236Y011510D01*
X012243Y011526D01*
X012253Y011540D01*
X012266Y011553D01*
X012280Y011563D01*
X012296Y011570D01*
X012313Y011574D01*
X012330Y011576D01*
X013330Y011576D01*
X013347Y011574D01*
X013364Y011570D01*
X013380Y011563D01*
X013394Y011553D01*
X013407Y011540D01*
X013417Y011526D01*
X013424Y011510D01*
X013428Y011493D01*
X013430Y011476D01*
X011805Y011476D02*
X011805Y011226D01*
X011755Y011176D01*
X011755Y008576D01*
X011805Y008526D01*
X011805Y008276D01*
X011803Y008259D01*
X011799Y008242D01*
X011792Y008226D01*
X011782Y008212D01*
X011769Y008199D01*
X011755Y008189D01*
X011739Y008182D01*
X011722Y008178D01*
X011705Y008176D01*
X010705Y008176D01*
X010688Y008178D01*
X010671Y008182D01*
X010655Y008189D01*
X010641Y008199D01*
X010628Y008212D01*
X010618Y008226D01*
X010611Y008242D01*
X010607Y008259D01*
X010605Y008276D01*
X010605Y008526D01*
X010655Y008576D01*
X010655Y011176D01*
X010605Y011226D01*
X010605Y011476D01*
X010607Y011493D01*
X010611Y011510D01*
X010618Y011526D01*
X010628Y011540D01*
X010641Y011553D01*
X010655Y011563D01*
X010671Y011570D01*
X010688Y011574D01*
X010705Y011576D01*
X011705Y011576D01*
X011722Y011574D01*
X011739Y011570D01*
X011755Y011563D01*
X011769Y011553D01*
X011782Y011540D01*
X011792Y011526D01*
X011799Y011510D01*
X011803Y011493D01*
X011805Y011476D01*
X029830Y003751D02*
X030130Y003751D01*
X029980Y003901D02*
X029980Y003601D01*
X028830Y002551D02*
X028832Y002631D01*
X028838Y002710D01*
X028848Y002789D01*
X028862Y002868D01*
X028879Y002946D01*
X028901Y003023D01*
X028926Y003098D01*
X028956Y003172D01*
X028988Y003245D01*
X029025Y003316D01*
X029065Y003385D01*
X029108Y003452D01*
X029155Y003517D01*
X029204Y003579D01*
X029257Y003639D01*
X029313Y003696D01*
X029371Y003751D01*
X029432Y003802D01*
X029496Y003850D01*
X029562Y003895D01*
X029630Y003937D01*
X029700Y003975D01*
X029772Y004009D01*
X029845Y004040D01*
X029920Y004068D01*
X029997Y004091D01*
X030074Y004111D01*
X030152Y004127D01*
X030231Y004139D01*
X030310Y004147D01*
X030390Y004151D01*
X030470Y004151D01*
X030550Y004147D01*
X030629Y004139D01*
X030708Y004127D01*
X030786Y004111D01*
X030863Y004091D01*
X030940Y004068D01*
X031015Y004040D01*
X031088Y004009D01*
X031160Y003975D01*
X031230Y003937D01*
X031298Y003895D01*
X031364Y003850D01*
X031428Y003802D01*
X031489Y003751D01*
X031547Y003696D01*
X031603Y003639D01*
X031656Y003579D01*
X031705Y003517D01*
X031752Y003452D01*
X031795Y003385D01*
X031835Y003316D01*
X031872Y003245D01*
X031904Y003172D01*
X031934Y003098D01*
X031959Y003023D01*
X031981Y002946D01*
X031998Y002868D01*
X032012Y002789D01*
X032022Y002710D01*
X032028Y002631D01*
X032030Y002551D01*
X032028Y002471D01*
X032022Y002392D01*
X032012Y002313D01*
X031998Y002234D01*
X031981Y002156D01*
X031959Y002079D01*
X031934Y002004D01*
X031904Y001930D01*
X031872Y001857D01*
X031835Y001786D01*
X031795Y001717D01*
X031752Y001650D01*
X031705Y001585D01*
X031656Y001523D01*
X031603Y001463D01*
X031547Y001406D01*
X031489Y001351D01*
X031428Y001300D01*
X031364Y001252D01*
X031298Y001207D01*
X031230Y001165D01*
X031160Y001127D01*
X031088Y001093D01*
X031015Y001062D01*
X030940Y001034D01*
X030863Y001011D01*
X030786Y000991D01*
X030708Y000975D01*
X030629Y000963D01*
X030550Y000955D01*
X030470Y000951D01*
X030390Y000951D01*
X030310Y000955D01*
X030231Y000963D01*
X030152Y000975D01*
X030074Y000991D01*
X029997Y001011D01*
X029920Y001034D01*
X029845Y001062D01*
X029772Y001093D01*
X029700Y001127D01*
X029630Y001165D01*
X029562Y001207D01*
X029496Y001252D01*
X029432Y001300D01*
X029371Y001351D01*
X029313Y001406D01*
X029257Y001463D01*
X029204Y001523D01*
X029155Y001585D01*
X029108Y001650D01*
X029065Y001717D01*
X029025Y001786D01*
X028988Y001857D01*
X028956Y001930D01*
X028926Y002004D01*
X028901Y002079D01*
X028879Y002156D01*
X028862Y002234D01*
X028848Y002313D01*
X028838Y002392D01*
X028832Y002471D01*
X028830Y002551D01*
D16*
X012830Y008006D03*
X011205Y008006D03*
X011205Y011746D03*
X012830Y011746D03*
D17*
X032420Y021001D03*
X032420Y022001D03*
X032420Y023001D03*
D18*
X018930Y023791D02*
X018930Y021211D01*
X016570Y021211D01*
X016570Y023791D02*
X018930Y023791D01*
D19*
X019120Y022501D03*
M02*
