%
M48
M72
T01C0.0236
T02C0.0240
T03C0.0276
T04C0.0320
T05C0.0360
T06C0.0394
T07C0.0400
T08C0.0512
T09C0.0630
T10C0.1260
%
T01
X15330Y3751
X19080Y3751
X18080Y6501
X22530Y7101
X23830Y8001
X22830Y9501
X21080Y9501
X21080Y11251
X21580Y13001
X22080Y13251
X22580Y13501
X23330Y13001
X20080Y14501
X20330Y15001
X20580Y15501
X18830Y16751
X18580Y17251
X18580Y18751
X20380Y19651
X22580Y17751
X24455Y16376
X27330Y15251
X27730Y15701
X29830Y16501
X30580Y17001
X30580Y17501
X28580Y17751
X25581Y19625
X30580Y20501
X31080Y20501
X31580Y20501
X31580Y23501
X31080Y23501
X30580Y23501
X34080Y15751
X30080Y13501
X28330Y13251
X34080Y11001
X30080Y7751
X28080Y6826
X28555Y5501
X30080Y4751
X26830Y4751
X25830Y3501
X24830Y3501
X34080Y7001
X15580Y15751
X13330Y16501
X12330Y17001
X14330Y17501
X12330Y19501
X12940Y20576
X16705Y21626
X8830Y14001
X10010Y9141
X7080Y7251
X14830Y10251
X14830Y11751
T02
X15080Y14251
X16080Y14251
X17080Y14251
T03
X7330Y11503
X7330Y12251
X7330Y12999
T04
X11205Y7376
X12830Y7376
X11205Y12376
X12830Y12376
X9330Y17251
X8330Y17251
X8330Y18251
X9330Y18251
X9330Y19251
X8330Y19251
X8330Y20251
X9330Y20251
X19780Y22426
X21180Y22426
X24080Y21751
X24080Y23151
X27580Y23201
X27580Y21801
X30380Y19501
X31780Y19501
X31780Y10501
X30380Y10501
X30430Y3251
X30430Y1851
T05
X9455Y6001
X15455Y6001
X26730Y20051
X27730Y20051
T06
X7330Y5001
X7330Y6001
X7330Y8501
X7330Y9501
X10080Y23001
X11080Y23001
X12080Y23001
X13080Y23001
X14080Y23001
X15080Y23001
X37980Y23001
X38980Y23001
X41330Y20751
X41330Y19751
X41330Y14501
X41330Y13501
X41330Y5751
X41330Y4751
T07
X9955Y2376
X9955Y3376
X9955Y4376
X22580Y19751
X23580Y19751
X24580Y19751
X27580Y11501
X28580Y11501
X28580Y10501
X27580Y10501
X27580Y9501
X28580Y9501
T08
X11569Y2490
X12455Y1899
X13341Y2490
X11569Y3376
X11569Y4262
X12455Y4852
X13341Y4262
T09
X6346Y11306
X6346Y13274
T10
X7205Y2126
X9338Y12290
X7205Y23376
X41455Y23376
X41455Y2126
M30
